<mxfile host="app.diagrams.net" modified="2023-10-22T15:37:00.860Z" agent="Mozilla/5.0 (Windows NT 10.0; Win64; x64) AppleWebKit/537.36 (KHTML, like Gecko) Chrome/118.0.0.0 Safari/537.36" etag="uEn4ehCCKPl2sQ2wSkbo" version="21.8.2" type="device">
  <diagram id="C5RBs43oDa-KdzZeNtuy" name="Page-1">
    <mxGraphModel dx="2206" dy="1282" grid="1" gridSize="10" guides="1" tooltips="1" connect="1" arrows="1" fold="1" page="1" pageScale="1" pageWidth="827" pageHeight="1169" math="0" shadow="0">
      <root>
        <mxCell id="WIyWlLk6GJQsqaUBKTNV-0" />
        <mxCell id="WIyWlLk6GJQsqaUBKTNV-1" parent="WIyWlLk6GJQsqaUBKTNV-0" />
        <mxCell id="8itLjb-vwKw_TztZcY8h-9" value="FRONT" style="swimlane;fontStyle=1;align=center;verticalAlign=top;childLayout=stackLayout;horizontal=1;startSize=26;horizontalStack=0;resizeParent=1;resizeLast=0;collapsible=1;marginBottom=0;rounded=0;shadow=0;strokeWidth=1;fillColor=#d80073;strokeColor=#A50040;fontColor=#ffffff;" parent="WIyWlLk6GJQsqaUBKTNV-1" vertex="1">
          <mxGeometry x="230" y="195" width="310" height="210" as="geometry">
            <mxRectangle x="550" y="140" width="160" height="26" as="alternateBounds" />
          </mxGeometry>
        </mxCell>
        <mxCell id="8itLjb-vwKw_TztZcY8h-10" value="Login" style="text;align=left;verticalAlign=top;spacingLeft=4;spacingRight=4;overflow=hidden;rotatable=0;points=[[0,0.5],[1,0.5]];portConstraint=eastwest;fontStyle=1;strokeColor=default;" parent="8itLjb-vwKw_TztZcY8h-9" vertex="1">
          <mxGeometry y="26" width="310" height="26" as="geometry" />
        </mxCell>
        <mxCell id="8itLjb-vwKw_TztZcY8h-11" value="Alterar Senha" style="text;align=left;verticalAlign=top;spacingLeft=4;spacingRight=4;overflow=hidden;rotatable=0;points=[[0,0.5],[1,0.5]];portConstraint=eastwest;rounded=0;shadow=0;html=0;fontStyle=1;strokeColor=default;" parent="8itLjb-vwKw_TztZcY8h-9" vertex="1">
          <mxGeometry y="52" width="310" height="26" as="geometry" />
        </mxCell>
        <mxCell id="8itLjb-vwKw_TztZcY8h-29" value="Alterar" style="text;align=left;verticalAlign=top;spacingLeft=4;spacingRight=4;overflow=hidden;rotatable=0;points=[[0,0.5],[1,0.5]];portConstraint=eastwest;rounded=0;shadow=0;html=0;fontStyle=1;strokeColor=default;" parent="8itLjb-vwKw_TztZcY8h-9" vertex="1">
          <mxGeometry y="78" width="310" height="26" as="geometry" />
        </mxCell>
        <mxCell id="8itLjb-vwKw_TztZcY8h-12" value="Carregar ficha" style="text;align=left;verticalAlign=top;spacingLeft=4;spacingRight=4;overflow=hidden;rotatable=0;points=[[0,0.5],[1,0.5]];portConstraint=eastwest;rounded=0;shadow=0;html=0;fontStyle=1" parent="8itLjb-vwKw_TztZcY8h-9" vertex="1">
          <mxGeometry y="104" width="310" height="26" as="geometry" />
        </mxCell>
        <mxCell id="8itLjb-vwKw_TztZcY8h-28" value="Apagar" style="text;align=left;verticalAlign=top;spacingLeft=4;spacingRight=4;overflow=hidden;rotatable=0;points=[[0,0.5],[1,0.5]];portConstraint=eastwest;rounded=0;shadow=0;html=0;fontStyle=1;strokeColor=default;" parent="8itLjb-vwKw_TztZcY8h-9" vertex="1">
          <mxGeometry y="130" width="310" height="26" as="geometry" />
        </mxCell>
        <mxCell id="8itLjb-vwKw_TztZcY8h-41" value="Cadastrar" style="text;align=left;verticalAlign=top;spacingLeft=4;spacingRight=4;overflow=hidden;rotatable=0;points=[[0,0.5],[1,0.5]];portConstraint=eastwest;rounded=0;shadow=0;html=0;fontStyle=1;strokeColor=default;" parent="8itLjb-vwKw_TztZcY8h-9" vertex="1">
          <mxGeometry y="156" width="310" height="26" as="geometry" />
        </mxCell>
        <mxCell id="YqFJP60Pa1F06QJ819Ov-13" value="Lista funcionÃ¡rios" style="text;align=left;verticalAlign=top;spacingLeft=4;spacingRight=4;overflow=hidden;rotatable=0;points=[[0,0.5],[1,0.5]];portConstraint=eastwest;rounded=0;shadow=0;html=0;fontStyle=1;strokeColor=default;" vertex="1" parent="8itLjb-vwKw_TztZcY8h-9">
          <mxGeometry y="182" width="310" height="26" as="geometry" />
        </mxCell>
        <mxCell id="YqFJP60Pa1F06QJ819Ov-17" style="edgeStyle=orthogonalEdgeStyle;rounded=0;orthogonalLoop=1;jettySize=auto;html=1;exitX=0.5;exitY=1;exitDx=0;exitDy=0;entryX=0.5;entryY=0;entryDx=0;entryDy=0;strokeWidth=3;" edge="1" parent="WIyWlLk6GJQsqaUBKTNV-1" source="8itLjb-vwKw_TztZcY8h-21" target="YqFJP60Pa1F06QJ819Ov-16">
          <mxGeometry relative="1" as="geometry" />
        </mxCell>
        <mxCell id="8itLjb-vwKw_TztZcY8h-21" value="API FUNCIONARIOS" style="swimlane;fontStyle=0;align=center;verticalAlign=top;childLayout=stackLayout;horizontal=1;startSize=26;horizontalStack=0;resizeParent=1;resizeLast=0;collapsible=1;marginBottom=0;rounded=0;shadow=0;strokeWidth=1;fillColor=#d80073;fontColor=#ffffff;strokeColor=#A50040;" parent="WIyWlLk6GJQsqaUBKTNV-1" vertex="1">
          <mxGeometry x="800" y="155" width="550" height="354" as="geometry">
            <mxRectangle x="340" y="380" width="170" height="26" as="alternateBounds" />
          </mxGeometry>
        </mxCell>
        <mxCell id="8itLjb-vwKw_TztZcY8h-22" value="" style="line;html=1;strokeWidth=1;align=left;verticalAlign=middle;spacingTop=-1;spacingLeft=3;spacingRight=3;rotatable=0;labelPosition=right;points=[];portConstraint=eastwest;" parent="8itLjb-vwKw_TztZcY8h-21" vertex="1">
          <mxGeometry y="26" width="550" height="8" as="geometry" />
        </mxCell>
        <mxCell id="YqFJP60Pa1F06QJ819Ov-4" value="" style="shape=image;verticalLabelPosition=bottom;labelBackgroundColor=default;verticalAlign=top;aspect=fixed;imageAspect=0;image=data:image/png,iVBORw0KGgoAAAANSUhEUgAAArwAAAG7CAYAAAAhV0ZmAAAAAXNSR0IArs4c6QAAAARnQU1BAACxjwv8YQUAAAAJcEhZcwAADsMAAA7DAcdvqGQAAP+lSURBVHhe7J0HYBRF28f/e/1SCEV6SaeDiB2Q3ouovK9dUQHpXQXFjvqiKL1LtSuKBekldLuiKISQThFQavq1/Z7Z27vcXe6SCwRN+J6fLrnbnZ155pnZmf/Mzu5JFotFRpDIctBBGYZhGIZhGKZcoFH/MgzDMAzDMMxVCQtehmEYhmEY5qqGBS/DMAzDMAxzVcOCl2EYhmEYhrmqKdVDa5IkqZ8YhmEYhmEYpmIQtODVaDTYun03NFqeFGYYhmEYhmEqDqWa4RWil2EYhmEYhmEqEqUSvAzDMAzDMAxT0Si14HX9+AT/CAXDMAzDMAxTEQha8AqB69ocDof7M8MwDMMwDMOUZ4ISvC5xa7fbYbM7YHOANhK94piDRS/DMAzDMAxTfglK8IoZXSF2LTYSvhcOI+znCdCl7YTMbyljGIZhGIZhyjklCl7XEgaL1Qb7+SRUmXs9bPfPA+L+A+hMIoAakmEYhmEYhmHKH0EJXpvNhnyrA+E7+kKK/C/Q6EHAmieOOgMxDMMwDMMwTDmlxBfrutbvijW7YhmDMrPLYpdhGIZhGIapIAT1SxKK6BV/xZpdsYyBxS7DMAzDMAxTQShxSYNYv2u1WpFdYEeN9yrD8fg5dYbXB61R/BSb+oUJCvIt7AXqF4ZhGIZhGOZKUDaC1xgOad8kIGUBCTh1H1M8WtpiR0Bu8zpQkOXcxzAMwzAMw5Q5ly94tUZI3z8H7COxW7cpoDGoB5hicViA4weBNiR6b5rKM70MwzAMwzBXiMtfgyCWMYiZXRa7pUP4SvhM+I6XgjAMwzAMw1wxykZpiWUMLHZLj/AZLwFhGIZhGIa5ovDUIsMwDMMwDHNVw4KXYRiGYRiGuaphwcswDMMwDMNc1bDgZRiGYRiGYa5qKpbgzd6vfiiK+91qF9UwluM+vwdXeK5zP323BI5PUOz72pirHp3RBJ1BB5363YkGOpPYfxWMFXUGP/kLhvLrA43BSLbp/7WGTakzxtJ71IvLLhc6/3Jt8IdGT3HTVobOVfxVXHldgTQZhvn/ScVpRkjsSn3/gvbhX/xsHyq/4+AQYrfVVue+Bz6Exi16hbB9BxqPsLBMhOYB2SMO380ZrnyLXknt4C6hQ9BQh2oicXAlOkY3lIbofN1bMXaKjs1IYUy0iZ+w/pfRGcOwfVwDSObp2G52iQ8hKI5ihrEqpLeOUn7oe1kInH8DIaq2vEL5ew1bSiWuivqgvCDEbuZbvSEZVyHzMkTvpZapOG/Tw+SXh3ddep24nHIJO4nFnW+hc6+B9MiOsq2X4vpMfR+tzAMxL7VsBKguJBwJg8hfxsVI81deVyBNhmH+/1JxmhBSnnaH+rkIjamT+RC6Sq1I9Sr/K+FtstUjg7JzP2ET/8gOOq58DYgIV34dRGI3RMLng2+kDm4oFp4oRYcgxO7ZvXh90ChIw3aWbcfoRojdPRhl7g6p2QCENruT7Hwc8/11XErHthqdTLdBajAdmyz/tuglf2i3Y92iiZg8aTk+32hWdjnRILRNA7QJoUyUhcD5N9FRvmAuhahy4eGDcoY2pDbQxuQc1F4CZSJaL5dLKRcdhV77LobtHYCd9vOQV3aErUBp6condM3jwHR0fv8tnJBHITbf6m6fGYZhrgTlV88Vgz1lEo7Oaa5uk5CXK/ZeA3uMcjgotGEzkbNQ8onjb+RtdsV7N/KNUvl1kJY6uAMf4H+f1QIeuw9DouViBgQ+iB+6+PU7TF6TClT5J96frEdujXA0jw+BsQLUOI1Bj2PT52LGuDZ4Ibod5r21AseMfmagJCNC6rYG6pJAcYkjId79zWgr+2kQIGYPxTE1uPt7STPghFdYTzHmlSZtHod8ccehp0C+qlC5le65eRjjToOECm2+ZpaFbcpyBFc4zxk/3zi8hGjhbXyNTgu9T54C+7fwPK84yQavMvVbbj7nqjOxtoJ89Pg4F/LHnZ1i08ufnmkXpdhy8cp/gHj0RsBE13KPKDQUo32rQ7WxMLCShppP52dXnEXjLVIWDits8Y9gv/0DjIqnz0pbIwa1HnE4oyZU/3jF7/SRC50oqGbjIdsfQ20Su+7CFj4Td3nE+eKERsGmyTAMUzzFNMHlF0mrQZ3KenWjxlXdL5diisBhvQ6V67RG/Zp/oF5IvjsO0bjXDzHQfh3CC0hEqvvLGzqDCXs/+RI/2EMwZ1QX6Cw25/ILX3EgOjKxdEHrnDJVOjLRqZKAQzUdQoRwpl5DCesWEq5OxaOTcsXrIUS8xYQ4X2w69bgNNguJxbwtkI+8hRW18nGC+rUiiHjFdG7j+5Bg/xbyicnoYbB4zb4XScednts67w5aOUYb2Vr6mWINmZSGrzelYVi39jB16ILrd27HukTa73G17Ktcl0Rxf7SfWQ9tZ/aBdN9W5Rat7ujHuMXcEJL5BtoGY/FRM/mb7Eh9Dzea52DKM85bzgM3kH2VKiFhbBx9F/tE+KFYnEl59XNV6sIjPMLeCGnct7SPBI6G8u1OUxxriDE7QvwKAV0YpTeuhTOc4SY8uTcCDWi85DxI5+yYRseuVeNpg/YLT5AvyRg1jbaKjS0hdV+Dc/XNcA2VysI2TUgl/LnwMQoj0qDwt32M05XM5HPfONpS/N+QuSISuvYrncLijq2d5+mHYf6F6mJ85YxT5Nevf9XzbmuqHmsOaSzZXCkUKa/2KSzTh3dCd+wjn3Ije7zObUPbdCRQmyHq6aZ7QiDds13xdaE/RdpqXfBXtsWVi4bO8apTjxeNR4jEr56C1HMf2l4YitraezD/6Eksrl+47ESxzTVzXSnM+fnZuXjabR/5Ro3Xf1lQfo6sRCvt/Zh3hOqzhtIM+xZjhO8UP1yLcTtCKR0hdp1LXvo+Nxs9lPhVH4WS74S5rnIxUl3RXkfH1HIR1+zGKZD6zsaUvo1o/6NYtOMjdCkxTacbGIZhisNP81v+0UT9z2Ot7f+gD6GduftR8GvxD6F5Q2LW6oC9gMSvz9IGhxC65VjsCpGIY59h7gpS+D3+i/ta2uFQfu1OCKsPSJj0VpcR3AWp8b1o3uNZLNrvIJFgQsbcwZCq9oM0/me0jauB63a8hNCGdyI0ujuk0XuUjtG5FKEjdSjTnOsI3fF2gtTxA2V9pAi3ZfRNkKJFOrQ1vRPS9QNx+6SdOGc2eIheUrk2+utvMOJpb5M7EBrfizrAqdhCgtyliYqk49qiu7mXYwixq+SrOuVDsYXyfd39uG3Ix/jFRp14aUSvRgsk7sMHO+/Cf7plAXGP4o0Rv2H2+gwypvByaXP+OOo9+SV2jT+GvePXQf6wB1WpbRjV9BXcvC4Nsn0/5HXxGNZ0KrYbKE6NCdfo1+DH+h9Dtp7Bqtspko8GovPi53DM/gNk2wHsmZCKYdO2k2DzVoQagxnH3uiGzrtfprA/U9yzMX7Rk7hlZiYJgHS82XQUOm49SnFQPAdfxLo+T2CdWLainq9Aogjrn0fnRQ9hu/0niuNjRO9bgzxlBlDYtxn39vkV8w8epHh+hLz5buye8D62iMGPOQMLB8+FadbnNKik42NzMOnjcFTW0oVjCCkT2zQbn0e9CY3JNvKbLQ0JsaNQu/0WEq3peJHiaPU1+VTEkTQR3RctxryDYv26EcdeH49huU9Q2r9R2vch6/lEVIqg/Ij8fhLAv6FmpE8djmFtV1J+KK/2DZi9+Hbc9pEdsc+uKyzTd7pS3dV5l1t/IOWpazEscrHTT/ZPsaLPJgx+PY18oYGhWm0aSIYqdeHxPplYmZxI4ShPX0dTXZiDFBqAejW6JZWLcSfVqeloI+qU41ccm6GjeF7Fdqr3bh/aaIB4+xuQN7XD3m+nYJd9NUY2pAYhznvZidM25zDFUPc24M1fUV+UN8W7c3w6hvVZjvSQUP9l0WMz+S0EVSDu0lCcoZlYeOMY/DZrA51Pdq97ELP7/AeLkil+rQaVbu+IddPzMdlO8VOelvXajs4PJQBh1FgHKhdlIH4NsGUq8scm07F3May+A44S0yQh7eVUhmGYolwdzUTuVpya0U0sqfx/gZY6yd8/+RQfn72I50b9F9cUBFr/RkqPOp8/LuzElHYzsV3WQJ3oLQEtwmJqoUEMiUV1D6kuVImqhlrVDUXuuCpItJfiTl/zEO6ek0bBS1u1zMiNPIEmnmn6IdccjrhII+qcvIixA24B7H6GJRIZ4tAi+9uX0XrKDurdi4vRGw35NnPTNujmD0QXkSfZjs533o9D677BCSFcPZELYMv/E8gnG8SoaX0C5veYiim9qTQstK/3I1jZ42t8vMFINjiQb22Oe3o0oPB0Xh6JlDuXU/SPoK6FwktHcOg7Gn1VcgqSQsTMciq+3pKPW4e0obC5cFg6YOK86/HdO3vxJ3nLVA14/allOC7KNvYhpNjfQB8LDTKcESjotDps+XIGMLYNOlmF3VEY8UQX/JUpag7ZaumMj0i8jYilAYos4VhiCokTISSoHA/tw3v7muO+rmR7Th7Q6wEsJX1/2k5+1aSUoW1tyTbyS04OOq44C3lLR9gu1sWLci4WdSe7HBRJcjo2IxwmYZdW+OU8bn3ElXZHTJxTDxf/pvyQCHQU41/ZVB2YuQiLEylOWwOMsV/A7jvzgQKPMqWBGoX0LrfcAkS/lk0DHBKMNGAGMnBwXSiahosMemNAIh6ZRSJPXJ3dX4Qsj0G0z1rVYsuFrl1s/AbzcT9u70a2ZxWg7uhHMAkb8dV6OuZZrelcpz0O5yCTzC+W/GRg/BCMiC+gAb4NsVHRQG0jCUsdEvyVxbpOQJ6z1GQxRS/qxM/X40FXnej5AJb3OoOFNDCBVgv736noM+9+dLLQMWs0YmNOAJXJ9yLOYuu9yMMU9O9O+0R6qrOKTzOVfFHa9oZhmP9vVMhWwnsNb3OkLrwdNZu0ht6iBnDh2ateNWghafbhk2VZwPUDcW8XG2RXPsU6u9gHsde2GfKRr5CT/DXk31/EW1VqwxxzHMmHrGgwZinks2shz2yNvcmn8UvHF5CT9Dly0uicue2CftDFUZCPbgt/gXyc0hFppXyBi5NicEC6DtuPHqeOLIiqJeyNuR978zaSvaPxTEYcctRDLsS6yG5zv4ec9hnlZz0uvNoImQm/ofe63ZjVQ0eaRCahU4CosSshX/hatWU95BVdEGpvirpHTyCdBHBwFV0HjTYBsyeeRcKk+yHpb4ZkuAFSt+3U2U7HW+tJ8AbSzpRGSsrfwJF5qCmJBwnpXOk+PLLJiF8TE+m4EMsO0udqDy5mt1PeRXutuDV7PR2ehk/q+bs3S5Y7MnF4G9C+CYkShzjfRnnOBUIlEjeRGPX3b1hknIF6WkrXSPG1/wB/VjJ65Jk+SYlI/KkBOsdFknqgOBxUzlEN0ItsksXxsGNY3F49X38t+mylgUVVOlUMHlIzsA+N0bARqSiRvjUG8XE/Ip8GULBdAdsIUe6iLupCQpEwvCmVA51raAVp9mk8HKUhm8kuu3faDqpP9RvWJzFHgw+tnrR4AP9SfYme+AGOzZAwrOm1ZJc4/igWp5rF5eUHj3LTmaHZ9BIknYi3NZ33CdLvz0WB3VPwirsaHTHP/grGzhtLYW8i26k+DN8NTZhnBSq+XITrMw8eAPpEohENQhQLSITbSUr73AS4NISoV4WxQxk4iuVIh/2XRb5Hu6ARdSLVo07QPpsVlgt/I8xjUHhOCFoFUTbqRyqXkuu98Lf60UWxaRbWJoZhmEBUyJZCrOGtbziF+jWNyhZTpzHkHGokI+hgynFnxxDSBfr2Uc51raCOsmNvZ1+Wewz2ggzRXVZINHojTq38GFOPpGHw2HvQlERBYd+ggU57GhtenIC2ke1Jc1KHHPIUJp7XoQr5TEyKic7eZqXOS5kNIsRaCLHkwGLxI3bVc8Rtfr3WSwtoDCG4uPdDjOv7HyqP66hzbotKY5LRtoYdIaJzChYhei2ULm2+fZwL0eFCZ8LfH49HxB0fYui6nzG7GwmqPHUtisYEpG/Gi3c9gJpaKmuJ8t1mE85WPwctZcCvhvGHmCXauAMzOtyNYxd2Qc771rnZNmD73WGYsWkXpaUuEPVFlhEbew0QPwqn5B+c5xVQHPY9+HZiFFDg6vGdiId2Nk0bhd0TZlH8P5O2WI4X61L63sEI2qFpgEZdgF2H0uizKBCxjCMEyLGSz8gH+XUxdA/FkUcDA/tbmLR3Ke56/YjHLDvFITdG4+szsT0505lPUUZpmdhAZSxpyUPKE/53Y4/8I2TLr/h1TA0kZ1LclC/ERKINEnEkiVSWSF+XjKTkG2CSKF5dWdqWQRe3c7+yJjuU4jm4DOMW3YIVST9BttIAa/7NOJ5OglLErXWm/WuSM20N1dNjh5JAhtF1oMXW4vxrLUDdcTRIyqP82tRb+l2WIlOnL6a+0PVFeZ8xfg76LfjUaY/8FPqe0xcZqEFLCVnaYVYB1QWxHRyProtux7AvRRxqmBLKRbi+QdMWwLoMHJaUYQmF0ZF9FohLuHioPaQwOndidJ6ptvo5EDRYQSP/ZWH2qPfibkZMjFInkg6Tt0Qw8psh4hpkizsbxaELtt77UGyaJZ3MMAzjbDYqJGLGxU4iQtms6ivHHNeRsBgI22klCKRmhe/V1TQgMULYT26jDr3E3qKcQp266Qg+WZUCY/yjePROI3Xc1BGo6IxGbBn3H/R+5RA6L6F8yiQykibi+ap2ZPnrh/Q6hJ/NQrakh/dDYORTi5a03Y/4eb8Z4h3IsyZ8gq/CLjgfVNJS53dkFTp1eBuzzXfiuP0PyLnrkfpSFPb+rUTgREdxGigsdbrOO47U2espBpGWKnicD5tRurQ5hQaFoeNKGNUcXWglpKwaier3pePVbb9hWk/Kt12sIxYBRNw7MKbRW3gp7Xp8kn2QhMheHPvyRtQ+W4VEV/DoyJbtG79Ckz63oq4YGIhBgDIQsKJTj77AvO+wh8J5zkdZxO1vk+iAaevdCSM3PYdXxe1m8RR6yvu4URuBh76g74bCcnIjXHAoA8eFiE5chiEzKN9m38GCmB2LQd9uJnzz9j4cJzGpMezEW6N+ws0Pd0KUZhseMFfDyI2UnlhTCxKBnU8ipnFjOrVQCNhI/XTr/wQw+20sPuIUMAkb1gO1nOVAVwttSTh8iL7rUjD/+fUIaaClvRRHkzZ46KbfMXgB5V6I0KRvsGqThGu0dB05YsvItglk214kUP0Qs7p/LngAkm4pjlGdroz9ECssRCXa/vrr2FbLTAMZOt8eg96962PjmI+RYDBT2un46sNfC30YyL9GE9Z2qwrpgZ1UThSITGsYGwe0iyELZeS5ypQElT80phpYe0QIVArz9QoM3EBu9AxaQCPvpBWQzPdjUYo4QAk0aYDrcDuax9PnwqwXXy5iVrnnrRiJD/DVFqp14UYcn7sSr6MnbhfLZgI2Y3RMjkd880zsWucsF+i34/OZdC2bRDkExuawoVOAsjgRYoBYNSaJpR5UJx5s/RPe20p+CKV4N76PxzZUw/C+0aJxdkYWiEDlUgzFpxkjDHe2JR4PsjIMw3gimp6rCBnaiOthnSvhjLi97IPl5+ZIWzYH5iqxnn0OQR1XBUCiDih/9SqM+fE82jzWG21kz7WQ1GFIWTiXFQa0rIGvn+yJ0Jg7ILWfgZf/NiLcN4tyPpBjRtSBtxDXpL/HQ2sUj+Y6XHfLBaSbdFjxcBdIt7yCV45IqB3m8hqFOZ+D1GuqosXRFWgTT+c2eRAxLx7Bjc5xBXWw1FlueY06/X4IjZ+IR09GoEn0UbzVrwekap3Qdq54qMmsPmxG6cfPxWuR4agf+S6Gxven827BqC2iwzWTdhiFuMGnENVBi09G96KwdxXaSzYiJwvnEU6d4OcY2rIbpIZ3ol7/7/BN1XPBl6zofH9fiIcWNMXo3pFKB+pGfO5xC0ZjKSbNOAp7Tib25dI+u4wedz0JzBwBqcYipGi6Yt7BZ/Fdn2gSCDdCavomDDN+wbt3UNh8K84h1z3Ra7Pa0eOpebhtw3zU00RCGmzC0oUNgBkHkeKzBMNhyUO9p7Zg+23Po55W3EYfi5nDpuPb8fVgy++C9w/Ow08iTXHbXNsdj8Uvwfv9SKh7CiKxprXnizg2Q+u8ja9pimmm29H9ZA6sQqD0exCL2v6OQU1b0rGpCHl5ONpk/ojfDpJAymuAYd9Mx9j5Y+lYE8rXn2g/4QK+ukDHLLllZNvLZFsiOosZen1T1JvYHNvtj6Fe7IN4cZgNr/e6HpIUgXV3z8ekk+/i28NUB215aDD+A2wf9h6dJ26P34Oj7R8AtuWggPLUNZB/LVb02/UbidHHncsNKL3aoxpg+4cdgVxLYZnGL8MxqhZ57nJzkN1xGPe/e+n4ZLKnEqRN3fHN+DNYk0CKXNLAcobEcvZfQNOhkNc1x/CmTSEZKQ3pMeya8SJGNbR7P8BZXLmI4VpBB6pTT2Kf8KHmWtSbYMOig1PQucB7HbQC+UNYq+y3WtFtIuV/0wIqFyoz7XdotaAukOFc96XYeaZwDZg9l77vy4ed7IG/snAMQZ3sbPyp+IIykNMAw3+Yg5bjepFd5Ps+72Hsuk8xLI7OJ6Ges0+9RlTc6dmKqfeiXfHMg8BhUa+b4tIsgENnRNrz1SB13Mqil2EYv0gWi6XYIb+DGhorNZ7ZBXbUeK8yHI+fo8ZUNEoqejOkd6rQCL2VuuPKoNFpYDv2M06amsGRfxyR9aKUW3b+0JIIsqf9iBPmZuoeJ5LFhHr17LAXtvOEBK3+F5w/AWTpm8Oo1aNGRCneaXu55O2H/LCPT/0ikUDMwaq7BmLMd62x8tCLuFNb4P3jGWJ9XNrXeHjICrxL+UGIEff2fRg3/D0LT6xsgHm/LsHIGPE+S4orVMK+FybioU8ykGrTIiQvC7n9nnWu47VpoEtfi4cfpnj+diA8pCGemtER53q/gRm3DkHajgcQpbFi34tPOM8vAKJjW2LkgDrYPOpDbB4yFfKizsDalyHd8S1CYjynv0hTnD6LNs8vw96J8Uh76zHEvPw3Qmp4j71yU49j5BffYV6/I5h9/SMYd7YmlDdRucgttFeWjUh5fxIGTjuAfTYJVUIbY8TkRjj30HtYcOtjZO/9aBDMi+1J9CqzyjbXOz890amz0nRAQ4GoI7aJW6liFlvs1shULykNJQ7quN2I5SLiHD9xe4al8+lk+utwxuPc64V4Y4VrXSUkEl+uJSi+aXoe80HMgokVsAriFBGf8hAZlbl4j6sy8ypsoT8iX257XfkX0A6JMiOrPiDK3DaRhvpwm1fcwj6xdEL4X43GO22x+SmLIv71zK+gMD2vMqW2QhS3V7m5jgvEsg7yjVLOlC/FFvWzVzgF2h/g9nvgciG8fEhh/NZPQkkv0HniBBr+SSS4fe0klPQ96p7fslDio69+6wThLhOXb33qhyu94srFbx7ob4lpUlBhs5o/hmEYXyqM4BUI0as8+yOWM5TQprnDekItpv+7bUL0UgMs2lHxqjJnG/3PEKzg1Rmh+3YhpP5fouaIl3FyamvYxEMnvgjRK26ni45c6VOoeIUjlLW6nh0liV4jdUriuKsGeIoR33jEGjrxFI1L2PmeL9Yeut7v5oqnSIfvCXVo1Bl6d6w+KJ2ZrzDxwMNerd4oJtjIFmEn/RXBxV+3vQzDMAzD/H+lQgneq5KgBC+JS5MV799/Ax78rCtWpM7FI9UL/M/yMAzDMAzDMF4EnH9jyhMybPl6PPBBIuS82Sx2GYZhGIZhSgEL3gqDEL35EC+VZ7HLMAzDMAwTPCx4GYZhGIZhmKuashG84uEw8TgzUzqEz3wfrGMYhmEYhmHKlMsXvOLp+dgRwPGDLHpLg/CV8Jnwnb83EDAMwzAMwzBlwuW/pUFgDIe0bxKQsgCl+mmr/8+ImV0Su3Kb14GCLOc+hmEYhmEYpswpG8Er0Brh/C19JmjEzK69QP3CMAzDMAzDXAmCFrw5VgeqvxMBx9DzED8nyjAMwzAMwzAVgaCmZCVJUn60ShLS2JYvPondDMMwDMMwDFPuKVHwKmKXNp1GA1t0ByD5U+XX1Vj0MgzDMAzDMBWBEpc0yLKsLGuwWG2wn09ClbnXw3b/PCDuP4DOJAKoIRmGYRiGYRim/FGi4BUIwWu322GxyZAvHEbYzxOgS9sJmSd5GYZhGIZhmHJOUIJXzPKKTYhem92h/LStjUSwOFF28AwvwzAMwzAMU34JSvAKXKLXtcTB9ZlhGIZhGIZhyjNBC14XLpHLYpdhGIZhGIapCJRa8DIMwzAMwzBMRYJ/Go1hGIZhGIa5qmHByzAMwzAMw1zVsOBlGIZhGIZhrmpY8DIMwzAMwzBXNSx4GYZhGIZhmKsaFrwMwzAMwzDMVQ0LXoZhGIZhGOaqhgUvwzAMwzAMc1XDv7TGMAzDMAzDXNUELXiFwHVtDofD/ZlhGIZhGIZhyjNBCV6XuLXb7bCJTZJgI9FLyhcO2i+p4RiGYRiGYRimvBGU4BUzukLsWoTwTUpCyOzZ0KxapR5lGIZhGIZhmPJLiYLXtYTBYrXCnpyMsNatgWXLgD59AINBBFBDMgzDMAzDMEz5IyjBa7PZkE+iN3TUKGjatwfuvRfIymKxyzAMwzAMw5R7ShS8YnZXCN4cux1VIiKAkyedB1jsMgzDMAzDMBWAoN7Dq7yNgYSvAi9jYBiGYRiGYSoQQc3wWq1WZNNWrWpV4MwZwGJRj3pgNjtFMYvh4JAkGm7QeCMvT93BMAzDMAzDXAmCFrw5tFUNJHhpv/zii8BnnwH5+U4xxwRGDApMJmDAAEjCb2fPqgcYhmEYhmGYsubyBa/ZDPn114EVK4CYGECnUw8wxWKzAampwKOPQpo0iWd6GYZhGIZhrhBBreEtFrGMQczsstgtHcJXwmfCd8KHDMMwDMMwzBXh8gWvuD0vljGw2C09wmfCd7zumWEYhmEY5opx+YJXwGt2Lx32HcMwDMMwzBWlbAQvwzAMwzAMw5RTWPAyDMMwDMMwVzUseBmGYRiGYZirmn9J8O5S/xZFPq1+UAgcTiCfyHd+OOoM532uJ0HGc6KkcOrPKgcgcPpMeUNrCoXeYIBeq+6oqBhCnPm4QnnRh4TRZlC//TOUVZpKGZsNKJ1btHQO+dRUXipGWdlzGfEodUwPvfqVYRimInL57+GljlZu3RqIjFR3lIQQlR9Bv/Me+HtcS/6wAyz350Nq/z19CxxOIO+eCkv756FLlKFtpJ77MmWqhhpAofj0BK54tLvOQHcb5TEA8jcU163tA8fjN/0SyMiA9PPP/n+9rkQk6ENDAWsBYLfCald3/0MIYQKbh90aO6z5l2iE1gi9eNGHGILlF8B6BV9coTVVwtHF9yBqMrDgx3cwvAGl9w/7rkwwhEO/4wVIAz6gL9GY/s1aPBFrKbO8iPLd0D8cvbEa8pedYc29lDpaOsoqTSF2M95qjZhXBiP1/BBE5llQsluEKMzE9Mo34Klnf4Q8scGl1+cyoazsuYx4hNjd+hyke4BNZ55Hdwu1M+ohhmGYisS/NMMrB+x8pPt2wrCrL+Tfo+lb4HACWZYV8WlXxZH461+MBhePo4TXg9kpnuJCBE7/SkBiN8KAz4c2glRtEBb8qf9HZyuFMNk8vjGkZv0h3UhbZBvcvCDj0maQhNhN+xi3Vb0RUsNp2GSl71fMkVpoDMn4+j0DnpoYhi+2p1NmystsXmkgEaNNxPTH30L3tzZAvvh1mYrdqwFdeEOgdShK98JELcJp/N4qvLzUibKy5zLi0YXQPyR8nd8YhmEqJP/yGt4kXLz1VmS4tveTlL3SbSOhn1Bf+ezEJ5y6HR+0DlJcmBomGALHY+jUCbZB17j3/b3zjHKGfecL7n3ntiq7gDM78Le6z3P7eypgqKmGudLojMCvq/Dqhkjg4YcwIlaC7d8SO5Wq4sa4UNQ2VoAl4Qby27qFGPVXHzzRKR6bn/oA2yWNuzN33k43OW//KksFfG7lei4hEJunwNfSea79ZjUO93H1lrL73OJuEbvCuDZ1txcUb0goql3bCNc2jCfDabRl9F4K4HVL33VbWuTPFa/X4MQzPbEB1txs9NpCg7wtPdwzre6lIGLzWC7g9JuPb7yiD+A3xWeFdsFWNE0vm4td6lDoYw1F710dS+N/AclkLYURYX2WRXjZIzb3QZ80fGwNOh/uekQWUjjPtAVlE0/x/nCnoaWRp68BnvVcCaPuJ7xsK/VyEoZhmCvHv65QTNQwRppMiKTGt+6DjXDxkNhbFXKMctiNCFfbZ6sVZoJsz1ZDBEegeCx2Owx1Oyq21LmYjkrqDKMkaem7jLqWZES4vSWhkp94apLYLX6BSNmhJ+Gxb81n+MkegtnDuwJ5Fvfss6QXYstc2PEIAefqeXT02Uj7xOaa+pLoM+Xbax8hkahWRIzY74pLFSpCDHWfmQg5aQOOP1IFP2QUvfXsFkcewqqwQ1R3iM5TS5Y3vB+7s/dDTnkGPfTeSxrc8VDnqzern5U8lL766in/27Z9iYjRt6B6p5sxCp9j7VbKNNkjbBO306Xn1+CdOyIgVWtA2/+wI4x8KU42REC/8yV1f0varkPbJced+dOSXcfex83VmjiP3zUDU+5uAemtTDpOtlY+hUVdRJzO80S8CaG0X7HKE0orbB9GVqumhm2A0TvJZ2KSzY0QK8l4s+pNGJTaFOv6hUIauQ/fjyHb+2+nsCQ0yGfilr5U+W1kVKrkvC1dbTamPN9MjVfYfoLSEmXjm2Y1jBRpViN/dJMgddvkjLPSNTix5D46LvJIW/cP8VcVyrfLby++hUmKb8Txx7DoGMUrog/ktzA6N20FWlWbiWcUu6phUEIY9t1XmKa+ak3smEhxK+c1hfTEPtpnVrzgDflE+Lh7PIWj9CsNxuzsOqR6ncc0Qftf0BDxtX/FU5WqOONS8ymyoq9c3cMeNZ9HRR1W03enQb6cSLZWdlZ073yox/zlw6se1YPUczXOxsZRCTkpm3h8bfX2h5LHJ2o5j1VujonfVUbdWsqJdGo49Mffx/UibSXuR7HoOLUR5Bxv39DxLh/idGWz4jeGYZh/m3IxJWdxOEhw2uBoRI3paefMqlSXRJybhjDs3OmzfQ7tf+iQM3iQBI5HviCWNJAdZIts9X44TSb15bD/rX4jqnXwE89SOp/iUINcUbTUix/7ALPfo8/t78WDLexw2JyHJHNl2H99Dw/36gupdX9Ire5C9N3TsfE8CRghahMXQ6p6C23UUadTp2gkUeLYh9Et2tC+PngjkTo90n+SOQL2lI2YfO+9iLz5dr/LFoToddhlWGxFcy0EV/qCB6nju8l9jhBGyjII6hCHb6V0hBBPW0WdcndI1/eB1LIrpPCXsFlfONvkjOd+OucxLD2lx0/T74EUT3lr9l+MXJtF8ZamCpP4kDfiy8U34tWetamwuuCpN1pi1padNBBwChNTy3bA7EH4bnQW5JyTSBj2KTp1fBfHhDjD17jrrp8x/5eTkGlkJq99GPsmvYPNDiFAU7Fg+HSYp29WzpNH5uG1zdegf2UaOZlNSB7RAsPrrIWcRedlrcfKnuvR+Y00StBTDlA8YelY0HYQfp1O4j+HBhRrRmLeXf2x8AgNPtxB7bDmxeGJs99jecM0RM78DfKyXsgVhyJNSgiB1y19XRiNI5fim1pfOeP94kGyfRLmHdRBH+GRZhYd+2UuNt3VHrMPAHWj6FwRp8EMzYanUH9SUyRkp1C4zZh7ehRqjUpQZg9NLdsAM/cjUviGju8ck4rhNy9BmqEYv4l6ozGhVvhqfF+X7Lp4Dsv6UHsQqqZpqoRj05qj04a5OJp1mOJdijFvj8b1M1PdddCFqCfH3hiM4Wefo7CpFPZBXHzpIF2rWrpcDEgPyv9OdHXqYPXDHyDql2zyVWE+NZUjgA97o9PStyiNgxRPGvaOTcbwF7YCEeFIf47SaEvlny3S2I+ZS/sh6kPyLw04lHwsnUHnkX/p2Gw6Jk1L98mHv3qUjcmrK6GGlnxlLqt4iqmPlcKBdU+i09sjqZxFGl8h9pvVuGAQ1xmlYdiG4de9hHZrxPWRgqOv65Tv2800IlvzKDolv43TucI3WdheZxRqjzhMRVzUxwzDMP805ULwunFkQdxBc1LSVGnx63KDxxnP5S8ZdcbzTzhUT+Lj988+wSfZ5zFl2N2oWqA+kKMPgW7/bNTp8il2XshT+icYtEjPWI1e3V7A9jzq7K4dh4I1twOh5zD83qnYl/cnlj/4POYdc2DUmi/wVEsrrBLF8810mG5ZhHcyT+O8UPKXgMZIAqGK2Wupgz4smsTMNQj3mEl2Qion8hQaxqizqR5ojFVorJKLg7NfxA2vUqdc2QzUt+GrMdPxaQ517sEWnljOsHkj5o4aiZGNySabBfV790L3xXuw3RVHwW9Aj0WY0tMCR44NHYdMxm0/bcJXB62kM7tjTdZajIgSs9kSjiYlA2Ek2sX988TdeOe76/FgpwZADvm+56NY3t2BDDulk5eDmHlWyB/cJkZ3dGoGDmwMR28hhj3RUs5FPL+1wyOueHoMpHj+wqvrUsl5nsKBSjw3HwV/78efFvpc4kOPlO7ZR/HSyPoUL42O6tdHZ/K5crv7kEeaedmw1n0QyWe2YmxjOsVV9DQg2PLVTGBUB3S0W2C1xGHU7GeApbuRkF8A84V9wJhhGNGQ/EYDxNj6pJRbmElsW+GwBPCbErGMvKyWuL8rpS1+ZtudDaogciK+3qHFtWNvQz1bLsXbFU/NvBU/L01AmkRCVg0pKrpGOkxhc3Ht466w3fDUW5TXE3bYC/IQFYz/VRxnDlNeRlJeCmDNp3zOfFrJ5+ZcGlIMIGGeNRj1RDw4gj/2nKVRgXOQ4ajSF5gzD4uOULy2SIwj0Zc+oIBGhofx1ZYCPLVuOOqR72CPxZh1U4Atu5DpmQ9X+XvVo4extKuoR3RMLot4SqiPOr1azu3d5TxibHdkZ1I4LZ27ZQ8WYTDu7Ez5umhBveGD8SQNaD7fTOeargF2DMFrGykcndvpAxLF86L/5Qf/GIZhnFDLVI44RW1vjWrKR/sx14JZgb+1t/1w8VMKT21s8ASOR0/aLGj8ruF9FDkaTSkfkLkURMe3Cx+9kwU0HYT7OpF4UUSCROKlAJ8u/xxnY3PQc/z7kA9sgfzrLLzdqAFq6r/C2j0UzHoOhh7TkPx8derA9uOhbsMx8dhZdH39Y8ztoYU1l+LRX8T7SzdS/H/j+jumI3n3Osg/fgk5Yx++GxFZdh2YLR/W6IH47sw2yL+Nw+SMGOSoh4oQYsT6tQkYsmq9kqcZ2j9x7MIB/HFQdNJqmGIhYWxIxsIlvyDsgychhTWDVKUppOaLsbnKh3h9QYYy2yflXwRiIlGH3Gq3Uycf1wA3wUR9PaVTKROLuonzWkKqFIueOyohWrzUQ/w8dFoGvkMTNIync4R7rBZFjCoYwqHZOBlSuLjV25DS/hCZ9+YiW4gPT4Sg8BvPAVQvk1kyB2yutSIO+iz+inylpXqnaadyEQJavWugONj+G/74BmhLvoFDCUTHKTwdc7v/gtjn/OhQwghIjAbymxsH+dp3UEX5tabjYIKE7o1IPCvxCfF8gcrB4FPkFNae4RXW7qDBTDwJ3lyyUawHCcb/Ko6CP3FT/Xp0XVGadhroRDZAd2oqdRpKNXkp2oZfS/E0ovhewUcxzvYK+bmImfgljr4ODL8ulvIqjj+IRSk0OJMzcCQ1DrP7mCFVJhsqN4bUZz2wJwUHKd9uK4qUv/BnIxoE7sd+K1331rKIh8o7YH2kNBx0TXmWszv/DkgUbeahn0g8R4JSdt7NspKv6fowiHc39H0d8pqJmHVXLad94bEYvYkGNq7lSwzDMP8i7jayXPDUTugaiw9JsC2khtmDomtv9Qi/eBFFXqzg80ow+bQSoZtA8ZTuVTv+1vDqEHost1AjXCG0JjNOvfc+Xk06jEEj7kEz92uCqCgdmTj7VxhQvR52jqEuKTSGOrN7MOSXApxKzkO+6ivrxXOIfXI23m1hQyqJzqrVR2P+2BjgorBeiIdf8cdPZtTOvwMTn7oe1XUkgArEbA9tlyB2NTQQED6DMYREg3OfG0VcUZwFNkVrBSTnHA73eg5L7qkKW3YtjN/wI+Qza/FCa7IpmMITs16Hd+ODrbfhq8w9dO5vzu3iDhx95hZs3rQPp0n8iVeWITUdx8hOrRAOyZn4Hvmwi1ncr1dg+LcPY2/OIcjnU/DHsBpIyySnikoYHYmbcQhJR8SJlB718sZrWomEyQHOtyn0mU1i/WIS5Nyn0fesDiStvREC2288LfBXEH63CT+4F5qTwNeJCEpAzN5Hx3inqT7AJlaAOKF6oW2JZrcCe1NpYCB8IQIqhWkrvs7rye+B/FYslF99FJp2krH5cLqaph4aA41ML1p80qSw2kgl7K/JaUpYLYnTY4kHncst9MmYFYz/PajmUtSi3mRkYrMQfJTfHS+Mwr6xiyBnUTzZ7+CVOuQD9TXeKMhFvXEfU70SywTUZR2tF+NYaEM0jknG2HV5lH+13mXtou0l9PR8zZdH+R9JpvxqadMcwuHUVmilp1D6SMRfdjxkb8D6SH7UtFDLOZPKX5xL4dNF/jWQKdoGTa6nwUMGEqEKbL2YWc6HRRQItSXo8TLZlUnxJuLojC6Yd9ez2EjlRl5kGIb5V1HarH8PnzW1U5zvuLXv/BAFfx13BlHwt/aWtvWTIVP/5kJ3v58wz3sq4GLiOVpc9+eD3zW8O6Ff3rfwRyyuCDrq8A/i4w9SKCvD8NjtRupkXcKB/ko1EGrOA86eQ8/F1CVdTKZO+XvIBzco6woXdhWilfqoylWRMn0sHvpMi6EdmiE17Ql0H/cNUNngnLfRRqN+Uxv+DPkCb73xE/6ymQofXHPPNDq/a7QSDKqK1eioWyOBIJ7OFnscYobomgh8/lsS7EYdjr8/Hv/dEIEWHi/WcD6QRnHScWfMJNQoLfF+Z6+Zob8v4M6WDdWH88Qa1lynAA9G7BJavQlHt2/HnqHt0Em8s1icqwh4G+p16oibEzZjfaIDWnM8sGkL1iVTHkJ02PH2NOy+vgdubyZmOUWuDiMxif7qUzDv5a9IAVCZCKHQ+DY8fPNPeC+BhEKoGdiwDI9t1iBSS8cIjVgamUJiUQio9W9jIB2L9lUBYjZNxNNyD1a64tm0iuKpjil9aEBS3DvHSHTHtfgPMGc3dmjJdt0RfLJwLcVR/CWuESq5iUeaojzC92FotWoYuA6o5yoDmwXdbh8PzNupxC9my+eNfQ0YfBs6mYxuzeefAH4r1jRSUFJj9O1ox6+zd+OYLgQa/Va8Mf4btB7cCdGymFl0YSfd3gi9ejTA5okfYoferOT/y3fWu/MflP9VdHXaY8P4VdhO8Sj5HP+/wnxSPEgUAyI6OWkJBs420XVDrVZIGD6LCId07zanUKTLsWF0I6BfDOrJDdGnmxFv9FmIY1qqR1S3d4ynsOEzkez5JgO1/Ade/zMGv72H4gyhAdcerNiqRX0tHZMa4fbLjqeE+kj1odvtE6icF2BREpWzUYOELV8CtciPQkh3a4dhWIrPt1PbU8mAYwuXYjr6YkBfHTKfrkSDbBL4NPgXA6l68VHAddFoSm0EnckwDPOvUmyX829gef9WHOu4DpVrkagriRLemysocqfUH0HEEwzK+3y9J6bLFMloQv6alRj72zm0f6gP2kgOj5lpB2y2yrjr4VupI9bi6/89CNN13SG17OV8GCzsBWwWMy2VrkHyykGIm/QT6g+bhEWLn8TiJjcj47OnMGaDFboQisceiUfvbgL8XhspXz2Fhrf1gXSD50NrQgjswvBqnSC16oW6K8+hbat4HFv5CKTmlFb3d5Fm0CCmGXX42WG46ff/oUrz21Hv1f04RQLE3TG7HmyL7E02zsK0yAhERb6LQS3pu/pgm8ZD9IofQbk0KB7H15j81OcY1q2DIt7cCHHQqB2Jg6/w6GsJaGP4CXj5RqReV4t8VgudFv0HCTseQr1zOUDfgVh4y88YdF0MdezPI/SF0eic+S32J1I81hiMWPgk8p4kn4eSCElojrV3HsPhAhIYjsaY+NZEEqPj6VgopG298O2Y4/h89WG6At3eIEjIZ0dhxN5luPbJVhS2MaS75mPUmi8xPN7fj2PYkfUzsD+LDuRZETXyYYzCGnQKiyUR9CIqjXkG2H3BORtqE4+00SBBfBY4LDiNHOSLGV7PNCs1oXz3w4+v78eqAVocOUJhM8Ta2jw4er2Bo68fVOPvjtE15uHkvE4UrQV5pJ2UcCq2rCTg5xzST5RicX6Dyw7lNAV3XPkXUW/y70joNRr1wxuRXYMxZ8hc/DQ+psidBjuFjRy/FglD5pN95Lfw25HZbQrl/wyyrXEYE5T/BXac+3oXus9tgnVhQkwW5tNxLhc9n5iHNptmob6IZ7gZ78xpAMz+Fck5eRiQ/zsWZvalc5qRH2uh9vgGSPiA/HP2b2c+Bk+gfDSl41Svlk5EQtZ4xHn9IIaz/IfvmItRiwZTfmtCuu5PdBj7F9aK52jzVH9cVjzk6OLqo62Ayvl1Kmetc2kGXQOvmQag68lsKilKwdIFC395AXvuIt+ExqL+JJvyvWNOLhpMdxTaVjkOUr/fsHDZo2hAA0vv0mIYhvnn+Rd+aU2CQbMTf+Xf4nyq3AfjeSNq1ZJhcRQfTmA9kYe42Kq4kJKA83VuUfd6o8RXm+LJKyGemMqUptMVGkkDy/Ed+OuaW6D524H6dU2wyBI0Fyke0y2Fz9X4UBhW3REMQf/SmobEai5W3Xs/HvmxNT77aSru0hT9RTJdWFX89fU0jJ6/DZ8cpc5N6c9JdKS2webzL6LduicR8sBeoObd+ObIWNySTwr97Oe4q/Fb+ByheH33OjzV2ALZXA1/rf0fRr+9B5tS8nBBxHP6L9z09Hv4bkQ8VYwEErwvYFFMJZFAIbY8oNZDSN38MKJJrH7z0iC0+eAUoNegQ5dHMKH+dvR/fiuGfXwIC/vqkTrrQcT+72+ghs/YKzWNwlCH6Qoz5Q/c9OpHl7GG2DVj7Jzl9kY81W4EQk3YMdiITtgIeR7VJ7HUQkzVuW8Xq+HsrhvqwmbysXi4x07xK7PfdI6D9lc+jeXdeuObEfvxdqdsOj+EhhvqecrtcmEMnef3l8R8Zrf92ixQ7ZHFw1XCVp/zxJpTyQaHEEPiPbgiF668KK+Dc9kudvieS6KJ4hRv1vC0U8zIaxxOb4i6pcRNH/2Gk6zq8WL8Bl87isalfHcNUihL/n3mxDssBZY98x+M/10+JZtcAyyPfLr9pnymTdaTjwPl07Pu+Njmc8wbz7KgcOKd2448d70vk3hK8IdXOQs/ijsBvnXHhW/ZeQ0oC48xDMP8m/wLglcgxGyAqVDxajC3RcWEUxDCWIZW4zFr6IsSX3DxeCJEr06cUhp7vMIGSbCCV08d1PdzID3wBcIfexUXX7gB1hz/3ZzWaHbeLhYPq7ghw6jDslFHpxMdnTieT52ROKT8rK9quOig1H7Qbzzunw/2FWUeuAWCeG9uCH1xdZwUmYMOillV0blSlr061iL4hLmcny4OAtFZ7xgTToJ3LeQ5bYoVVt4IX2zDvdUWo/0vX2BELPly6yuQ7voR839YjRGR3OkzDMMwzL/JvyR4GTdBCV4SjqEOvP9QHTz45b1YcWghHqmWzyKqjBGCV/yAQm+shvxl51IIXiHKK+P4knvQYNK39E0shjyPUWtOYm6XbIpHCcIwDMMwzL8EC95/m6CXNAjRGwpYC5QZUha7VwbllqzfW90lU3S22jlDzTAMwzDMv4u4Yc1UCGRYc7JJQLHYvZKIX4+7FLErsOfnUPkIkeva1AMMwzAMw/yrlI3gLaO3HPy/hH3HMAzDMAxzRbl8wSvew2UyATbXk8lM0AifCd9dyXeZMQzDMAzD/D/n8gWveIx/wAAgNZVFb2kQvhI+E74r/g38DMMwDMMwzGVw+Q+tCWi//OKLwGefAfn5PGNZEmIZg5jZJbErCb+dPaseYBiGYRiGYcqaoAVvNm3VAglegdksAvOa1GARgwIxs5uXp+5gGIZhGIZhrgRBC95cmw1VqlRxzkYWFKhHGYZhGIZhGKZ8E9TiUck1GykQs7u8ZIFhGIZhGIapIJQoeIXYFZuOBK9j4EBg3TogPJxFL8MwDMMwDFMhKHFJgyzLyrIGi9UKe3IywsSvqi1bBvTpo/zKGq/ZZRiGYRiGYcozJQpegRC8drsdFhK3clISQmbPhmbVKvUowzAMwzAMw5RfghK8YpZXbEL02sQmSbCJNzLQ5qD9vLiBYRiGYRiGKa8EJXgFLtHrWuLg+swwDMMwDMMw5ZmgBa8Ll8hlscswDMMwDMNUBEoteBmGYRiGYRimIhHUe3gZhmEYhmEYpqLCgpdhGIZhGIa5qmHByzAMwzAMw1zVsOBlGIZhGIZhrmpY8DIMwzAMwzBXNSx4GYZhGIZhmKsaFrwMwzAMwzDMVQ0LXoZhGIZhGOaqhn9pjWEYhmEYhrmqCVrwCoHr2hwOh/szwzAMwzAMw5RnghK8LnFrt9tht9khOUj02h3iAItehmEYhmEYplwTlOAVM7pC7DqsdqTlncH0M7vwbnaGInghqYEYhmEYhmEYphxSouAVM7hC8FotVqTnnkHLpGl4N+4RdK3SBEaNXoRwBmQYhmEYhmGYckhQgtdms8FhsWHE8S/QvUpD9KnWAhaHTQ3BMAzDMAzDMOWXEl9L5lq/K9bsimUMYmaXxS7DMAzDMAxTUQjqPbzKg2nq5lzGwDAMwzAMwzAVgxKXNCjrd61W2PMsqJw6D2dbTfQ7w6uTtNBI/ARbaXDQAMIm29VvDMMwDMMwzJWgTASvSavHnKMJ2HAuEQV0TOJXNxSLTP8ZNTr0qtIYY+p3Qr7dqh5hGIZhGIZhyprLFrxiZnfB8Z2Yc/oHtNZHQCvxrxUHg1124GfrBYypcSNG1O3AM70MwzAMwzBXiMtWp2IZg5jZZbFbOoSvhM+E73gpCMMwDMMwzJWjTBSqWMbAYrf0CJ8J3zEMwzAMwzBXjjJRqbxm99Jh3zEMwzAMw1xZeFqWYRiGYRiGuaphwcswDMMwDMNc1bDgZRiGYRiGYa5qyq3gzbNlqZ+KskH968Z+Xv1QSHqgd9v6hD3jsOGw+hm4iFyHRf3snyJpM/8IWr0BBoOfTa9VQ1wOGugoLr2OLgeNDnqDHuLjP07QaXvY+6/xT9igJX9QGpdQxJJOT/VDV/5WyGuddpVFrb0UlOvocq+ZfzkPJXHpZX+59U20SVfGL2VSbp4oZVhcW1Me2hiGKVvKZW0WYrdXowlYf/1YP9v9+IzCuIWn5RhQ4wG87xPuYPPOymEvgWrPKBL2u1b98ZAtn8IJsXsDXm31pFc83ptP2uUApxCkhstP665xN8Lq5tNguhtpveaSO4d/ouMTedw1uimq6trQJv66tpaoOm4fQk2XY4Fo2NOxolUIus07jpDMd9FTdzdWpvzDoleI3ZRVQaTtYe/sdOqQhEi+tE760vG14Uo4StSvXZisC8HkzaXLn6jXx2f/F1VbrcTxSxI+VwghMjY/R/X2eey6jOvmUgWdch0ND0HV4bsuXTyVUR6uFJde9pdT30w4ueBh8klN2iYhoYz9Uibl5onWAPP2F8nWHlhyxF9b809c3wzzz1Mua7IMh/hlBvWbL9Vxlyo8T9r+BGKewvqoOFRxHiwkpLWPQKWw2gcx1zesPg4vth6AqXYTLOI30Ir/GQ4KUX7QGh3YOKgJNVwP450T3qJXa3Lg9wVP4c4WXdEkvida1COxOLqwwVQ6hiWD6dwbcdsT3yG/VKLX2Tk8o7uezn/pH+n4dKZKwMQ3kSUn4qztIM46DiMr6Um0nd8DT23UX6bg08BYpxXyDGb1+7+ExoAwhMAQ9FVJ5aDffUmd9OXj9Fl145VsQrTkjVYI0alfS4HGWBmoYyh/DZxO1DEzLiFLCuVCzF9mHq40l172l1LftCQYt2HhuEMYu/ksLsqvo5PFhvL7M0IkZrVJmN3rB7yVtB0jGlpho+6WYf4/UC4FrydnT61Bl40vq9sa7C4Qe0NQsxpQS3c35tas7ifcN0hW9lZHp9hGgM1GWwhQrx5ixe4L33iH09dGpxoGfCsdwKQdk9VjrrSysfs3V7wr8B+DFr3F7n8bMSP4x/tY8EkdYNDDuCfK4R4jiE7xrxVPofPkZJyXcvzO/l4+1DnE1EF8zD/Y8dltsNqssFgssOTnIT/2UTw9sRUWrtsGSaOqPWVZgGtW22f2wusYbT4KsYEjG9a4x7BN/hyD46ywa3xmyJWtUGQ4Z9ddW0mzsp5hgx0guGbRnZvTXAdslmgMOWDDzokx9E1PIrkVwsyUvjjue7vZc5mE8pk21W5nfKWwze0/SkNbVGx5+cPTtz5+L1aYK/aLcGIQ4xOw2PLzyIdeD61PWZSJbV5hPcu7eB8Wpq2WkSfu/Do3z9k07/ql+luED60K1A+BkcpAo9hEWxBlarda0PFtG7Lf7giLlSRZKfJebB4C+sWH4uqmekynzF4X2uPpg8D2laLsfe0rrr6RpSX7h9LWGmHEdWgYB8h2Uo8iPY/AXjPyaj5d5aXE621QkTSLlJsI5Zknj7SU/eSDgOVBedSgEcbKW6iNI2Huen++Vz0iW+2uNiaa2lynIg6UJsNUFHyahnKIzgxj9Qh1M8P1o2TKL/F6CNhqvxxCaINrYK5bHSG1X8WI3w7hLB2qUrk1PtPp8JNEovfiOWUfIm7FkutEfHsxQhGys9HuhAa9NGZUrlmf4jDAdo1RTUuCFBqB7TWq0v4w9LbYy8Usr1iu8O1Hn+Cb/FC8PrYHTNQQympjaaSGKeXgQdL7J9Fp2j6kpGxH4p8/4OL89kqDKRpgvUZC9Mh3kCXvx3ez2tD5RWevhYj0bHzFVuT2llDZ1IgXhqNO2K2Eip7v7FjcAcoWjQEhme/jdl0lVNXF0/YA3stUZ0xJvJrdx1zLIfYixGOGMlMTBn3ycnSR7sTyjBD8OaOvGo8I3wYNYjqgaqulOEp51JlCsG+sKy4R5mG8l2Hy09lroDcfw3tt6qphm9M2FfvMhsKO3y86mMz78KzOdV4lPJsQCpNedO5peLuFCf0X7sGK6ydg5i3R+LirHqM2hCBku8ftZtGJuZZJpJlhTluJvrrp+N/TwoYQjFtvREiwtqn+u1PXkMI0QKXuq3G2ykX3YEdnDvXwRyPnUhMzHS3id5EPIdbUEz0h4RCS8DKFiaStPio9+QMq11PX8gcsPxGR6uPbhG3xqCINxDvnw1BHTUNfFrYFrFvFl69W1JNxIj90TGqMZ/dURnwtZ5TO/L5Ex9TjdO6ABcdgokqknOe2mf62eR+nzJTeV+PRfMQptP39MTSLX44/j31AZRJcmQoxs2OIDmFDdsBgNAWd92LzUNw154kQep5LITzrJl1r5m3i2HR8umygGk88pu6NwA9jQ+izsK8pnttupoGWGp+b4sve248+12lx9a3I9ReJ55TrTz2sINq3rRglTcDsTkcxPUaPznOO47uJlJ66/MBrRt5sglHxwZuYppSXiNdZ5mbFYf6v+VAqO3e5UZyBrjUhSHcNr4mqU97Eq0qe1Pxmmqm9F+a66lsDREjxiNCo9U20ySnebcPk7SfwbjsdOryVprT5Aa9vhqlAFOmeyxtVq/XyWEPbC+0MtLPgGDafyEFHfagS5qyVZGxVE2x5VjgsFtjtbZCflYiDygytrAi50zoDsk+79gGxNUV8T2Bzz+EYWZ3i0ZHgkymszUZxWMVp3tjstL98iF1I1NCe+BTLl8qo1P8B9G9ug80hGl+xzKAN6sV2Qb+dNdE2Lga7n26D2NgOCJfuwduJ1DlQ43Z8zkOoWqUbmlO4xrVvRNjwHdQZevckkt4IW9JGvHbn3WjXpDuaN+yJxlVuwJ1zxJouVbDaHThyazwc7z+NXnFd0Ti6E67tMQc/FxhI9Bba04DObUFb87huaHfLcLy64Tx1HJcgerXUSbpmgExmmFJW4JW39mN4ny6QxcSKcSeebDgZLTfm4aKchqyNjTCu4RTsMlJ43RHMaTgUTTaIY4eRlToF3efPxZJEcUtSjZ/QUj0Rywp0divqP/E1ztqO0JaEXHkWhmYmY+j04YihQZDmi5Hov24uDlBcF+VMrH8yCeNmboPGZ5ZI0mmRNvUxjGv5IQ0uknBB3oiFvdfhrTeTadAS6PKjDsaYgeXXP4jfZ+6j844gK2ke9vXsjuUpBrJXLCdoDr29Ph7/aRbGf5uGe7ZaMa+vFTb43G5Wl0mITkujMyICH+K3+usozjzMvt2BpKBsEyI7HcsemQ79nC0U9k9kTcjBCx9HKHcPRLzHZt6J/gcWkD+SkS0vxaj5I9FzViZCjWlY/N/ncVOClfaLZShzsafnKGymsvT2lKgvO/Bkz9UYvfEEhT2BA3V+w0vnjJS6ROUSqPycdfrozCkYZ3ye0s+gcwci99mDJABosEqdfJnYptStl3Gdu27FUd0ag20kHDMD+ZDqnX7jFPSfPwRfKmmvQ9SeT2BRVBvVO+1mDOm5HzOSTtB5ScjZ9hB2jFuJbXTtGb5+Ev0TlyJRqV95+LLlULSdSoPYO2bh9wU1sbf5cvxxZAgaWCUq3eDKVEuFpQtrCYSJOpQSXN7FYLa4PAS85nx9SPguhfCom1oSWQhdjE9yXqY0MnBgfjfM6ixhLdXpHKr/aydWxYJpS5FO9nm2HEJQBip70V5oA16nYpBeTH0ziOtvEBLniOsvmfI1GAt69saKFKNHe2GH1dIV8+QZGJ9wEXfSNbhrfBTsmqbk48Lcey2x0IVRPhdhfx1RXhTv5geozCdi6WE9iV3PNJ3X/Hc9b8PCJD2qi46H4pQCXmsZMIryjWiJ8Dd+QT2qU9lyOvktGeMGLkUGtWuGQPVNo6UBiGfbUIDpPa2QQ51LlgJf3yLNQG0Yw5Q/Kl5tLTiEyds+wHsme6EolTQweS6+le0k2KhZ9WwZ5UoIr3QAI7aNwuoL6j4FsSZ4CPbUADaU34VXXojZ3T8++hCfnD6LYWPuRw2rLaAQF0IwEMeN4Yiqp0fdUJ+uiToD096ZqNtyDtYkH0eOXfZypRutAbXSZ2H4EztxnATu6Uo1UOvEAkxbeIg686JVy0Ed3EHbcXx5xxgsT9Z5Cc0S0VKn8VZXEu6NnbMMEZ0R3nA2ImYdwus9LLBSVdas24HF3WdibA8HDXpogNJjCBZ2/wyb1klUJWIwUrZhBjXkNpGbIynYjHAUtwRVVpZP2ChtEgdNOiKBxOf07gW0j/b3m4us9MdQj0S/jMNI+ZU685AiXbwSR/0pu5D1dkdYKayEdBxeH4pwU+CEZR116km78fXPI/DMuHjKixX2+KGY9sQJfLU+BZL7Z7xl6nIpn/TJYaV8lVh/HSjAdbi9VxQKCigfBUHaRgJbOrwHa/a1wh3dxbm5KOj5MOZ1l5Avk9+lZCSsO4Yed7dFPWsucqwdMHTBLdj75R6kCbFoCMfMqUvoM40b4x7DPnkOuviuc6T6olm/C4txP7r1KEBeXj7qjn8MY3MMysp5uyVQ+ZFYIvGWsC4NPQa40u+Ix+c1wNF8OoYU7Cgz2x5Fd7KtII/i6fQSDYTeREf6XCeAD7UkJLZv+AoY3wEdbXnItkRi0KQeyMgUsdths3TBYhKQg+JooE5nphxKBsJJUNFRWaKR/fZHMH+TKAsrOrxtxfEpMbBYLbCJW8xieQ+1c+K6v6QyJTRB5F1L/g2YB/KLNuA1pyVRqUYSFBRfzuOYMDEKeZYC1IurT/ueR+9eVBcozw2imwBGvU+HVVzZk2fIRwGv02Lqm4XaP80Rqu8/34K7XPW9x0DM7/UX1q4/Qt2NpxUOuu5s7mvQUvxDIIQzn2PHRyK/IB+WyEh0JdmvE8sIkjzTzEFOgwexxbYNYnnVuXAaqFB9FfXZ/7W2S6nPGnsWsiaOwuDYfDom/Nac6pTwm4PEeeD6JvCsR4VtSXHXN6Up2gY1JMOUd4q2guUM77W5LyN+xxp8EVUDjR12JORlK2GqGmsg30HCxIX9HEJrNEEzMRvsRkZuLlCvZjzu3jdUjc+11jcETSMa4RrqUMs/GhKK+/DV8ouo2WY4bu/sEjpitqE9XrPtw7GUbVjX+Qx+O5KKznN/xKGULdQ5v4uBsVYKY0XdMe/i7MUEZM29EXtPuudbVCRotRfx8aKvgUZ/odn987D5t234/chGJJ77EZ+PiYLVVtioV7Zko/ljb2J36g6cfDEKP2TXx6G/TlM0ooHtgGny9/iT7ElM2Y60lI+w8kYSXdFHkJEmuZenBIX9PDBxK8RDa+fkIzgwVazdvgfjx8ZSJ0/NN8WVcuQ4kDwdjaVGqKJrggjpdgzfbMJvBw+TNjdj96hIVJJILEvRCH/rNO6P1CiCoTh0ZjpvaBOMb78JO8fVRy6lRSMOmFJXoZ/UjNKJo3RexleV81FNPccLGhSYNj9HQl3cCoyl9N9H5v3Z0BSXsIbKICUN25tsx0ApDpVJ4Fcmm3u9acaOxAwqocvpYhxwUOevEKxt5FyJ7NmDpohqRCLLQeLBFovIZrmwy8Kao0jeBjRrFAeHMsIiGS5EGV1/DnsUHvt+LWblTUULUS6aZghvtwonzHqvXCjldzgF6B2NKKrPQp447PUR192iCDCNwRSg/EQsmV7pyyQEoxrGkIoreqxsbCNoECIGQ/aAPhRC4DDSfzejT1wD2IQQovRt0VHoRVbLQqyZM7GyXSNEaJqiihSFRzeHo4l4opbitvZ6BVkbJ2FuzzpKnivT8clbTPD/QpLSlimJbVs0BpeYd8qDFDgPouSLu+bERETpoLJR8yHqmPhOzbz63d8FIywIVPYUvpjrVKJCDVTfzhlIWKYe8ajvdAKJWtLzymz05VOYTzKavhHKNe+TJvVpor12BRX5DVyfxdpcFbJVXXbr4TeJ2rIA9c2NRz1yU9z17ZEmw1QAyn991ZnxQ7UwmOtWU7ZGtSohJo+EqcECKTPDKVjDrsfZJq2U4Aqeb2O4kIH/2Czo6PGqs7O33qmuCd6LT085RbNoGLKp0SvviFt4p5e/izcSE9F77ANoZnXOLjgRoteiPNjlGqHbrULkWpRZSXcjqMxc0n6rb+MmkKhSHMCRb82Is/4Hj0+5Addo82nUL+IQcXueQ53A+fsx7tVbEGrJhyG8KkVORSYUgmhg9dn4ZekLePDaG6gDjoVZ6oFHdldGDZNetO+lR8xqke0FeTmoPXY1vhyxBD1vXqF00iLd2Pi6QNyTym3gc8qbHH4hgfwrNjwZD/vBJXh5fnsspI7sgpyKnMVtcDojwLuaVSRjCP6cdTv671qEA4tvQ66od4RWq8G2mdOw48klyJFTcF7+ABNIfJ0p4k4anGiTseSVtei7cCPZkkppP4vu54wo9m3PohOMjUbnQ52xSk7GeZEXWyIuyj8ga3FHWETPGwhlhqlwdk0jZuGcH30ohW0Up0z2tMNBZCTplBkuic5N/yMEWkmINxIKXYA/DidTuYomhQSDEAYWMftMeSFh+ci+JDUPCzF+7zyMmH4EOg/xIMyObRQLrE9Duph9Ex2tljr3zQbIJOK0SW8HKD+R3wZK+geTUsgeIdI0SBNiRld4rOxsUxtN5SEfI0z6QD4UsTdCVPM8rEs+6ly3TteFNjUdG5S8URl9vRLj9j6E9XIS1aEM7B5fE4cynZVIEmKnx0tUjzOcA7z5nbCg52Rs1egDlKegNPUtmLwLARk4D6LkA15zE2N82goi6LoZLMKCQGVPdtLn7QGuU7F8LVB9q0J1wx4Tr9T39MNap24XyyPI2CJ58oNDqHQK7MwbxR3MMwvKNe+TJsUgnoEofEiwpPpcDCXUt8CUdH0zTMVBuazKO1Ya7TssYm0tba4Gx1ELkn4RRqSdVL5WqdzTY61va+fDbDiJ1ft3ASYjia18JJw6qj7I5gr7BCbXDKM92Tj4dyLyJa8nEsoh1KHpD+PLVcmo03gk7h5gpAZYPRQ0FIfr4THlSQaCGnPn2lix7k40cJGo08KGbNOnWPLqj/jbboJRrIOl84rOcDhvZYqm2NmhOZF0OmTOGY3OQz6EZsga6gTTcfH0O5hz8wWcU9dRXw62vHy0n78co76fjTGzM2EmcePo0xFDN4/H7E3UkVIDr09eie5UpsO/EvmToMf3SKIRko58sGXai9ha0yzu1vtFNphh2jwFLcbfhE2HHkekmN1R/CbOJjRG4Pc0pFKsuiOL8PR0A2oEeLWbpDPg6+QM+kTnbliMYRtkhBTTCUo2G+SGt6Fv6wV4bdYRyouOOr2dmER5afxaMgkPT6Nt9B+ZI57Mpo5Rjq6PtliOrZuozhuNOLpuE7aSjYFSC8o2MaPbqB0G3LQfo+btpLoQAmPyXqzeLMEg0bUpx6FTn3rY9MleHNOHIFS/E4tHfIu2/TshXrsNI2nQ+tQm8pPWWbfiOh9Do6aNyFiP7tJO8fRuj+H4BLNnZ8BkNsOwcSdmI0u95Rqo/Kj+OWLRqW8UNo56FzuV9NOx44vDqGygY9QSdCwj24ZiBTaTX41kW2jme+im64mlyXRNZB7060M7CZ/OvfoDM+dheYoJYVR/dm74EhG1XApG+DkRqUc0lLckLJzyFeo0EMLKgKOvd0TVJitxTKgssiymURRwQyzi6LOdBn3imtVJal30oeQyFW9D2IFRQeTdTmUfMA/kF3tx15xbqBHUNpS2bpZMcWWvxhroOi2mvhnsVjji2+Gu1t9izeZ0Z33ftAojN1RHv97x5J7AMk8I6aioFsBbO7GD/BuqT8O21YcK7QmA85r3TjPEvA9P60IwfqMetQt+o1AkxKk++7/W2iOajga2TOC/vinzEwEp7vqmNEXboIZkmPJOgO6+IkANqO56GFJHoov6RgYvlFePrcTd1c3oLW5v6WpCc2oS7i4SVrx2bA5uO6VHb6+7+5feDF8pJOrk8j5bjkl7zqLJo7fjVrm0I2whdtOx6rYbUDWyK8JH/4C28bUQtf1pNI7tBOc7dUnyOurjvw80w8mD9ZD+0Wj0aNkFzeP9PLRWDCLExYtZQJOWOLb0LjSNbY9KrYdhzA9hqEJ9UGmxZVODn+05s2mHxdoBQ2Y1wY5xTTDyK6rKtg6YnjQNv/U0o5LUCOENp0I/6xAW9i1AQdxgPD3Sjpnd4xFKHfK2e1Zi/Kl38HMiRUWireDEfpgteSQmLFQjrJDkRCya8hnQYDN6SDGopDydLJ58noRtJDi7jR2PjhveQgvJiLBHTJi2OAan1x5GCvUehd4R6/viMGRyD+oAxyBc0iJ8Ux9smvg3Pv8plToaHz86RNq5sFAnYiuIxGM/vYfm49vQeQ0pP4OxcOQmJD4TB6vdptj7V4FYi9cF3Uaex8yuelz/GonjxoPx1EgdZveMR5hkxhhTb4zHBeTTQNFBnaozfiWxUthGYfMj8eh38zFi7mAKW5t8exw3PXEOp/NEvAWoN/5zfNliBPkjjtIdjHkj52PjuHrIKeiCxUmL8YdSJuKW980Y2fgjzOpto3yo0SvYYS3ogNeTJsI6rpszjRkGPNHtInLyLbA3DFR+ZKed0h+3Gl+OXIr+Svp9kHl9P5w/nk+DsbKzbXrS8/jFXbdG4eaNWzE4rgEeXTLJvw9J8Bb0eAUHZukwrmEUpV0HC4wDcMtJqmFivWvfgZjVlgYRDSMpT8/C9OpYNMv8Hgd/tyL62X34svMo53IDKRqhXX/HrA8Go57FisjeXajuvYrm0iTs0EtUOkGWKV3/zuuoADZH1+DyTuIvYB7ILzbFL36uudt94nHY4Gg4KGDdtFMdAvKUwZuCLY/+KfzuKDgPnBDz5t7Iou4FKHsrCffOAa9TWbHdX33LstKgwiKuv2VoPEZcf3EI77kUIzaux6Oxwndq4m7sVAL7kUvGynQwcvwjGIHPyJ5Isud5GO/rg/Pp+U7bffJV9Jp3pSmu+XvxB/lyfi8bjoqbGdT+Kfn1W58jUUD9nG876fZbMfUt8aBos1x2qCeStc42prjrW6RZxBkMU26RLBZLsQM0B12IVis1bXkWVE6dh7OtJtJF4b5cYdDo0O3X+aihvQQVEwitFjlnUqGzVsZ2vRl9qhnpgg1gplYPbf4B5J2v7TXS3K7Rol+9ymS3xwNdZKu24HefsDpsr1wFfYzUKLivXWoAdBdw/lQOTI5K2B4Rjt5GcXtPPVyGnKYOecu1I7186h8JOtN5rB5wH17ZdwOmpbyOntoCv7/PobyeZnRTDFgEDF17EK91t6idj0vw3ouJx69BXS+Bb8Xx1Hb4zPYC2lvIZ0Yzzq19E8/N240fjuTAopVg/etvNH7hI3w+Joai2olndE9gMfo6z7FL0G5+EVX7fQ0MexNn53Wkhvc7vHnvK1j1B6Vv1OHaNv3RJ/I7jJu6h+xK8rCrZESetIrI9T7B9Yo12a7GRWUsZqFdck0Wt4bVRlmJQz0gi2UBYvZMOU/4Ree8jezQKIJeFmtCdP5m0KhzFms3vdIRM02Uf40Mq/Cdss8DqqOGwoQpF+J2Z9G8OG0XabuWn4hbmlp3XsS5znM87KWArny58uqVT1GphX9EnFTXveMngrVNwdMecT2Qd2T//i20lfApE69jvniFFTOP9Ekt28Dl59zndZwuVolEjas8yt42EVRNuwQfuuqoQNhFoynlbpVdLUdnHRNrSMlmisdVPl42i+OucnPbIYSi+Bp8mSpxumwrRd4D54Hw9YvHNeeLVxl51k0axBi0QmiqcSp5KPzuTD/A9UUELHsv2/xcp17Hvesbxep1/bnLuwjOcP7PIz+JbLrS9MmXM33P8vNJ0/OadpUb4VU3PMrNN5y334qpb0XaBu82RhAoTYapKJRPwSugzkxZ+yRGpoHErgtJA43r9rwLB53n8XCVmyJhqZGjC7eomBWilxoeaiz8Hy8bgha81FCav5mL2J6fIGLcm/h56g3I87sG14mrcSraSHs2er6oYk79JmaUxdsWXG2coLAzczXMHue4OlpXY0i+1uk90xK3xyTq46hhDdh5MAzDMAzDlC3+dU95QAhdElIlil2BTEJKhPXc/IldQZGwgcQsCV3lnbxXTuyWBq0mB5/Mew1/5zfBxBG3BpxBcSF+nUd5yKyIqHTApjzE5m8rFLsCWTwk5hOmMF3nA3Je5yhPrtM+V6Lka++0bLCJV/fQZxa7DMMwDMP8U5Rfwct4YbcacMeHJ3HWtgR3Vy9Q3rrDMAzDMAzDlAwL3gqEc9bWymKXYRiGYRimFJSJ4BVL/ZlLg33HMAzDMAxzZSkTwWvU6GD3eHcjExzCZ8J3DMMwDMMwzJXjsgWvQ5bRq0pj/Gy9wKK3FAhfCZ8J3wkfMgzDMAzDMFeGy34tmcCk1WPO0QRsOJeIAjrm+ep9pihiGYOY2RVid0z9Tsi3F/8TtwzDMAzDMMylUyaCV6CTtMr7VZngETO7Npnfz8UwDMMwDHMlCVrwOvKtiEiei7PXPUGCl2ckGYZhGIZhmIpBUGt4ld/VV7cCFrsMwzAMwzBMBaJEwSvErtg0Wg0eCovE1nOHlJ8TZhiGYRiGYZiKQIlLGmRZdi5rsFiRnnsGLZOm4d24R9C1ShMYNXoRwhmQYRiGYRiGYcohJQpegRC8drsdDqsdaXlnMP3MLrybnSHUMMWgBmIYhmEYhmGYckhQglfM8opNiF67zQ7JIcNhdyiCV+xnGIZhGIZhmPJKUIJX4BK9YhMzvq7PDMMwDMMwDFOeCVrwunCJXBa7DMMwDMMwTEWg1IKXYRiGYRiGYSoSQb2Hl2EYhmEYhmEqKix4GYZhGIZhmKsaFrwMwzAMwzDMVQ0LXoZhGIZhGOaqhgUvwzAMwzAMc1XDgpdhGIZhGIa5qmHByzAMwzAMw1zVsOBlGIZhGIZhrmr4l9YYhmEYhmGYq5qgBa8QuK7N4XC4PzMMwzAMwzBMeSYowesSt3a7HXabHZKDRK/dIQ6w6GUYhmEYhmHKNUEJXjGjK8Suw2pHWt4ZTD+zC+9mZyiCF5IaiGEYhmEYhmHKISUKXjGDKwSv1WJFeu4ZtEyahnfjHkHXKk1g1OhFCGdAhmEYhmEYhimHBCV4bTYbHBYbRhz/At2rNESfai1gcdjUEAzDMAzDMAxTfinxtWSu9btiza5YxiBmdlnsMgzDMAzDMBWFoN7DqzyYpm7OZQwMwzAMwzAMUzEocUmDsn7XaoU9z4LKqfNwttVEvzO8OkkLjcRPsJUGBw0gbLJd/cYwDMMwDMNcCcpE8Jq0esw5moAN5xJRQMckfnVDscj0n1GjQ68qjTGmfifk263qEYZhGIZhGKasuWzBK2Z2FxzfiTmnf0BrfQS0Ev9acTDYZQd+tl7AmBo3YkTdDjzTyzAMwzAMc4W4bHUqljGImV0Wu6VD+Er4TPiOl4IwDMMwDMNcOcpEoYplDCx2S4/wmfAdwzAMwzAMc+UoE5XKa3YvHfYdwzAMwzDMlYWnZRmGYRiGYZirGha8DMMwDMMwzFUNC16GYRiGYRjmqqbcCt48W5b6qSgb1L9u7OfVD4WkB3q3rU/YMw4bDqufgYvIdVjUz/4pkjbDXCaSTg+DQQ9diVejFnqDAXotfdTo6HNJ52igE+FLjpgpCa0oI0OQ5VR6tHqKWynYf47LS1Oti8U5I6g6+k/icf1cFpdxXSn1SEeWMAzzT1Mue0Ihdns1moD114/1s92PzyiMW3hajgE1HsD7PuEONu+sHPYSqPaMImG/a9UfD9nyKZwQuzfg1VZPesXjvfmkXQ5QOi3Rqfh59k2jCClxXN3+4Q7VjaRROporJRbKnH/QXklnxJ/zH0BV3QN4N91YTHqis96FyboQTN5mRkjGKvTU3Y2VKYFsFJ1yOla0CkG32eksei8HrQHm7S9TGTWmrS+WHCnbeiGu4V3DQ1B1+K5/7Bq9vDRFXdyOMVQXey04BpM/Zwixm1JSHf0n8bh+Nl+O6L2M60qI3c3PUR16HrtY9DLMP0657AVlOMQvM6jffKmOu1ThedL2JxDzFNZHxaGK82AhIa19BCqF1T6Iub5h9XF4sfUATLWbYBG/gVb8z3BQiPKD1ujAxkFNqAF9GO+coE7FQ/RqTQ78vuAp3NmiK5rE90SLem1QdfQ/16G6EeIx/zu8HHc92TkIH5SLzq8Y/lF7NdQHpmLH15UwfnIINm1KpbSKS0yLELSCQcdd5T8HCRxtMpa8shY9521Clrwej8dbYaMm6v8vdlgtXbFA3oDm4+ZgI9VZvzVSY0AY1VhDubnenddPiE79esloYKzTCtWNl5AxnZn+MeOyTWAYptSUZ+mhcPbUGnTZ+LK6rcHuArE3BDWrAbV0d2Nuzep+wn2DZGVvdXSKbQTYbLSFAPXqIVbsvvCNdzh9bXSqYcC30gFM2jFZPeZKKxu7f3PFuwL/MWjRW+z+txEzKH+8jwWf1AEGPYx7ohzuMYK4Rf7XiqfQeXIyzks5fmd/mXKAVgv9+lUY901XDO3eEBvHvosdeh/x4HErXU/hBTq7Bda4Qdgmf47Bcar4Um4fqzP5ysy0AzZLNIYcsGHnxGhYVYXmvCOgbh6DH+ftbUrDKw71oMBth3MLNLPljKcwXudyDZ3z5Xvq7Vydx50HEdTTJv/jMfUWspd93jNkznQKjzmrvJ9bzz63lAP5oxCJBK8RZmo+mjRuSKNxG2ySdxxet+7V+PWeefJ2pEcenPm1Wy3o+LYN2W93hMXq/MVF//khSorfqx7Q5s5ToQ/Ffi2J1qDTLIKIS4Ld3gmz5Dnoqe4NCNnsssnbF06bPNP09mnhMe+iKerDgCj+EuEKr59CShGP2x6KT+vrm2LyQRTWMaojvmkUuW7V/b5xFmscwzDB4Nn6lE9oRGysHqFuZrh+lEz5JV4PAVvtl0MIbXANzHWrI6T2qxjx2yGcpUNVKrfGZzodfpJI9F48p+xDxK1Ycp2Iby9GKEJ2Ntqd0KCXxozKNetTHAbYrjGqaUmQQiOwvUZV2h+G3hZ7uZjlFcsVvv3oE3yTH4rXx/aAiTotWW3AjdTAphw8SHr/JDpN24eUlO1I/PMHXJzfnjo30vdKI+qvc/EWCkoYr05QD61PjZGo8S9ssJ1bYdtM9ugpzkq3YWrab8iS38FDLoHmQdE4KN0iDX/xtnh31upGaWs8eiZnxyPyLWZWXeE8O5mysDd4tOT37Rs/QsfXbkLdTrdiJNZg2way2eU/ElohCeJWeiRt9VHpyR9QuV4WbFrycfIydJHuxNJk0YkaEJL5Pm7XVaJw8bQ9gPcyQxFiSsPbLXTo8FaaIjR05lDsGyvCNKWtEaqO24dQM9lOvtg1vCaqTnkTryppiTgepjjMIP2t2vES7RPHxLnNMcDPrWxnPIW3yUWZHJ/9X1RttRLHzSYYldu50/HpsoH0V6QRj6l7I/DDWDpHibcpnttuJkGhRqggyj8dK25sgoeenY77FRua0zYV+8xGpQ5LxhCcXiCWhYg4G6Lqbe/jNKWnN6Ti7YYh6DnvKIzCVhI/pm0vUphnkEBlZgzgj0JE2ilYUKM9RiU2wrauWoQP2YPQnVMpvHpbWlw7rlv3GSEwbxN5fBPTnhY2FvrKrExz6mAy78OzurrqsUp4NiGU0jRgxxAdwobscPrNb34MVO+ojis+DBC/Rg+zux6IYy0pT3sRYqRBBvlwOfnw1Slv0H7y9+h9+HZ8vZLTdDrCAw305mN4r43IQ2NUkhqjslIWQkT7owoi9ryECI0ot4a4c8Fxskf4wjMeZz6cZUrxFMmH8FMIjEoC/n1o0otjPgS4fpyUIh7VnjuFX3QNUKn7apytclGdpZUC54OOak0h2DdOvW7IV8/uqYz4WsqJFK/vdfsQXXNiRtzXN/R3LNVNk38PMwwTHN49VjmkarVeHmtoe6GdgXYWHMPmEznoqA9Vwpy1koytaoItzwqHxQK7vQ3ysxJxUJmhlRWBelpnQPZp1z4gtqaI7wls7jkcI6tTPDoHZJnC2mwUB6lCX1Vrs9P+8iF2qeeD/sSnWL5URqX+D6B/cxuJMiF2d+EZXRvUi+2Cfjtrom1cDHY/3QaxsR0QLt2DtxOpwzeJMOJ2/UseHfY71JjfQJ3cOzhOAlBPnePKW2NRte8H+PaT5/CfZl3ROLYr4m55El+mmNwCUWM04/yu5RjX4w60ju2BFg17ogE10M8oa+QK7WkQ3x1NYjuSDfdiuRBoHrVOa9Lh1No38Gjz3mgY3wPNonujff83sOO4joSPU+yUZIsirOY8hKpVuik2tKB4mrS4A3cOfh+/FxgU0auIsdGi43kV35tPYf3AO1G1QVdUjRqKt/fbqZMpC3vVQEFBslu3HVvn3oB+PSNhsXfA47OvxdwNCZSe0lWSPTvwZM/VGL3xBLLlEzhQ5ze8dM6odLRaGsQ5bxdryUc78WTDl3HdxjxclNOQtTEO4xqOx1bJiFD11qtGZ8SxmXei/4EFOCAnU3xLMWr+SPSclUFiUIIuoiXC3/gF9ZJEWulYOzEZ4wYuRQZdNwbtZgzpuR8z6NgFOQk52x7CjnErsc3PrWxdWEsgrHCvxlgZqENlIL7owoDQxfgk52VKIwMH5nfDrM4S1va1Ikc+QmlWxYJpS5HuZwbNVD8KP7yejxHyn3TuOszrtQX9h26n8jDCuGkKWoxrgi8pzmx5C2YZ3kCLkQlUB5ui19h78MO6vZQPqktk7/YNa4BRvdCTBgkZAf3hKnAxSx6LEad3YX7zDNRbcBhZSzvDahf587gtrd66F4MKLYlJhC7C/jrraMCUjKzND5CvJmLpYbr2zBlYfv0gJM7ZR8eOICtpHr7reRsWJulRXTQswm+Ud//52UlijOxSfBggfsMRzGk4FE02iHpAtqZOQff5c7EkkeoI5d1Uty5m/FSH8luAiws7woYaQaTpXcKSTou0qY9hXMsPKf0kqg8bsbD3Orz1ZjLVMY8LRSUk8iAGrqpHaZ5EdtJzsFAakzZRnSL16j+eVDqWhsX/fR43JVjJFspH0lzs6TkKm6nMDCbhwwfx+8xCH+7r2R3LU3zXvwe+fjRUu7SGYONxtkHLHpkO/ZwtFPZPZE3IwQsfRyh3zjR0HQb0h5HawY1T0H/+EPKrqGPrELXnE1iUhoLKxFh43Ypr7sAsHV23z2KP0YRj05/CuNvWIE+Jcx9mrOuBx76gPHkXB8MwpaBoC1XeKTiEyds+wHsme6Eolagx91x8K9sh6ak78uw15UoIr3QAI7aNwuoL6j4FsSZ4CPZQ27/BeWev3CNmd//46EN8cvosho25HzWstoBCXC6y1lCLkJg6iI/x7LD1CI+sjpjqerVCaGCs3RQ4Nh9DXvge6RYNTpsqI9a6FoPf3IBcErNCQJ19ZzgadfsCPx07B7u2uKEACdIaldAyzns9n6Qz4cT8R9DywW+RKmXDLEmw6SX8nrIOQ2JHYM0pg/LzyyXZUmQWiuI5RQOArG+fQucpO0iIOHsJXWhDoEku1j4+EQPX/4VapkqoUfs9zBtDwljM7CqhBJdjrxq4JMSAYH0C5o8fhRGNJKrCEmJv741ec3chgezVktjXrN+Fxbgf3XoUIC8vH3XHP4axOQYSKoXIYtCyUYR7FN0pXEFeLnI6vYSztjfQ0W5Vw1JcUjIS1h1Dj7vbop6Vwlg7YOiCW7D3y11IozqhsWcha+IoDI7Np2MWNIhuDoSL+uCA1dIFi6mzHhRHA0ryUsqhZDrmFN6lgy6wnMcxYWIU8iwFqBdXn/Y9j969KH9Kmk0Ao6sOeiPnX8CNCwaiA9meZ4tCgyaUsxDyEw3+tm/4ChjfER1tJBwskXj02QeABTuxhSp/dI+OuGnbBuxMEkspUpD5Y0vMHN0FDhISAf1B4rCwGGUa61ppEO2A3WaFxVFSI+HM49jxkcgvyIclMhJdSQ7rqJykpD1Y8/MtuKt7FAoKcpDT4EFssW2DWJZyLpwGCkRx+dlK14ImQPx6ZQlLDEbKNszoKcqdcnAkBZsRDvdSU0suet3VnvJL9YQG8C6KT5PEoRpOIJMP6k/Zhay3O5LwF7UhHYfXhyLc5K/UKMmMPzH+mcdQ15KFvNhH8cz4Fli4bhuNJRzFxqMxhGPm1CVUNwFb3GPYJ89BF5sD8uHd+PrnEXhmXDyVCZVL/FBMe+IEvlqfQteQhw3FXD8WLdWxI0HGI+rCYSq3fa1wh1JuuSjo+TDmdZeQT02eoxh/aGkw6vRrB7dfB03qgYxM8j3Zp1Xsc163in1jH8d4rMXWzRKJZbq63pqDxUeoHOUoDEq34u1+FkpDtYthmFLjv5UqR3ivzX0Z8TvW4IuoGmhMHU9CXrYSpqqxBvIdHjLAfg6hNZqgmZgNdiMjNxeoVzMed+8bqsbnWusbgqYRjXANdRblHzFTtQ9fLb+Imm2G4/bO1LkpjaCdhEl7vGbbh2Mp27Cu8xn8diQVnef+iEMpW0gAvYuBsdSwFxHAxWFFg5sGYXXyTuS81xnarBjE/vUXzlAHqdP9gHf/l47Yhla0f/EdfHdwCw4kbUSm7SBe6y4aZpc93+B4ygIsqJmPs15vihOzYd9j9fxziK2fi86vrMEvKZuRfGABFt0QjtC4b/HZl5nU37iqaCBbJKUTrjfuA1y8uAOJlPfDKTuR9U4PhNiuRWzGMaRRGKeAoa479DC2fazFS5t2IPXICPT7oTmOf38AyRdJ0FjLwN6gFC+VoT4Ny2bvQeSqCSScG6OqphHCohdgg3ElFs9Kg16vQcrhFKB3NKKofMXjkg57fcSRb7PJ/y60lLfM3xM8whHUgVssNudnBZH/o0gmndGsURyJPXHETgKO/hrEAg8Vu7hT4PwoO9yjSejMmVjZrhEiNE1RRYrCo5vD0aTIU6LBQumqlVAm0SO+uzRkYZr+sVNFdwaV1YGcGOwkIf13M/rENYBNGfTKSjhxTEdtgi1+EJ4Z/RPGrj8Ffco+fGzrjk7x5BtHZsn+uGQK80iRO22mAY025Qj2oCmiGtmd9pN9VovnNVlCfpQwAj/xExqjCbtHRaKSJG6fRyP8rdO4P1JDMRTioOvSnZxCsGmqaA0wbX4O4SINXSyl9T4y78+GJkDR2XADYqLI33TcQfUyKrYFxUH1N2A8JNyt0Rj8/VrMypuKFlIjVNE0Q3i7VThhNECTkontTbZjoBSHyrqmqEz57PWmGTsS02icW3jtiY+Brp9zVMba1LSg4hERSSlpHuVGMdliEdks1/nMRMB8iEHTYW+/irxFR6EX2SKuSG/76DBdfw4YITlIRI9ZjQOzJIxrGEXXXRwipHuxMk1dYsQwzCVR/i8fnRk/VAuDuW41ZWtUqxJi8kiYGiyQMjOcgjXsepxt0koJruD5NoYLGfiPzUIj7MJXnZ299U51TfBefHrKKZpFZ5vt1TWUT8Tt+9PL38UbiYnoPfYBNLN6ChshMklskgB0imDaY7Uq+yzUsXqvRdWIyQuKUIgvnZ+K4EC9rBvwyMv3U4Och/zwyqhGccrUcUt0jpT8B77LpwjjHsbwe6OglwsoDZGO5yyEsIfSFzMovq5V4/g2lwLHD8Sgu66BIy8f+YYYtGsXi+NH9dCTyHVSjC10VNIYIGVswrT//BetqOMKk+IRfvPXOF/9DLQUxitvf59G7NNPY/wNEi4WdMIbtu9pMDAL/UzCxrKwNwjBS47XJu3B2s0dMOfM9zhPg4SztJ2T9+HA9A7Y8PVepFNHG98oFlifhnQxWyW6SC2JtM0GhCkL2J3YqSNt0LyTGk69oJU12Z5LMcSyHursuwB/HE4m7SUOUKcvAlh8BZAPYjb/65UYt/chrJeTcF7OwO7xNXEo0/9ZDqFe6RynJCe7g57yvhTEEqOGiGqeh3XJmdApQoWEpTKjb1dmt8UMXKee9wPrdmHfto2Q7r4NkXRxONDg0vwhUEQh+UUdd2jEbJ3zY2CEMI2NRzscRPphEplK2Yjb7gaPB5lKzk8gZJ0B2sS38fL89liYegQX5FTkLG6D0xleozY/lCZNaivUN1b0XbgRWZTGBflZdD9nRHFvL9eojtJo9UhPOUDRypROcfGQr+xReGRfEl0XibgoL8T4vfMwYsYRaBtFofOhzlglJ6vXjTj+A7IWd3I/fCcQRRQb4PqpQmVsj4kOKh4RkRwbrZRbRpKOyo1iIh+k/xFCg00x+RAoH0JiN1L9ehR6cR2Qb7Wp6dhAtogrstA+4Vk6rBXtcIHyjLUs0yB+7Adk1xG65tQlRg++jTSd73IfhmGCRWl2yztWGlU7xIyV2FyqzVELkn4RRqSdVL5WqdzTY61va+fDbDiJ1ft3ASYjzFI+Ek4dVR9kc4V9ApNrhtGebBz8OxH5kr8nFsoTQpwexperklGn8UjcPcBI4lY9FDTCl9Th6r7FgV/MCMn6BfPHvou14ef83KIWt3Ftzv5d+UdFpsY8Lh7XyXpoUt7Bwo/SYZWM7oe43OvMlCekxdPReuocxA4SBno67gpDcbQmmahJWYVla/6GxmyC2ZKIdRtSEFUvG6EhVSmQK90AtgifSAl4LvY1LE65DrMKjqJA/hW/r70VNc5eQ122N+Ekdpq1bkl+E0ecAwQxGHDO1pSlvYGRSJBmbtqK7aPb00CsAPnqQKGgoAD1undGu20bsCtJA7l3ewzHJ5g9OwMmsxmGjTsxG1le5STRNWHv2R5DsQKbNxlhpHChme+hm64nliYbYDq3n0JRmctx6NSnHjZ9shfH9CEI1e/E4hHfom3/9ogmPxQv8oQzEpF6REO5T8LCKV+hTgPR+TuPunBQuURFtQDe2okdNFAN1adh2+pDqGy4cl20GKR07nU7MHOHkmaYIQMrXnkfGNEBXckeMRNq690B435ZhG5Dm2LSEzEkKEjwOGID+0PM4qnxF4HilKProy2WYyv522w04ui6TdhKnikul5Kouw3b4a7W32LN5nQYjSEIMe/D07oQjN+oR+2C35RwxeeHylEJFQiJrPgeScmgOqLBlmkvYmtNs3NgWwwl+lAN50Iicf11cgZ9olQ2LMawDTJCAgxsQmomY+TMBMpvGEwpK/DazAMY3qeLuJoDxEODNX0CRpEdT20SD2QKaRiJuM7H0EjMxse1Rd/WC/DaLBK/FFan3YlJ1G43fi3Z+w0QVO6OANePgQa0jvjbgotH1IVG7TDgpv0YNW+nUm7G5L1YvVmCq1oH8oedBn+de/Unv87D8hQT+dWAnRu+REQtakzIPjvZ57puzdSWHJ+9BDPRDz376rD93hBUGbqT2h3nDH1sbBOgZTRiRf1TUmUYprRUCMHrH7rwddfDkDoSXdQ3MnihvHpsJe6ubkZvGzURuprQnJqEu4uEFa8dm4PbTunR20vxXblO+lIRMwB5ny3HpD1n0eTR23ErdVQlzkZ5ITrM69D81gtIMuvwyX03ofaNz2LRYQ0iw3y7teKgxtreDv2HOHDkjBl7Xh6IW5o6HxhzP7RGwtGwWTwR3xlNY0dgxKnKiIxJx6KebREfcQPunJNKorI9Oj2YiyMXw7HjuQG4LrY7YpuPx6TEk0i33IN77q5M6ZTUvFM55V7ERYTjjGk1nm7SltLpgeb99uKPqn/7nXlzKLfSfRBitwzsdZRorxY6zSa8OXY1hvbqBJvnmlCyy96wLXWuX2PMKxvoa2e8njQR1nHdEC7VRvgMA57odhE5Vqf4z0ausqbUZumA6UnP45eeZlSSGiG84SjcvHEbhsXn40Ie8FcBlTsJ63rjP8eXLUaghRSHMGkw5o2cj43jIlFA14ctmwRXdqEtjoLzwAmL8xZ434GY1ZY6/IaRCJWehenVsWiW+T0S/5C8RK9Mg9HI8Y9gBD5DfymS0ngexvv64Hx6vrOe2sgY5BXOGvp8d6epfi/EgYIT+5V8uHDba7ehoMerODDrkJpmN4yzPIUD8zsgX5mpI/ttndHx7r3AsLY0wCCxS3vlYv3ha4FH+uRvR8NBeGqkDrN7xtN5Zowx9cZ4XEA+nWeneL3y6LCo5UTCuyASj/20DI3HtKHybEhldS/+ILvn97LhqJiILTE/lL6vD9X4xcDN3ngwnh5px8zu8VROemy7ZyXGn3oHPydSOOlyfOiC8mCPw5DJPWhQM4byoEX4pj7YNPFvfP5TKryWAgjIttOnGmFRy73O+ttwKgyUxus98mmQFyieI3RNdMfipMX4Q6nPTRAh3YyRjT/CrN4W5OcJH76H5uNdPhyMhSM3IfGZOPer95zQYLagg9/rJ8tKIt4SbDyU5/xIPPrdfIyYO1jNx3Hc9MQ5nM4TS4CK8QfVlYIer6gPo0WRX+tggXEAbjmZDRpiU30ovG7DpCi0GGfDrKRX0LYgH50+PoRZ+++lOBujCp3XdEQDfPl2Z9i8yoNhmNIgWSyWYntoIQ6sVro88yyonDoPZ1tNpMa7cFrRoNGh26/zUUNrVPeUAVotcs6kQmetjO16M/pUMwYWEmI2Lv8A8s7X9hr5btdo0a8eCSZqlNz7yVZtwe8+YWk0XbkK+hipo3W3c9SR6y7g/KkcmByVsD0iHL2NNNIv1lOXxml7AbZcO9LLp/6RoDOdx+oB9+GVfTdgWsrr6KktcM5M+uB8I0FTDFgEDF3rWlOrHiQfmFK/xMiHF2LdaQfCQ5pi4OwuuNDjZcy9dTR+3j0QkUjBytv+i4nfNMNbf7yLgXEypOR3cGezedh16ygK8zDqWmzQmh34bekbmLv0O+w+ZYNRI+FCaiYeEGn2onM2kIDstwd1Y7xnzq1//Y3GL3yEz8dEkT152DNtCmZ9eBAHc0iems1ofPMAvPDGQFxbyUKDmnSsKsGW+g4d0t+fgAn/24/DFgmm0Ga4+5kmuPjAciy5dbgSpoGswc5APhG4BO9l2ZsPoUlKRtzKFrM8PjYoaJQHnDQ0mFFurVJ5iRknp5QQszv0SZwni/3O9ctK/+wVjkIqcTvjksRaUbUTF3XDPRnnSoNQ9lMn7PlOVr1GJiElrh/VJuWIWAtJVlAk7rS9cObNZa+4pjSueISPtUJs2BTRqfjc47t3mp4EyEcRe10ZEw/aecfhG95FIH94U7wflbXIlLbiD/GOXs88KuXi6StP/4hznXEGnR9fH/rE72UXDVZEW6rUl0B1oRQ+dKPY4E6EYhBLWPz4zmWbcI8aryu/CsXF41OfvcvG24eBy43wisfj+lGClyIer7CiL6CrQVbzUoI/PP0q3gQEia4Lr/IrtE8swXG6x/OaE9BgynUOwzCXRPkUvAKxdlA0ImKGqaRZM0kDje9qfjETI2Z2fSkSlhpBapiKilkheqmBow7Y//GyIWjBS42q+Zu5iO35CSLGvYmfp96AvGLUlavjcwofdacLGgyINxe4GllZ+FcrGl1XJ+dqbD0aYHfD7N0RijdGiHWyzricuNP07Ah8KOz4JApGAxHP2SHxcIfN+aBLYcNfvC3CDp27s6Y8iZPFejuPMMX6RFAm9jIMwzAMU94ov4L3/wnBCl6t3oIv7ovDkE/7YUHmUtxdvQD+9DzDMAzDMAzjjc+0KFNesVsNuOPDkzhrW8Jil2EYhmEYphSw4K1AiN/cV14vxmKXYRiGYRgmaMpE8IpHAZhLg33HMAzDMAxzZSkTwWvU6GAXj+IypUL4TPiOYRiGYRiGuXJctuAVL5vvVaUxfrZeYNFbCoSvhM+E74QPGYZhGIZhmCvDZb+lQWDS6jHnaAI2nEtEAR3zfkkV44tYxiBmdoXYHVO/E/LtJf38J8MwDMMwDHOplIngFegkLTS+v7TDFIuY2bXJ/CpxhmEYhmGYK0nQgteRb0VE8lycve4JErw8I8kwDMMwDMNUDIJaw6v8Rrq6FbDYZRiGYRiGYSoQJQpeIXbFptFq8FBYJLaeO6T8uhrDMAzDMAzDVARKXNIgy7JzWYPFivTcM2iZNA3vxj2CrlWawKjRixDOgAzDMAzDMAxTDilR8AqE4LXb7XBY7UjLO4PpZ3bh3ewMoYYpBjUQwzAMwzAMw5RDghK8YpZXbEL02m12SA4ZDrtDEbxiP8MwDMMwDMOUV4ISvAKX6BWbmPF1fWYYhmEYhmGY8kzQgteFS+Sy2GUYhmEYhmEqAqUWvAzDMAzDMAxTkQjqPbwMwzAMwzAMU1FhwcswDMMwDMNc1bDgZRiGYRiGYa5qWPAyDMMwDMMwVzUseBmGYRiGYZirGha8DMMwDMMwzFUNC16GYRiGYRjmqoYFL8MwDMMwDHNVw7+0xjAMwzAMw1zVBC14hcB1bQ6Hw/2ZYRiGYRiGYcozQQlel7i12+2w22y0wwaHnf5C7HfQX0kJxzAMwzAMwzDljaAEr5jRFWLXYbPgaJaMFYkR2HBCA7OGpS7DMAzDMAxTvilR8LqWMFgtFhzLsqPpZ1XwRXc72jWQYeBH3hiGYRiGYZhyTlCC12azwW7Nx9QfK6NtXRmdo2QUiBUNDMMwDMMwDFPOKXGO1rV+V6zZFcsYxMwui12GYRiGYRimohDUogQheMUDamLNLi9jYBiGYRiGYSoSJS5pUNbvWq2wFWShx8ba2DrA5neGV09CWMNiuFSQa2EVL7lgGIZhGIZhrhilELzZJHhr+RW8Zj2wbL8Gu45KsJCA4zc3FI9wuJgpb19fxqBWDuRZnfsZhmEYhmGYsueyBa+Y2V11QIOptPWqKkPHs7xBYaOBwYazEp5r4cBA2niml2EYhmEY5spw2fJULGMQM7ssdkuH8JXwmfAdLwVhGIZhGIa5cpSJ1BLLGFjslh7hM+E7hmEYhmEY5spRJjKV1+xeOuw7hmEYhmGYKwvPyzIMwzAMwzBXNSx4GYZhGIZhmKsaFrwMwzAMwzDMVU2FFLz+3lu7Qv3rpNg3rSExz/k3V/0biN256geG+TfQ6KA36GDws4nXAf7jqPb8K2lXRHTOstKqX8sPGuiNTttMtJU5/0Y9Kbd10+lrY7kxrLzZwzD/HBWr1qsC9Il+Epbf4b1tpP0rlONC7Grwos9xz21DR2DPOaBzR//HXdu2G8u76JWgUzuuou2XBK2ejqnHr1jnFgySVrHDSFuFaGfLg72iA095G/2MLRFhrOKxSbS1xYIj/7Btij1L0NXYE0tTKkg5lgWXKqSE2N38JJXVk9hJ55cf0UuCJ/QoVnWqodSl8Ec3lW278G/Uk3JbN4W4TMPiOhJazEi7dJF5qXWwCGVkD8NUUCpOjRfCs5GEmSRErzc5d3nSg/b/2EiIXpElG4p725dsdyCfdLGD/haH+OnfAvVz+YPErlnG+sciqOO6CytOeDaIdCxExm/zR6Nfi5sR07gtGkU2Q/iYbf+86BXisWA3nq1fG5UM/8W75V0slSd7NXro0BgLDp9DjvUcLhSITaZtL0bE2/75HyvRGBCOUOVXAv9fcLlCShdC/4RQGZYjdBpIaxdh7N4RWCfLyF3RA/kWP78Vz5QRGpia10Gs+RIvmjIX85dpD8NUYCpMrc+jXmNkMyBCfPk7G/cuP65u2UhXQgDXx0joqPVczmDF1+5whdu1m2T0rC1h+6Y/3fvmZtiVM85nnHPvi94roUe4srv8odFC9/syzFlDKv+xoXggyvnrbQJJr8Wp5cPQ8fnDOK/Ngp7ffVaBscNmpZpMosTisbnFrnrb3LW5Zm00YnbfY7/YTEZdgAveeZvTM2yxM5J0UMw4iXCFs0RFb5Vq6bh7gKXOUrnT8FKBgY+JONz7afPf4bvSLozHN6+e/vA6Rv4T3113Qnzj1xtDUBmVEGJ0/qqkwNMm3wGk+5iewvs60ccHnml5xeljuzfecdD/hfjUBb++ovAGE2WmRxzi6KtoM0R8hWHV+JV4Vb+K42Kfunlmq4hfHVQ34x/HLnkjhrsHZYFsLin+wPVS+Mt1nol8bfdNs0x8XUxZB7juFNxpa2i/3jt+H7uKi9MVpW8d9Mq7y/5LtYcImEcfWz0PMUxFxLful09yAXOsjDgxs5uXh9fWaHCxXl1Uql0XEVUceHZXHs7T/mmrcyCHeqo7DbRV6yDEZ8sM08FWICO8hjMOKawudU7qedpKSKPvYv/g6jLsTh1c7tAagG8+XoXvCsIwfUwPGEkEyWrHYqJjKYd+B6oeQ5f/HcSxlL1I+/MP5M3rgnyLs4MTDZi7Y1EbtsLG39nRiO86j2URynefGiOJhlY9XrRhpHiF2g5vj2kn/0SevBqP+pmZ1FAcYvmA63zxuTCd4GzxFXgiDrG5ilXgati1FKdrKYiybMEdqCzsFVD86n5XGLF59kHBQwMbIZ484qH/nZAdoQnPqMscxHKHGui3IBNhoTpkvtHWY38zRMRfh/DW85BJNnmbQZ1g2DGsalcYR4RxCvaGeAoPD3TXoPLeFxBKfhLx91lwFOFmypvPrVLh6x2DJIQP2gKTSQdz5nL0dtsjYXIC7VPyQWUZthNP+xwLpTqsJRv2ji3cL+5krMrw9aOoH860717xIV5WwlG6HZbjL7rORVANJXRqQT81Do9j5D/TxrEI7/MqXukjjnkuFaG/uk0Y2mgWtnZajRGN6mH2YR1C6LxCm8wIH78TlWifQLF3vHpMVwNP762CuFrKIVFpEOL2gdjuwKpMSp/S8s1neLvlOK3a7k1RXz2j+sq7LoitnxK/0TMSCmP4ajTMPbai7YWH0EjqjeW73sUA9+whbYZteILOn7iZ4gslv8ZLuO+5V3GPEqdaN6h+ibpRxK9kt/Cr8cgStJd6YqHiy0A2q+UWMP7A9VKIvQSqW/991nleeNO3cTJzJbq60qR8Xr6v6ZrzKmsKO1Yt6wDXXYioOJRfUdf7qWmbu7+HczXtVHKERuNzHdSh+rMDYXR9BCq/EIN3HVyQpsO+4R55r0vXNPkr7FLsIbzz6FGf1fP8X7MMUzHxd52XT8JlZXb3/F8SpkSEoHauDNs5GVYpHIa/bBj5qQ2JNUKw0+vunBa9PNbkurYf42Rlva9spzhI+Iq/njjU/eVV7IrGSHd8NZYuAwx9B+GOFiBR5uysJpO4CYtriz676qBtXGPsfKYp6sXeCrN0BxYcAokPESaGGrDJzrWFFJdzrWgsCYG3cYwEkZE6oiXNqDG9fSX2rX4S/ZvdjOiGN6N+m5H4PF10Yk4ztNRQn9u1EKN7dMe1DdugYRMhsqpgEnWWBmrAXfZENG6LWNWGxT5rT3XUgp5c9zIeaNkekRQuLq492tz1MrYfpw6KVKToFEuyRYjdY3PuQES1W9GIbGjUuA2ir+2GvoOX44CV8kgaVgiwnWNE4/0cvgs7ia8f7oaI6JtRKfIhLNpvh0lbFvaKEGIW5S9snzwQba67BXFiOUmTWyndO7Cs1LckJYTEn8GzjSQSmKLTcXY8I9er/tVsxCO9v8HMQzJyHOeQv2UMdk5YjI1WIPqpveryh3MokJdjYuZ+DHt9FOLs3st9NGRQyjORGNswAXkUR478Cxb2+QQvvp5CQtvXWLKn3gE8/G59HJRl5B9aBuuEKIzfSPWQysr3Vqm+cjWgson68gzM7TYIt2yTlTRyD72NXb2HYT3VPZM5HUuv74ZDs9KRK4tjS/FN71aYSX43f/Eg+i1aTGmRXQ4ZG5/4A2Pf3AIt5d0bDULadMD3w99FffJFvpyOmbZBaDw8AWYhkDZORtMJrbCWbM7zPEZC0WEgG7c8i4JxMnJtnktF6K+tBxYfHoeuCf/FgsPHMI6us/Q3bkO/H5YrNuXJGzFqwX3oRCLfTPXCsGEyCY3nKB1x7AdE7V2FAoNz2KAzJmBik0FovV7YIOPgDD3GNnkGCWSf6atR6Jf0Po6o+VzbcBCaPJNEgy9P/9O14OOrvPXPYn7vjliSLOreVozqnYxFKaIuUBrrGlP8byKFrg13LDYbLLfPRd7m7tj77UvYIK/H0Pp2qg+ey1S09K0pSEMR5Ndr22HvG3kYpfjuB8zv9RX6PboFeh+/5lKaX1P+Gt+5DaaQUPfSF31IIJspPyQAA8VvCAtcL8Vg31DjBiRML1DOy00cgvpU541qmtrL9rW4LnQ47lHWuVRvZizqCOOzqSRCN/u97jZLdA0Y0/H2oCkwKPml9Mdl4/mPqyNEI1EaKXiD7Gq6TviL4jwyHT0WTMN80S4HKL8kqQeWeNTB0Y2p36rskffjoxBj3YiBpbZHhoac5ZnHwvqcgfCQtIDXrN+BMMNUALyv8vKMqkkrhxnQmi5cWazpvVEVsQPC8f5D4VhJnze6AgbEAdlnxq6iQW0O/vh4JT45fRLjRz2AmgVidjcARQ5oERIThbgYj7WFGgMqRdVBZHWD2phpYG7SCTj2Jh55cS8ybFqcNVVDvPUdPDZ9A/JEJ0rb3+8MQnyP1fjhxN+w0Ikek6k+GHGyRmW0jA/zWv+pdCrz70Kzh3cjVboIMTlvo47n9+Q1eLjhw/jklAY6MStSgi1FkCScoQFA1neD0GHKdhjUMLrQW4Am2Vg7ZBge2nQa1U2VcU299zBr3DIc0HteDJdqL4kAkwZ7XuiGAWvOkECRUN3oIJ9eaoWjDu1INbxymDoyjzW883uTcCHxYrX0xDI5AY/HAWLMlnKIes4wEph0psMqlj44qGiPYr50C7a9lY5ZPRzI91muKcI1mEqd2jsdYSHRICEFh9dFoLbXnZJCLOlpmDB5MOpTRLlxj+G5cQ2x8Kvt5HI/5eCB1gzMeHYp0oTP4gbjB3kRupMt9sTt+OznfhjQLRKWXBtyGgzCjoL9GBltQ3bf96iTfhz1LBSBlIHkH+kvXf9+yf0TZydMxjDyRVZ+JB5/+QVg0VZso/R2fv06MK4rulA82eLYKy8pxzaRz7QQo9qX0KMHkJ9XdDbfSv6xq8tKZDkVW7acQaeHOqFBgQO5BR0wYl5n7PtkCzKo/m9X0ulSmM6T/XE0k+KnY9oN27EIL6BndyAvG6g7diwm4CNsWk+JGMLo5AcwdwNlk9Lv9A6J9qlxKPA0hq4DePnKgYKeQ7Gg12l8vC6DDmthwM8YNnunUo8tPabDIj9Bdvo8z0A+t1hFnilP9Nm1DCoQjoupaDvvcXSm/OZZIhEV/ycQTu0EJbLVw685OTa0WSIja3UX5OaTswiZqoR8KJDNadBo6coIEL9McRZbLy1psEzo5ky7QLTqTmS6ji/b1+RBrca7rHOy6+Mxi4yLz0UhN7e7/+tOOF6U0b42uMOV315DMK+HhIskYq0FsXiS+q45VNdEclJyMjYhQp2FlwKUnyivwjqoFJ1X3sV1HqAdKNYeMRGQEaA+b0MaVVqDv2vWImxhmIqJcqmVe0jA4LwD58XnEBkP0UV9Tnx2+F56YrbCE39reM/ixiQJg0LVIBUOLfSaffhi6QVUbTMJd3ZRG0ExI2XpgmkFfyA7eS82dDqFn5IT0WXWQaQmfUNC6QsMiiUPeTuoBPIRc+MorDm8DwXv9IAu6zpE/30Kf9ERve5HvPO/VEQ3LEDH5z/HL7/vQ9IhMat4Dq+TknEKMqc9OSmrsLBWHv529oMqWmgpjo/mn0dMvRx0nbodvx/Zi2P7V2HJ9ZUQHr8Dn35xHFrRsyoEtgXUIdQb9wVysr5Bmli+QVvuyr4Is7VDdGYGUqj6OGOhf0MOYfNnEl5a/wuOH56I/j/E4+T3+5F0gXxjvVx7j5K9QEF2HhVHNqo1ewSTV6zBgcPfIU/+AkP9LI8oGT9reBXRqoE+NAPL29VQZn8raSU8tLUSGldVTlLQh2mw85EGmDBwB76bEImsPD+J63QwbZoCs8b51H6ItAxH779A9UQVFl7IVMtuQ0yksx7JVO9iolsocQTGARsJmZFJmZiNIWgqka36Oghptxx/hlAuUlOxB9citjGFFOaJNaCUQau4fZ+yHL2kOqhEdoVKT+GrmoGbKwf5u0d0NF0LFAn9b42KQS+SEDopHan766BHbAxs6kjXZhMXjK5wwCfaDd+mxA8OOQ1Htkq4rkkUCQtnXA5rPmA2U1w+6bhtkJXmK/XQr0CfWMTSfmq+INP1YYc4j8L1moa89c9gTm/yv64KwjRiSQEN9DzdSlmXfH1FFcOadwFmvYPqbie8KS/DyDk9qSyrIEJXB4aROxEWUlzZBEceNTAu9yjpkjESUpHi41c7lZtYMuWG8q1LPRzAZufQWlA0foLMLrFe0oDOt9hEc3H0968vz9fC2UXK2kGC1UbCmK6rQNcdmeZdRg6qH5GIbnSAxCvZZgR2jHSmG6GTYJ55Ag9GaRUb7dRW+i8/YY8f3Hkvph0o1h6JvqcGqM8S1acGGO7vmg2w/INhKgIVo+7SRZ+bYsMR8d5ckxbjekmoIhqCX7NUEVv44Jo3/tbwVkNnnUydlxqkgiHpJZxcsRSvk9jqP+YRNC/wFPlOsSBmRJQ+nbALsaTM9vmKLY0yaaR0StT5FK0IDtTJboNHXrxf6TjywqqgGjnNQR2Ect6R/fiWIpRiHsfo+yNhIKFSINIWm3sWUdhDHQWlX2QmieJR4iD7ETMUQwdUhZxLHaYpEu3bkgg9YSS5InpP0cEVY4sSF/VW6Zvwyh190UwyUHtdGyG3fo6z1U9TB0h1QIRxcfYEYp54FU/dKOFCfne8VZBEIn0x+pvIRvny7RX+7vrKF5jVpQpSty/Bw7e2R9U616Fhj5ex6a/SLmkoBp3rafsx2CifQ7ZNxrdj6yIx02m4WF95YkZ39F21BIkrOyA7210oHlBnqU3BvCmvoe/8X5Brl5Ej/w/dz5mLfTuJUv6ERI5NTTtAxSzips6U/mh0hXVJY6ipfqI6aKmPIXudSyxy5Y8xYe/rGPxmGnQN49EOvyIl0RWvWFqig9kEbHlzEHY+8Snyqayz6Zwn6lMA33JR0ejCsCktlQQuhaH/9emp2EDlYZOjENPqBDalqMcIHdko6qY/jxSHRopGfFcZvxxKh1aNS6MnQ/PyKC5XOmnkU6cNOrJnA9VfmdqamCbXAutSkEL7RY0Wa9+1oPOEzyhPtp6v4mKBjIv2czg49wHM7/0kNnnePqYwckyMt690eujNESQY6SB9t1k6YJo1Dxes4hb06+i2oCNGfiWWmzij8AuJIJsYzLkSog9e14tfHCTSYhDr41dxB0Q8D+f8RlC+bTGNAtjsK1U9EXd2MkpdLwVivFO/ed/L87Vwtp+yFsuiTCHFXHeUX1cZkc6n/FIbq6WB0OEW+Jvqp5S4DC8suAcLj5xDDuWpYEEHnExXc0RJ+C2/tdTl6YvprIprB4qxxyDJ9D0mQH22KmLa7zX7etHlHwxTUagYNZcu3FCtDnN/znPO8laGcynD3ZXx0WN1aQuj7ob424YB+aKJc+F/De+2HhJc7UzFggSK8Qi+fCcRNeNfwX13GUlcFtMY+sUBu0VHncBu/Lqf/Jr9M+ZNWIq1YWehV0MUQp0hdRLK4EAsI3HuVPoDOa4xWjv00KQtwdwPMmChDkM8TOL7UJV4MlhPHaFye010ZOoDWEbRu1Ac18sGimMxFn92FpJYY5d/BGs3JaNBrTMICb2G0qTEFALYQuilbZjScArmp7XBvFwSOfY/cfCr21DrbM0iM0AmiqRl6+bqbV11gECb4sYysFfYZg9rhiErP8cfmT/h7JH3sOCuGBz99QUMGPMhzlLcnjX08hAx/aaICZ02A3Of+wi1GuhpUAQYN01G04ntsUUegvo0bhAP0Ymy8SdmJH0tfE3CRfR5mnWzMXSDrMxAFUVCSK3DGDE7AUaR9+TlmDorCcNv70xCIxLRzU5g69cJyDRqYDYkYMOMMFJbJKD02zDMKGHcRvIlGSDEUlznJMQ0jAYadcCA1mvx2ZYMGEw6hIbtxFMUdtQGcc1Tkn+kIJVM0SW+jSffNKGKSfLvv5AaqDVjG7YZxN3cDCx5/iVgWFd0oXLt0HcSMGtr4bFnX1COUTNQpH4UwWFHPnlN1AMtCYRu3aoh4V1nHkOMO7Fg1Ha0ubsbIimizn2fpnTewJJk5Y4yEjZ+AEMtygQds/fqjGF4CRs3A2Zyy/HZszED96LX7TRWe0FCuOZtHBOrNcjemMbxwI3xaEj2ueu5mPps3LnQVyS8jBsXY8SGGrinXyw0iXNRy9gdyyht5fJrHINm6AMRlTp5VxRxHTeJQkskYu1mESfVm42byK5zfuuJJ0JYdvXwawjVh1PzuyNctxDHQ4wg3QuJrlepSQCb+0STa4v3fvD1shCJBpyX7WtyjN3hU9ahOux7nM69NwEGo8idn+tOnEpl9J+bvsGoBTvpGtHAcCQBn2ySEKVxTn0bsBNHUkRdAja9MRpba4WSyKR4jgQovzhqpWhA46qD7rbVC5Fy6ewJ09hglyMD1OeeiNduwVB/12yThtTEBapQDFO+Ubr18g8JHJMepswsjFx+Dt8X+YU059IF6XMHHqIGrkQc4mJXP1cgJFJheZ/Ox5Pf/oWmg/6LttTwlNhhe2GHLN2ElrecwRGzAR8/cC1Cbh6PeYd1iAyj3qkUOBztcOdjdiSfDcXuV+5C6+Y+D62ReDFsnkzfb0Rs7EAMP1kV0dHpWNi3NepViUGfOcnUkLZD5weykJwVge3Pd0Hz+Laod+3jeDIxA5nWobjvnnDYSxL0oqPKvYiLiMDF0BV4svktqBV3K5revgO/VT3lt+N23zb1RIjdy7Y3ApI2FcvaxyA0qi2iY29Djd7PYOKPeWhdidIIjYB40UjQOCzIQo64e1kUmwNyv6GY3fZbjGwiwSSNhXnqM2iR+S1SDmdgwYvLgQZfoptUBaHqw24RxtEkTrxnsqz2WIx88TFgxkCYJQnmzXdgy4RkfL7vMCR11seNowCnTjbD4hY7lbAhTQZBPyMdM3s6kJcPdBm7DB02vYymIh5pJ5oviAT+zIXd3gXLDi3D7+pt5FCpHkY03IGlfYGc7CgM/mkLmoyLQoi2CkKkjvid4lzUG2gznuLb8KISn2mQGW8uiMO5N3/DESpz34bLkZuPDlPNmKekHYXxumVIXNgJebk2FPSchoMz9qOf7zGhQWziYYBc/7O9oqI07YJ7yMcjGkkY/Ll4GHA31t74mHKb1yz1xLwRHyJhQjTy8kQ6r1E6Ooyl8hD+mWcciE4ns6h1omQKOuEt8sHP5ANxrOkEK2Yfeg0dyL76r8hYO+xx561jEnSmbj9i9juPI9Lquf6WyirPw1ci/d6vYOT6HXg8xoa8RqNxdv0NGEdpi1vbIVI7fD9jPkY2pPN8649Hnh32zhgxIw4bx95G55BtW5piUec/cUrRZyS0fj+BFI+lMNbzZ4DzdJBO9vRrqJbyNPEGrJWHo0F2Fv5W6601N4DNccKuQPHnU/WODFwv3eGcIlLB41qxX7avKTr6XtejrEM1EvpSnImfdIK1+6N+rrtdOPiHSDsKg777ECPn9VTSDmlyDLdM/BNplCe58SBMGZGPGT2r0HkStt69HhNOvoufD9J5zQKUnxC8jQvr4Ih1JJYtHnkP2A4Ub8/hLJlc5vDKY2F9boCc/G4Br9nCO3gMU7GQLBaxuigwYt2P1WqlBjsbPTbWwtYB1LB7VHgjjTgf/EqLamLEfKWhC1a8y/1sRjp0YljsJhQfR1bG4ySEqZ2CxpiD/D/P++/EiF8cVdChVghsqpiSqLHOOn1cuWv9jVwT3WvoqJP+ZxTxGWq33rvd7uVT/0jQh1zAx//pjRf33YI3k2aht1admfTB+UaCKrhzMTDsS9eaWvWgRofQ9NUYMnAGPjst45qQFnhkZi9c7PUE5tz6NH7dOQTRSMHbHTph4jet8dZvX2BQPJ135G30azkNu2+drISpV2CHNlTG/qUvYuayXdh5yq689udk6kFnmiRYsJ4EZP9tqBXjXTkKTv+J5s9vxroxsWRsPnZOG4M33z+A3/MpAnMomt10H6a+8RhahVFjrk/DshJsaUA9Ver7IzHmfz/ikE1CWOi1uOfp5rjw4DwsufUJJUwk+SkhkE8ELsFbJvZ2w8TjtVFLzMbQoCTHVBe9/zMEL07pgRo+HWuxUFnpRRw23+UoLsSMvwaSWgeUiRehBMV6DH3hfk/EOssigySRd1VBij9CoImrq8gPErjsoXjpUlSQKFH3Az/qcfWQciufLi1nPD7HRDqF8YtlDIXH3HF6nCOuTbFL3E21eD2IJXyQgVXd2+HLO7/D16PqOdsACu8ZTtxud00Oeh1T8+7XLwoePqaBsjBZXF+uQYN3PrzTEX9EGg5X3L7+8ShXzzgFnse88faVyyYFj3IUeJWNJz559vINbXb6LNlFvM68a6gPcMUj7PSsG57nCpQ4XfXEnYdANpcQfzH10tcOd910pVkmvvYpa4rMWW8CXXcB8ku4ysIrbQor03mSyx8By8+7Dir+pY+F9e7S7RF45ZE2X5+6zvM6xvxfe+cBGEW19fH/bM2m0FRQagod7OVTUHoLRewNOyhVqiiKvmcXpUgvKoj9ybMjvaOgz4KdFgKhCqi0kLZtvnNmZzezm93NJiSa4PnpkN2ZO3fOPffcc8+9c2dWqIRUroBXQ9FuAfnW+xXiLSi8+a2lMa4lC4W8vD/Y9cNBr5nKolLZ/qpgl4k54CXhHF9NQHLPN5H4wCxsfvoK5PB60ggEnJixQ/RDjoxfjO8PXPjhI3a8HJyEOvRAZ6A7v8I0DP98sVm7/c/BTYAIDtxIocOlPPi2N3tVXR7GTRn4qiE2WbSOl6+l58FOX6W/xjRRdcKUsbx+tDT0nZdPcA5CWcL61gPe3l/g44ENAh25IAiCIPiJ0L1XZCiwdfnek2vcgrs4+h5yPGgLMy3qfyfvXxnsxo5CsVgu3ps+Gn/ktsSYga30NaiR4ZmW4AfIDHDAR0EgHy/gvxxI0uf8QCBLgxz9eCB2oHOC0zCkL5eeBx0LbP5rUr5B+w1bYVBCefA+PQ/Oi7fCaohNFu01XIY8+FU+oWmi6oQpY3kD53Ia+uvPQShrit4aFwRBEAQjlTDg/SfCwbgd1/2Hn5h9G7ecZQj+BOEfDQ8wUtD/gIqfR6bI7K4gCIIQFgl4Kw0c9PpmDKVPFwQjvll1CXYFQRCESJRJwFsRFwFUFkR3giAIgiAI5UuZBLz8oE+RF/ULxcI6i/SQlCAIgiAIglA2nHK45aWgrU09FUuOKBL0lgDWFeuMdcc6FARBEARBEMqHU34tGeOwAnN/MGH9XkV78bf+piYhAqxwntnlYLfvBV7+JUdBEARBEAShnChBwJtNAe85YQNehl8IH/puXCE6PLMrz9kIgiAIgiCULzEHvB5nDjovqYVVEQJeQRAEQRAEQaiIxDQnq2g/FaWA3+se9nf9BUEQBEEQBKGCUmzAy8EubyazBem1vfhij6L9nLAgCIIgCIIgVAaKXdKgqvwWAS9cTif2ZXvQ/IPq+LiLB1fWV+WVWoIgCIIgCEKFp9iAl+GA1+PxwOt2Ym+2ite2VsWSAyY4KOCVNzIIgiAIgiAIFZmYAl6e5eWNg16P20073PB6+Mk13s+LeiXsFQRBEARBEComMQW8jD/o9S9x8H8WBEEQBEEQhIpMzAGvH3+QK8GuIAiCIAiCUBkoccArCIIgCIIgCJUJec+CIAiCIAiCcFojAa8gCIIgCIJwWiMBryAIgiAIgnBaIwGvIAiCIAiCcFojAa8gCIIgCIJwWiMBryAIgiAIgnBaIwGvIAiCIAiCcFojAa8gCIIgCIJwWiO/tCYIgiAIgiCc1sQc8HKA69+8Xm/gsyAIgiAIgiBUZGIKeP3BrcfjgcftgeKloNfj5QMS9AqCIAiCIAgVmpgCXp7R5WDX6/JgV96fGP/nerx5crcW8ELREwmCIAiCIAhCBaTYgJdncDngdTldyMr9E+dtH4c3G96NTtWbwW6ycgpfQkEQBEEQBEGogMQU8Lrdbnidbgza/zG6VG+MHmecC6fXracQBEEQBEEQhIpLsa8l86/f5TW7vIyBZ3Yl2BUEQRAEQRAqCzG9h1d7ME3ffMsYBEEQBEEQBKFyUOySBm39rssFT54T1XZOx5ELRoWd4bUoZpgUeYKtJHhpAOFWPfo3QRAEQRAEoTwok4A3zmzF1L1rsOToVhTQMUVe3RAVlf6zmyxIr94UQ+u1R77HpR8RBEEQBEEQyppTDnh5Znfm/nWYevgbXGStCrMiv1YcCx7Vi02u4xha81IMqtNWZnoFQRAEQRDKiVOOTnkZA8/sSrBbMlhXrDPWnSwFEQRBEARBKD/KJELlZQwS7JYc1hnrThAEQRAEQSg/yiRKlTW7pUd0JwiCIAiCUL7ItKwgCIIgCIJwWiMBryAIgiAIgnBaIwGvIAiCIAiCcFpTYQPePHe2/qkoS/S/ATzH9A+FZEV6t21I2j+9bmzTPwMnkOt16p/DU+Tawl+C2WqDzRZus8JyKlZstlIeFpj1r38vZlipTNZSCKNYfOUovxXhpZStTPRrgoWvfUoV/TdQbrZVejspV7TyRm+PWjuucIKXIyYL1ZWuE+PnIpSFjfvy8NcB6/q0U3VUHZYlvjbGfUyl8ztCRCpkTXKwm95kJBZfPCzMdhs+oDSBwNO5D6jZB2+HpNvcsoN2OChA9ewukvZ/F/TGHe58SsfB7iV49oLRQfkEbyHXrgD4AkFyAP5IR3MIvobq28o/mPMHo+XlGDj/9Q80Rw1LK9r4r39rRFtPvJxRSgfIHfTyxymPf2H93x70soNdjzGWeIxZXrKOioPd/VNuRI0L5mN/uQS9pZStTPTLnXgWXrsgHp2nZFWezqfcbKv0dlKumG1wrH6Cyts1YnvU2vHAeNQYuP6fEfSyL858Hd0sN2H+Lgccu/TPmaH6KQsbpzwc+/BWq6pUBzfinYNV8fWQeDzwWQWykVPFqM8iOgzlVAaFZtgcG/C45TzSZTwuH79Tgt7ThApZiyq8/MsM+rdQzsJ1euB50P0bkPoQFic3RHXfwULiLwoJUCmt+XZMC01rbYgnLroeT3vi4OTfQIv+MxyUouJgtnuxtG8zapR34o0D5ADM7BDewLWWtmjauBvObdyRjj1ZrsGc2erE+gd70nWuQp+Xyy8gscRVAUZNQLa6FUfcm/Utg7bPcH8jF9xkMpUfM+JxAeIt+tcSYLJXA2rbyrFBl1I2i4P+caAURar8lFvZS28n5QMFW+btmJL+DSZuX41BjU+X9lgGmGxIpNoq3i+aYK99Ac6yl7IFm80wfTgZw5svRr46Ej8nK+gx52HcdJ0X3n/cbxqd2qBQobrKmvAyZnYZg5/VAnw9OhUuMejTggoZ8Bo5cuhDdFz6lL59iM8LeG88ap0BnE0jvWm1zgqT7kvs0PaehfZpTQC3m7Z4oG5dpPHu418Gp7Oeg/Y1bfhK+RkPrx2jH/Nf6yQ+/8mf72u4wWZGd979d8Oj3V/fxswFtYG+d+LmZG/IGMGB/Q124dzU0yjY8LjJ8bjgdDoNm9656re6rFa+rarPbvs9XZFby75bf1bFA2f68xREP492Tje4X/DPVvu26LMIvmUE/rTGmVVf/oFj0TyuJhunI9mp0woidLY+KB/DNajM5hA5y102rVMpzCfmTiWoTCH6DTmmzdCQ8bqdKbjvZzfWjUqBy2ui/RHqOSyxyhldL0F2YTim7SdZIpaJUMx0Xf14UOATtX5DKIu60NtIoQjBs2DBtl9oM74yFmZaZPkMB1togmHqCvRrSO3I/0527Xq06fmavE60e8WNk6+0g9Pli8Ii6TUqenu2GGw86NSIetXbvd929P3B5Y7Q5iP5EH/iQP34ttAAV3E74WrYF6vUj0hHRp/lu6bNHHJnphjbKKI3D/nFni/hyLwrkeu5EhNVF/m1p9HORf2Cfg6dFZRnSJYhRE4b0bdEqBejrBGvWUx5Nbzk/406VHzX89uXlr+md4VM0k4DjQuQ6KD69GcVdA1DPWv7C/PR/sbbgXNTkAovhQ9UWVHrtxS6Ev4WgltlRcTigP2sqvrmgP9HybRf4jUEsGd8vwUJ9c+Eo85ZiD/nWQz6aQuO0KHq1S7CBxYLvlMo6D1xVNuHqlfg5Qs5vw0YpAWyU3DlARPSTQ5Uq1WP8rDBfaZdv5YCJaEqVtesQfsT0d3pqRCzvCZqSF/9ZwG+zE/AC8O6Io46EJUdQtqd+Mj9OXZkjsaDu1sgX08fDDkEY8DAjZRaaVBjpE7Lwo7YkCaQVm/Q7MjMSiI6Tl5GzvUr/HcQBSTGkbDuJNg5GIMJq9VUuobPM9hBDoQ2FoYdVubr6Gnpj3Fj+8G31OE81Bi+EQkOO2yLH9Fmujc4uMMiWeL24o3L4nHV1H1IWPU4kpRHsJYdXlw8Ng6rQmn9yyXuxFu748J2gIo9Hodn9tHTNUaNq97GYYeNykUBmXZrsY6eD/0dRnLEhXHg5JTj1zxFaRrQVg9VRn+DanX1tesmKxx73sbVFr88XJ4NiLdzPvo1rqLr0vWrK3fhjWOJqK1fwlTestEQKs6xEY/x+Vo+VfDYmgTEWfXDkTDZEB8oE8t2B97aEw8b61cv77UsL18zfTzG9WqJ7lP2wOHYjVfOtaDt5H10/pvh6zlcGWKWM7peLI4Eg13ox9iWyP7XD6yFGmMn4FlNT7rN7HGATNxHQhX8Pvs2VNOOtcT1M/fBwQWOWr8hlKguGuDxcGXU20jh7WDupAtnwewOo+3T31Zv4xAHC1oZC5chcAcetHxGk+1JOqc+qiqNUNXkK2Mc+Q5r5nyqq/F4/pGWdDweD60iPQ6xIPG+tVpewXptorfXYobn7FO0pSLj8cG8vvSX9Wooc0S9UiBmy8K8S5vh2bEv0n4q092rybaSim/zfM1IPmTCTljtDl0HXD+cj66DwDoz6q8s5Pd2zEVH5Vq8uoODMKO910eVLv/FkeonfJMTxdhGJHtkO7Ys/zftIxuhukhSmuIaTQ4uTIx2ohG53UT0e4Z6eX/uXfrxRnh6Q1V8M4x0reXTHI+vdlBwr1/GT6xtgW3Yr8OseDjId9ewTMA4zb74PNb7ASQ5dmJmzSF46fIUvNfJiiELuc8J9T19fL5HuytqtNNGGDrwFrQc/Cdar+iIBOVBrCF9J4Wt33B6jaQrui61KZ8fFv4ujM26QlLjjHTDGtp0XGmjnQX7sPxADtpZE7Q0R1wUxtaIgzvPBa/TCY+nFfKzt2KzNkOragHqYXI4Jw/79wFptTi/B7G820AMPovysXihqpTW7aY8XHxaMG4P7a8YwS55F1gPvI95r6qo0rsPerd0F95C5KCX5Hd5fDOWRTHDbvkdax8ehDYtOqNFo65o3KIX7nl4NQ6ZKYDlJJR/3InvMOPm23GuhZdMkCM4szPObdyNPsdj+GLqIOP0dbV1u6FFWkekVTkfPSbtKhz5ag6Q1/RdhCc++AWzbupJA+YuaJLSETc+/R1c9hIGveZqwMROmhP3ORbefJ2WjaMLCqZq1NqC8bl3UfC9G9nbH0HnGV0x6jMK7q9JxwP4DKuWWMi30nW3fYEPN/VCv96NaFDDJXZoHZDl48HovWgafla34YS6B4tHb8fwl1bBFDqjRmnty8bi3OHN8Ald66S6ApNtL+LcweuoA7Vh9/iHMPyqD5GnbsdxdSMmLeqKez+mOgvKhgOOtRjd7b94YOkByuMAfq79E548aqdGSTJbMjC1cX80W5JHsmxD9s6x6DJjGl7e6pvh3PvSWAy3/4tk5evfhdzHNpNYpFFy4OUum2035l18O355aSPpOoN0PR0bu3XBvEx7+NkxDQpw7OswuvFTuHBpHuWZhZ8nWzC88WNYb+fBSxbm3j0e1qkrKM/fkD0yH+OXVMXZcZyh73Zvns1BxbOHr+dFoWXgoCQ2ORWLOaJebHY79r10LXpvmk66pjzo2EubbkSHl3ZTO1JgqXoekl78HnW3s56ysHDUDgy/61XspjxJU5T7S3g75ymfrMv7YO3wUXh1m5UCwsj1G6zDWOqiL7ZO5TLuQPbSfpjZrTteC1cX+u11bYCh4VsaYUkg+186Gr23voqtmu3n4ZPz+qP10xmwcBkTzwMSC5VbuHyGbNG8HPd1+wGTqPzHSXc5q+6gMs7HKgqozSY7quJd/FRvEcmWhwndyD9bfXkpVI+aXn+eSXrdQeV6FUNmDEa3yazXUMFDsCQCdT9A/5/upnz3GMocF0WvZH8mE+Lq1MGk72prt6qPvtkFno8GFN/mPdQ3RPIh1zWjQf/SyDrQs2BMFgr2Nf1THRex9xz8+72qsPBEgzla2zfqTbfH1V2R9EwW4m0rI8hhgU1rC7HYib/d+NP62s3/ul2FGTvikbAivG+JYx/M9ZIwBwvI3k/S8Z9ndMbkDgoW9nQhh/JZOKoGZo57FVlBs9l0vSi+LpINcz9jJv+PhNn4oTbbF5VJa18jMHtzEww9PB0jvtqFm1e6ML0X9YQW9j1jcB75nhPqLip/E/I9Y33L/YLsdAemzvoPfplZExvqzMMv6mR09SzGvTHpNZyumpCu6Hrcpi55AOcOZF0FOSrhL6QYz1IBKdiCMavewVtxZMT+6JOcRJxx8a3qgcL3Qo0RlVoFSVV+xqBVQ/Df4/o+DV4TfB++qAksCR8hVjh4dvfX/7yLBYePYMDQ21DT5Y4xEGdntgevd7sRNy7ZC7dLhUlRcMJtQcaSe3HeLR/hTzuNeC0n8N6QEfj36gSM/HUzNdaf8f0TTbD/yO+4+z+/Y8bVLo7/A+xPrIrkFDuqh64/4zWMzdKw4dlReO2HE6CM8XutM3Fo2hN44yfuEPV0scBv1xi1kmQxruHNxZH5HeB0+aL93EMNMWNYOxQU5MHZsB5aUGfuoIGMV+2AjkNcmLZsDXUm1PFl7cIXgwaBb786PboQfEuw1zRkZ92LutzBYRsyfyT544s6JzN1WKuXfAqMaId2bgrenA1wz2N9gJnrQF0lHSfbmzgVczLIANVk9M1y4ZVeThqE6BkwVHjT4vWYg9vQuWsB8vLyUWfEvRiWY9NWinucqRisujGJggQ3G3JGJpYjCXa6ttmUiTWLdqHr9a1R15WLHFc73D+9Pvbmq9TBmstVNicF+6aMz/HZpkF4dHgjGly64GnUH+MePIBPF2dSU4xQqZSnWcvzHnTx5znsfozAQqxYQnWygwKIjRfgmi7JVH+5KOh2N2akK6AihaBGqGf9sB+SQ9lWAjnD6oUGv2omVn+SgZHP90cKaCCJRhjw/Ah888nnyCJdmzzZyB41BP3S8qkenKif0hJIIh1pmZJSc+7HyFHJyC/Ih7NBA3Si7tpq8sIdsX61Ewspti448Loc1/n11vUu0tvvWLg4I3JdhEGFDVhNOl/G57jQ9hUX9o/ltYvRPIuXBtcdMUddhL4NKZilcmRu2UHlpyBKT1GAC3F1OstWYPAZbKVsw/vQ9Sa/DbdF/5mXY8Mn67GL605PGR6SaV8LTNdsIIfKfAemd+Eyb4fHnRZdr85cpF/Xhq5ZgIL8ghjbvAdedwQf0siJ/PzoOghFpcBX2R5q73dSGdjeyTZcKcW0fb/e8pCTVwd3/JKLPx+uj9y89uHloPNMWoAeg52w7oPS5iCn/u1Y4V6FgY09WL4ovG9ZSX2wyWDvec4C1KW2CfwL3dPJbrW20Qyw+9uGnxK0hSL4rjdsRIOQ9qXCTflxr+B1cZ4k26K1mNPlJQzr6iVfQPXZ9T7M6vIBlpHvsdq8QXbqIlm1ZQweN9lsAfIj2XgRvYboauECpM++j2TywEX12umhl+n7Wqwy+4bCwl9PsSb1dxO8NvcpNFr7IT5OrommXg/W5J3U0tSw10S+16191vAcRULNZmjBs8EBqKPMBerWaoSbNvbX8/Ov9Y1H86pNcCY1kooPj3o34tN5J1Cr1UBc3YEatDFYiQYHHesWYvjOGmgc/394esNybM5cgd+W9MGF3ovQ7OtPsHgXNWKyCsUcj7MT4uHwTaIT1Mkc24LsPF9w5CGn0GbaZhz9bRV+GXgmvt4W6XVuFHDm18AtcxZje+bHeP28bByt9icO/6YElqfETLg1vEGRGjkzvzK83IHpHynYaffAQ+gwZT3WKTasWzgOA7p3oHIYll9QwGPf+Tp6KS1Q3dIQVZWn8Gm1fJyhHy6EOgRlG7J+caBHw/rkWPkqFKBq1+UAyIl6I/+LnycrGN44GVVNnNct2lPagdvcBJc9c1sm0D0FyXQqS+v11EPDLk524zDZ4vD5kAaoojRHDSUFSRMP47YGJkrFStuDHauAFk0aUkBGZ9IAL7lxKuDmQGF7ucp21EbBys5dWN1sNe5SGqKapTmqkXzpExxYu3UXnRu+Ulmy4DxJMqpPL+zwxtkozwx8geZIbsJLc+gg36Ew1k8Q4es5CJJDydwTk5wq2VRkvexBVkYy/tNeQaJWFw3haP8ZsC6DQjZ9TM0doy6q6g2VxlNYDjqmSw2TPVL9BlN8XYTTG48tY3ftNho4uLo9g+ylD2Nat9qaTNWUZIxZEYdwKywKUWhMuwfzr2xCOmuO6nTOPcuT0CzoqWB+aCq0HllrwTas6YmVSGUqXnJO3wQNGtNAn+ufgtwGLfJhYv9mLV6vXg54+AO1+biY2jxJF8mH0ICgeB2EYKKAJ9NYb/4y5GrPYUQuQzi9ccBIPpm6rohyaEZEAXosdqK1m5C02l1D0pka2e8VBveF9s7l4u/+h+aKtg0f5hjbQnjCty8jWvEz9gM7xqOp0oTquhnV9dUYuDwOP23ZTglY+nB2ykSx8XB6Nehq986G+HJAQyQozVDD1AQJyVOxhAdVv5KOY2+eQhlS8dVuceCbMxLhqHOGtjU5uwpS86h125xQ9uz2BayJF+NIswu05BrGtzEc340b3E4akRa+6uzIFdfqa4I34P1DvqCZG+PJGJvY3wmvoTs87028uHUrug/rgxbk6cI103BwJ5/5yy/A0T/Q+K7b0a2mF3l5BVAb/R+uau5GNuVtcVKH6j0D6bdciezETExNTkUSOaILJx3DTc+sxoTbq9Do16cnDnqdtEWdBco+ht+vG4ExHeOR67aheg0vsl1mzVf8ZZDjdTdqjV5tF+PzteuxduaD6NKDRusG72gmD7TmpXFYO/pl5KiZOKa+g5HkdP8solzqnNQmSG6Zh0U79sCiFYQ6MO3JCA94yKRS51h32Dvgt0gc89/mvv0V7OKZHc6C05DK0pqkgUYYyOJZPDqimKkzW26DyktLtr+Cp2a0wSwKaI6rO5EzpxUO7+Z3S7Ou66NhR2Dz9kxNboW2XRwU8bIcNC5X2aqTM/ekpqDDlg54Xd2BY9pM+1acUL9B9pz2IQOQQliywjx9jkcxW+hvAUz5FOSnNsKV2IysbWQbfJCOmenapYYKoabVj13OSHpRUpHWKAu3rCH/oPruLBxTv0K2+iz5lEjLhqLD6znNWyPVbzDF10U4vYHaZBivQO3AQzlwYKhBCf0aVrij7vokjrp346iagZ9ntMfMbmOwioIBEzcUSuuLffl83VL4/M/mY/iGO7BY3U562Y3PR9TClj3FeaRCG/512w6K/zTBSXT6y8GCliYanJ4CCq3MpBFLJnb/GocvnHEwZbwak14Ztq9VMbV5IpIP4YFkSXXAgVmar952b6d2x2Uw70DWr/HYb06MUoZweqNyWG2wxVkjy6EZUUpsdqK1m5C0VEZ+qMtMQVs031IqaNBhirEtlBat+I3qAA1Ha0t2jrIv8H5PbfhHLBnJd1+i1FU0Gw+nV4OuGqTuwBWzd5BtbdH8xlH1f3TNBeh72rxVqPLhazEVHBc5G6+T19bS5rcU79lQrLMxaNdB7Wv1at0Ma30v8j3MhoP47w/rgTg7HEo+1hzaqz/I5k/7IMbUSqQ9J7H5j63IV6zaWRUXEyzWbfjk9R2o3XQwbrrero3sjfieCuUnuanRaXvoHP0pce5P0ho3AM6qiYzX38LSwyY4HHFQflyJj7ZYkJjrQFw16tBMv+LNZ9ci76r7sNR1kBrsDmTvXoC5Y1uhKjtELV9u2PzQGD+U5usAeakFP7Fe5GlUngHTXyHBPqLUUJmKPLRGW/FLonhGMBXtrz8P49v3xuZp96JD0NPLOiY78Msu7AQF/hmz8ch4G2ryej39sB8P2WOH9KuBl9ZiLQ3IEm278dozbwOD2qKL2YqVfeJRvf86kss3S5GW1gw4LwVpAd0RHrLp7m0wEAswZcpuxDkcsC1dhynI1mdLFJLia2ynER2HhSvGPYGVtRxUNyS3Nw3teyZj6ZA3sc4ajwRrFtZ+vA3VbAqVyVOustkoMPQ2ugo9L5qJ5yZnUH9gIftah4ep7TR9bkfkmUXK00N59sdrWL6M2iPZ3f4pL+Ml9ELndOowG16J61r9gI+XZ8Fuj4d9yTwMXqIiLlT5sUJ1pDaJTU4OGFaH1UsD8HPabXs3wqRH5mAX2Tyv9V432EqDwFnIokFC6R1opPrVD/spti5Ibxd9hQ/9elv2OuntLPTq3kifYdPh2bVm9XAuMvDZMk5L+SxZTfrPhpny3DehHWo0m499HAWRBlKbJAOXpFHpVdRPPheYuE6zpwTrLqz67xbN1nzw363YmWGi8mzHrLGfonZ9av9R642tlGy4R10sW7AB+zQbXoc5g75C695tkMJ1R3qO/FQ77U34Wi8Hl/lNDFl+Fp7vXZ8GdGpsevUTY5uP7kNKpgOFBkpq4ytx/WU/YMj0db4y7NiA/y5X0MDEd8qKafsBvdkRzw+wDY5HjXvWwmrnW5ph5CDZvU1itRNuN8Fp4x0b8YglHoMWmdG1V3jf0kmla+hZlJwY20KJ8AXhJn6DiqLC26Md+i8fgSnLTOQLqO/aMR9dyBcM/NSCOFtxkkeo3zB6DdJV75uwZMArWKn7jX1Trie/MRwryW/w8PGv+QENwUglVjd10JaLYds5GB31NzIEob16bD5uOsuB7jwDaakF06GHcVORtPzasam46pAV3YMWXUXwVn8jPCOW98E8PPzFETS752pcoQbPhmhPUE+9AzWqd0SztPGY0KAKajaYjTFpnVDX0hyPLqHRaud0POo+iW3Oz/Gv1l3QnI6dccOn2HdyBdy33obuNakRq9k4eaIKan83Ae2oQTdO64imqe1wTuO78dj7/JQ5BZ629XjU0gr16FjLWX+gdavG2D/rFjRt0AY1rnoD+2004tXlKgvc+Seo030w5KE13vghOnJq1FGcRC6cAYV46NsPyNUHBKrXgwZdWuH/QIFf5xQaYesJ3Xn0Tx4KyGG3HzYC7ZZMxLmKHYl3x2HcnFQcXrgNmdRzBZWFAo2Crs/i58lb0FtpgESlM4Y7H8LPM9oiN68And/bgsk/3KLJWl2pjeaD6uOTVzrAHTSr6IGroC1e2D4KruGdKe05SJpkw4OdTyCHZzwb98Mjgz14qUsjJJBjXnXzfIw49AY2bSVJPAWoO/y/+GTwq3T9hnT9HthzcS8c258PLw0uylO2bJcKj7MB7v3uLbQc0YqONUYVpR9mDV6GrY82LDpjpOuX50LdlOf47f/C992os1SSce5wNyZvfwZtCnh5SjL6zh8N11C+XhySlrfEu9fvRi4FfBxsFBz4AQ5nHgUd0eu5EC/ZTGxyemjUGEkvzrxc1B3xET65aAjZRRPKozZ6z3wYn6gDkUyBi/PkT+RCCnXnLTgGHHD62mWg7Dpen+wufrC2aeT6DQ6UYqmLuWg6lMvYEEndXsWgpYtxT1pByCwS6d/dAfdPTsHSB67RddwEszrsxtETeWjw0EZ80sFXxupKChI6/YLJ7/RDXaqbeiPuxiB8oNvTv2C/tQeOZbGtkf/peRcmt6bAjQbSCcpjiHt2GFrs+RpbN3ObCa0rUomuL9VNNsx6PXcQXZNtuB+mD56BpcMbUFs0w7boQdRIey3CD6mQvqsPwkV7ewSXOYWuFbHd0GmKz45+12f0+FZ4x1jbPBHWh8SoA7Y3L9mLTx9kmwUNcM//ZmDQtH6+Om28H5c9eBRHT5JeG/WN3vY1vT2Fc89oR/boQO8f5uDn+e3h7HxbeDl+pYAvZjvxtxt/Wm43t+BX8idzuufjZMfwviWfn6MItfeQ70Ftw4/XDW/MbYHwtyES2kM2FK59OamevGondB58DC91suLicRRJe9qT7xmHn8j3VCEbT2r8NKxUjllXu5Gf768XPR8iIGu0+i2i13C62ka6SqH97O8s5O8moxPFIybbagyytMXs0v5oklAqFKfTGZjYCYeXGqfL5YInz4lqO6fjyAWjyDAKexebyYLOP85ATTONlMsKGoHl/LkTFlc1rLY60OMMOxleBDFp5GTO/xl5x84pnKEiVpvM6FW3GslteKCLZDUX/BKS1oLV1aqjh52MO2Dw1NAsx3HsUA7ivFWwumoSuttp5BtVU6XjMDmwFecPDtJpeBRY4o7hv9ffimc2XoJxmS+gm7kg6N27/oD3oicPoc5ZwdOex3fuQZ+Fm/FcVxXmY19jysDp+M+Ph3CM+g57Yk1c1XcUnh5yAQUVLij2RPw2tz/On5SJxk4PcujaHhqRHqxmQ+NN2bjr+9UYfP4qPGwai7dTq6Cqfg0NcnL769yDTRvvRcpnj6N6r8+AARNwZFobLQ9+s8P1s4H+LEuXkIelouB7BZr+JQTVQ/moPPuraOsxfQ6cR9CkAz7mvwbVf3AagmeSzBw4UEimHffP7vBsigKzSaUAJfxDgaxvq8kvFD/A409ngoU66kI/Rnlx/vq3IIKuybOs9EmX2VhmlRfc8eyboTxBx8k4FaVQ1vKWza9f/xVIwPDLGYz65e8heXqN9RVno9bo0fRuMe/FG116YeuIH/BkRxdUGuxpt935PbzF1XMQMcpZjF6C7a/wmLafPvnz9Oldr4ewZS+Uvbj6DaIEdaG1h3B5EEF2wbNyCuWppw8uY0jdBPKn/bTPFGgXRr3RMXJICmWilZFqM7S9heor6JqBuqE8HQfw1n3L0HpWX9Q3PpTLOl39HGqkAwvVf+MqGuBx1sYyR9arT1bNjvwCBem1+DYfWoc+YtRBEX0Y9cr9C+Wg+mSLbhsm2Bz7MLfmPDQ//CLaeHKRW1xdFLke5xvZToqkNegsom8JtfeQ70Ftg48biF5eA0b9U3AcS/sKyB5U16H7jXoKlbWEeo2oKzo36BxT0DWF8qdiBrwMGby2VoyMP2Kw64ecNr8qJgge5YVbW1okLXUe1KqKBrMc9JIRk9GHP142xBzwkvNwfDkNad0WoOrwCdj09CXI099OYCS4gQUTcHCkA4uV9FvYRKmR8gwQOV2qT9u3L6HGlcvRqPftWPDx3UgmGzB5j+KDQX3w+NIduGXONjza0eeUwl9Jd4Kaw6MUhiAj4ISiOlvhnwU7/9UYapmFi7cvRN9G1MUs+zeSun2LSVs+xp0p0in8o+AAZNtMDPisG+aMTobTWPmGgPcT9yNo5Q92/mGYrfFIsHyOUcoHaOt+ER3/oXoQhJIQEiVWIDjQpUZcbLDL8EwFpzVukR6kKpI2UjBLQaD2Tt7yC3ZLgtmUgwXTn8Mf+c0watAVgRFkKDxi1N5eEGYLBJikA7fTmM6l5acVkyNY7dcqnMhPsgG5tEtR4P7zO2xasQf7vQPRqbOXqsdDQW1w/oWbPoL36NcwRLbag260T4JdoRAabHm74qHJ8RjJb0lQGgduud7Lv6gkwe4/C54hazIIs0ODXT+ht87/YfCkwZq7bYhX7saswb2QTh2UuFNBKJ6KO8P7DyH2JQ0+R2fmBfj8bsFyDMJNNjP2vPMsnp6yDp98d4D2cKfTBD0H98HI527F+bZ8uCrAIEA4vQi9OyF3AYSwhN46/wcSWAIQcYmOIAihSMD7N1OSgPevhN+4YKbgozD8IN+qeuHhWW8JdgVBEARBqESUyZIGfoRCKB0VVXe8uD50yYKL3/krVS0IgiAIQiWjTAJeu8kCjyoL7UoK64x1JwiCIAiCIJQfpxzwelUV6dWbYpPruAS9JYB1xTpj3bEOBUEQBEEQhPLhlNfwMnFmK6buXYMlR7eigI4Fr/wUQuFlDDyzy8Hu0Hrtke8pu59RFARBEARBEIIpk4CXsShmmIr8LIoQDZ7ZdavyhK0gCIIgCEJ5EnPA6813oeqOaThy4YMU8MqMpCAIgiAIglA5iGkNL//wgPaj1rQVSLArCIIgCIIgVCKKDXg52OXNZDbhjsQGWHl0i/buXUEQBEEQBEGoDBS7pEFVVd+yBqcLWbl/4rzt4/Bmw7vRqXoz2E1WTuFLKAiCIAiCIAgVkGIDXoYDXo/HA6/Lg115f2L8n+vx5sndHA1TDnoiQRAEQRAEQaiAxBTw8iwvbxz0etweKF4VXo9XC3h5vyAIgiAIgiBUVGIKeBl/0Msbz/j6PwuCIAiCIAhCRSbmgNePP8iVYFcQBEEQBEGoDJQ44BUEQRAEQRCEykRM7+EVBEEQBEEQhMqKBLyCIAiCIAjCaY0EvIIgCIIgCMJpjQS8giAIgiAIwmmNBLyCIAiCIAjCaY0EvIIgCIIgCMJpjQS8giAIgiAIwmmNBLyCIAiCIAjCaY380pogCIIgCIJwWhNzwMsBrn/zer2Bz4IgCIIgCIJQkYkp4PUHtx6PBx63m3a44fXQX/B+L/1VtHSCIAiCIAiCUNGIKeDlGV0Odr1uJ/Zmq3hta1UsOWCCwyShriAIgiAIglCxKTbg9S9hcDmd2JftQfMPquPjLh5cWV+FTR55EwRBEARBECo4MQW8brcbHlc+nv62GlrXUdEhWUUBr2gQBEEQBEEQhApOsXO0/vW7vGaXlzHwzK4Eu4IgCIIgCEJlIaZFCRzw8gNqvGZXljEIgiAIgiAIlYlilzRo63ddLrgLstF16TlYeb077AyvlQJhkwTDJYJUCxe/5EIQBEEQBEEoN0oQ8J6kgPfssAGvwwrM/cGE9XsVOCmAkzc3RIcVzjPlbeqp6HuBF3ku335BEARBEASh7DnlgJdndl//2YSnaUuvocIis7wx4aaBwZIjCh4/14u7aJOZXkEQBEEQhPLhlMNTXsbAM7sS7JYM1hXrjHUnS0EEQRAEQRDKjzIJtXgZgwS7JYd1xroTBEEQBEEQyo8yCVNlzW7pEd0JgiAIgiCULzIvKwiCIAiCIJzWSMArCIIgCIIgnNZIwCsIgiAIgiCc1lTKgDfce2tf0//6iPqmNWzN8/3N1f9G4vNc/YPwt2O2WWALs5n14/9oLOWlCxOsdgvs/O7BSgbbSxxtZYsFVra7UmRrspI8pMvy02RJ6kovB22VsW5LR2ltuWzaQPnYoyAIJaFyeTs9AH2wl4J51wRvS2n/a9pxDnZNeCLkuHFb0g744ijQoV344/5t1aUVPehVYCFnzB3XX99vFXaa5R10cmexbmh1VLW3oI3/8qbQNhYbEkkOPd0/Eg52l48mXYzGujKtC+7od2FObQXnTtpVqQIjtpe1fRUk9V1RhkEG2/sqPEh2N2p5yYJeDnb3TWqFpNqzsK9cgt6S1BXJHr8WY+21tTZ0wYs7/gFBb2ltuWzaQPnYoyAIJaXyeDoOPJsoeIkC0YvjfLuMdKX93zbhoJeL5Ea0t32pHi/yKS720t9o8E//FuifKx4U7DpULL63KnVc1+G1A39l0Ovr/MfYU+naY8o40AqPxUpXGPky8rxHcbzgKE56VSwc9jZ6/d+r2FsuQUQlwhJP/8RTrZQ1JsS1rI00xz9auwbMSEBzJJRC0WZHbaBlXLm3k+Iw0egw64VxmNF1HDarKn56qCEK/hG/elNaW5Y2IAinC5WmFedRJzO4BVCVv/xxErfM269vJ5GlpQAuTlXQzmxczuDCZ4F0hdv5y1R0O0fB6mW/BfZN2+3Rzji2+2hgX8oGBV2TtN0VD5MZll/mYuqHFOXf2x99kn2/3vbXYUZ8ajIappZHoBUBpxtuF/2hv3k0EunY8z7g653YTlWumHwzzoVBv+97YEJFv+3v34IGB/q5RY/5bmcaz4sYsITkEXkmJzjP0HQ8GxTumP+WaHg5fSiU3H8saDYqZtmIQFoT5WEt4iAiyRdEaesidGlGaD4RyxGsU57x7/SmCuebnZFPtqKlsBrOK8kAKSAr6ZYHXUai6rVQJlJjkfeUxy5PLDbohasgDUN+V7F9TBoKPHSOIT1vftlMVA57UnWgRRpSqd04tWA3uBx6UqKorQbs0LCfPFHQ+YXyRZc9og6i6jVGG2QC+ZyCLRchkq6YouXlcqlkg0Z7jKUtC4JQ9lSOZpYLONJUNOSZ3bw8PPehCSfq1kGVc+qganUvHlufh2O0f9x/c6AmGN9sa4K5Rm3Eh2x7Ei1wF6hIqunLQ0msA6tZP89cBbvoO+/vd5YKjy8OrnCYqeP68r3X8b+CRIwf2hV2cqT+UN9EnbQ9xPEG345TYObORk/Dae30t1BzPsfNztpiSKd9D7UYD12VnL4xL78qi3QO+nGbpZRvH6bzLRQ8cD4OO7D6g8eA/p2RTjKZMl9GJ3s3vJrJnQdf13D7Oc6ChDWPardwfVsvvL6HZOGyUNr4PfPQPeRYnIk6ycR9eP1K3sdLKGrSNhYb4oM7bQ3KwxHIg9PWRtKItUik6wYTmqeCpGHrUIXyZKxklxuGhRyjfdxBardEH3sOTwfkvK6wDEyVajg8+3okasdqotfMvfSZFROrbISetpd+DUeXt3C0loerVyNYPgfl45MvCNZ9aeqC7cO4NCM0H7LpSOXg286zGil46rGntTyThq7DxgcU2O7w3UI2OSw4NLOXdkw73nYefie5Q025CHTNhDVjA+fFj/4fatQ76jsWVa96Pbf1nVfFfCvmnThTayfaqTHLE6sNcnvNxPSzFDSesAcJe+aim/12PPvYrfo1WLZ1qErXyHqmNZo+8Cdar7ySbPwBrCL9JCSuwyOBcih4dA3toyAxnF6/HkV/x76LdztyepbnSXybuFE/n+/4+OWLLnsRHVyp6yCqXmO0QUbPJzZbpuvrbS06JsSF1ZXvmLHOq9pvxTOP346kRrNwkPJdc4fPHhPoc7FtWRCEcqHyNLEkVZvdPfa7grFV43FOrgr3URUuJQm2390Y/L4bW2vGY51vQkfHjHTDmlz/9m1DVVvvq1KwxoEv/zXi1fdX1GCXnbll/3/x6lwK/nr2xTXnAv67kiYKKA9+9hT6tG6DBk1ao0mz1kg+IxU9pu7Ug14F1gQVP814AL3O/T+kNmmF+ud2wG1jluE4dUIm+o87updbkFO+ej42/nc0erf4P6Q0/j/UazUYH2VxEOO7Fjxe7Li8CdR3RqNTI0rT8BI06f4ivnVSp6b4Ap0xvO6WZGA5Gje5HJe1uhNPLjlGnUQJg15bE2DSlXCYuKOpjkSTgp673kHm7PZwOum4yYYkJID6aZ3C289mZSWGdN+B2Zkqcrwq8hY1xbBmE5CpBfNrMKpZX1y0WEWuSscWN6djg7A8zoTdjzbAsMZrtGUUOer3mNVjAZ54IZOCbmOzIX1Zt+NFyqP5IsqD0uZmjEfXmeMwYwt1rIakJvqy69k+GHbll3CpnGcWJsxuh2s+AOJI9/tfvAq9Pn8Zm+lYLh2b9Hk7tHgxCw7qUK01L4d1/Feou4VkJDkXjdyKYTfNxi4aANDwhXIfiTdzJvnKsHQI1o28DzO3mhBvj002rRz2LLzSdyxsk7N8+Qw/iX+9dxbiTSqp1+ST75t5mnx56lIMmXkr2k/aBUdwRqWsC56hDlmaYcgnuo5NSGx6PiZ+WVu7TZ8/uy1cOAOoRoqjzOxLx6D5yAuwkMtEen3J3RdNB64hvUYLcMh+rWswsvvLGEq2wTrffM7X+PfxeE3b0eSxU+Sy98W+GOZlXfG5/ZHz+E+oHU8FoUvaYpSH7SUzJhtkfLfeHXEOmC12nHH2z3gxt78md+6WF9B5ZjsM+RRo/PgGbJ1eExvqvImt6jR0N2dhzsWdsUWrc6rXxY9hRvd2eHkH2UM4vdrIDie8idyX6bv6DWb0WowuymdI5+Pq62SFn+KliTtgS4giO9m6sU5yyQ4+I1027b4M8fE7o+hVbyPF2mCMthyurRXRqx8z5bkHr4bVFZUnTJ3nvrgTtc+PJ2mo2qvp9khEbssxDMIEQSg1lad96TFptUQbLiInofKa3kv1IPb6JLx9RxLm0+elxbyhgW//qZV8yRrFu/j1vflYcPggRgzpg1oF+uyumQLhdePQ4sa1+Ek1o16Sm8KH4MKabGZsfbIz2o3bjN/dKnVqCo55bMj8pBu6jdhAHZqJAigTHM3aA/sm4O4nNmC324wjcWegkesN3Dt+CfL4njFjtqPm7ufRb/QK7COhjlQ9B3X3P4NnZm/lybEieE12bHXvw8fX3YU5GdSBlMT6nNsopvsisIb3BA1KNnd5D2nKo1jv4O4oGgps2IQBU9ZpBu/sOh5O9UHUpwGNsmQ1ZuPf6NYFyD/pxsn2L1D+M9E+143aT1OH9EY7OF2cQya2LaqKc4LuIDB8O7khRpNNTu3qG3goO3ZgGQ3Pws7Y2KpT4P48BaP02d0AA+m8D3p7aeywE8sX78aoqfchheRyeRrggalPYcfiVdqSHZMzA66RD2FAQyC3AEhu0BI4w66Xm0448SRGj2qAfGoXBfWT0YlCRdZvzLJRcIOtq/HBxla4pnMDOHO9KEi/D9O7Kjjh5QHMbqxY8Sfa39Ee9Qu8JENbDJreARsXrEAmnRuuqOGJUBdUpmgtt7hyeAt+R6ebO/tk4wGQjpmOr/zsBWB4J3Sk/SfzG+D+Z54EZq+k86PYDdmvSbONwehCtpF3EqgzYgiGn7CztqPKYzbtJF3tR/tb/bpqh0FTk3HghFe7+7EqRnm8Ljfqx2SDoVCweLAJZj7QDgVkD86GDdCSBhwUZ9JgnszOla+96sZNnz1c55t64Xp/nXfrj5nph/Heol0wmc1F9arZ4aMYxHbobIDklExql+noRMfyXfWRmk6yWek8pzei7JRtUJ3k5LjRigLo7I+74uTJ5GL0GoMNxmDLkdrargi2fMDsgLptTURdWa3cPoLrfPD0VK3OixC1LQuCUF6Ea9sVD4Wc6DEvjvHneBV3UM+o3Vhk7x2EJyS8C7eG9wgu3a6gb4KepNLBgeJGfPzqcdRo9TCu7cgOWz/E/WDBce1jXPXzcMcj8/Hpj1/iYDZ1FCMbosBtgjlnMea+qiCt5nl4ZMXX2Ju5ATmLbkNTc3uYFizDV3RuoVHkI/XSIfhw20YUvNEVluwLkfLHIfxOR/xdbnXncZx7zyx8Sfn8/ngKvjnZDL/+/ptWZS5nR7zo+RW5dGwXbft3LMYbl3iQn7IVuymKU0pqfc7CNbzckdcZ/iBG4j9Ytphn3CKHSx5XR0xQ52Lw1G6+GWJLbdgGr0NSHJC55UegRxrSyHC0HNxuLX8PRexxy8ZSer4VqyBemYu9tx2nwNRf8kLMcSasHUxpLJy3AsdLB3B7srlIAKcFMA9+is2TFAxrpiDBSptyHV7ZaYJV2YVdGc3wdkc6X8unOqwd3wfWbdPWKGuqcnoC67RVfqIyCA88/rsbdMxvEmZHbLLxBZSdO/EFzkdaU87CS/I2QEqTnykgVej7TmSsVHBhs2R49BGjlwMnh7VEHXWkukgM8yCqkVjK4aUILlgrPHjbicwfaqNrWircutxujvQoog0zJgtA48AQ26CBsicFDbvmwUUXjVbnXnVXkK68tDOlCUU3BRxMZWFnrPKUwAaLQrZisIdgveiwUQXVOX2nBubKO07VWlirRfRqsEPtHApuffZGf/P+1D7x2qfwsvMsZmaROvFQm9PWt5ZAr0xYG4zBlqO1tXDaPWKxwpKVEUFXFi3PsLJFImpbFgShPChpyPH3EE8j4Uw3Mvi9uXFmDE9XUJ3vfv6YrQexhQ+uBRNuDe8Z6GCh7os9aCVEoSDp4Guv4oWMDeg99G60LDB0RtQxebo9hbUTW6BW1hd46LYb0fKsC2FPuRFjP/0T8XZKs+8Q9vA98uqTMTxVoUCrOhKaTMZaTza2HXIaAggvap9shbufuE3r8PMSq+MMUpqXIoFCo3HBc+w+jHr2CiQV8MMwZ2l7rRzt0v9WWy42zX0MN5/fBA6lKmymS3HnF2fgbLo+BxRliYeXoVC3x7NHGvQh0AmSwG5nW4xz5eG462jgFu+gRUDTc88HFlEHzJ2klpaXYlgQb83E9LHPoeeM75FLeeeoz6PLUUfRt3ZQetOWl/HvmTdjVsZR5FDagpltcTCrSEoNlQL2+iM+xvECVXvThHY789o5yLI0QVqjLeizSkWe2/8mih+Rp76IjnRO0EqdGFEpglI2xygb1bGamoor8SN2bqNi8UyXmYKzbefCpqj0PRWNOqn4fksWzPpIxWSlKDWPbED7ZoA68JLWxWCqizgzFZRSmvTEPMPIH0tUjiAoSEUq0i44gGWZO2HR5bZYOFcaPGnfwsP+Ia2ZzzZ2UnLN6k07sWOZQ7vDokSpc5OSoulq87Ys7Zps67u2/EoNhAPPZKTGJA8Ngswx2mBpYceh13nmVroii0OBndVRlaq1SK2WABqUm3dFkJ39FQ0iQnSgvafYQUF/DHot1gZjsOWUSG2NB7t6NkZqUHDrTm4UQVfuyO1DEIQKg69lVnSo80kwWzBtUx60Wd5q8C1luKka/nNvHdoSqRsh/nDj+nxjJBV+De+qrgqK7SsrJLw2LQOfvLEVtRo9g1uvs8PpNkbuKlS3FRcPn4Zl279DdvYKrJrQCa2r/IEPrhuJtw+Sj66RgKrHnEDBGMzcoSJbWwu3CQcyv0GedxzaBmZrGApcqBfWBgcq5e3bGQIF2RSncN+pUho/ihXYPfUOtLv/ZVj7rUOuehwnD36KGZcdxZHS6p4CUf9Da3Ya8OyfMgWTcAu6diMpGiXjPGzFwuW7YaNj9qXL6NhRKBRLWDKm4Wx7F8zdQZ85n6apaIEeaMpvtujaAQPwJJYup4ArwaI98NPOfgV1uDbYjwKfUafM/Zdp0RT0X6Jqs05F4dv065CRSRZHaZe9+ABWnp2gfTbCD5+tIPtLvHsdbFQO1mvD1JbAJWlIQV106t4AE4e+gl0sMx1fM0ihgcJL2EXjk9I31Nhk06asmnbADZd9iSEz15F+TbBlrMGCZSSviYIAtQE6dz4Da95cgz12Xhu8DjOHrEarmzrTgMgwg8gfmpWiLlJp+FQ/Fa0xDsupLhx03t7Fn2Klxa6XPcZyhMBvHuzU82Fg8kqsIj0mxu3Gy4/9GxjQCV35OM+i2sOsnWS7T++AgZiHiVN2Iy6RyrFsFSZTOTS5o8jj8aaiU3oalg6di9WarnZj+fvfUQYK6ZHfLhJFHi3vQhTr2THaYCnguqI6v/6ihfhgBdeViepqDgYtqYmbe6TAe4oPMUSSnbM11kl8vAWHZnRBkmUW9trtSIqi19hskD4VY8tdIrW1cLZA1PbkQWnSPqKuXC5uH3Ww5l2/bGswbchO1K4SLjdBEP4OKklrpGArzoq4PdkYPO8ovi7yC2m+pQvKR17cQR1TsXjZ6emfKxGKxYS892dg9Fe/o3nfG9FaNQanVJlWC/ZNvQZJVa9ASlprpJx/K65+ZQuy7b8hGw7EURCh1roGt9/qROah/+Hf3S5DU07H2zkt4Bi4CtbCJ41OCe6ST5zIpuDncuyd1wGN6BqJl9yOwd9VQQ2eaS4hbp5xmnS/7za4vTqqmBU0H+nClC3PoX2BGy5PBwya1BBLh12FeIU6rxXNMbvDb/idbMXd7AEcWXwJhmvLCKrT8Svx9aQZGNzYi/y89pi4ZS42dVcQT3nHN+uHKxZ/iUGN6+G+mY/SNe+ijpDyW34NVozcgY82boOiz+BokC15m92HsYPyMalbdcRR2pU3LcbIg2/iu22kB0NSDw0mui/eQzK308rBZWgypCEWvtFJWz9c56HPsfCq+9GcZ91NCnrNfhQL1RFI4fHJsT8BHqjoePIOAL/k++rfzQvacwtnCL1Oqu8cuCi52jw22Tj6ceUlo+//3sXg6d20Msc324fLR/2GbdmqtiZTk+/SezX5HEo3TB/0LtaMTEEeL7YMQG2rNHXR0Atno34YM8iOKd05fwWD467FSPcR5BdbDqrHXw4gM69QDpdfX6SUgm7jsHnSD+jFsijJGGGZi62z2tMAjwY5C+9Fkm1GmB+EIJsqaI8JW56Aa2SyrxyT7Rjd+TccoXKoUepc9bhRd+RCLBz0DF2Ty3Ip9l3RF9iaoy07cUaSxxmoQYLqw5OGwU/cW7wNavh0kJefR9fw1T9VmY6Hvm1Gjp690Xa4zvt9twLNhnMZSdbuz2Dw4rW4n+rDRYFjRL3qBH/3p3eR7CmRZacLG+skgdvyqEvI1geiQepdeDCKXmOzwRhtOVxbI19izCmoTAX1I+jKjYICL+o9NBdTTCwb1+s6XPZucxw44svPbdBTqA6D2rIgCOWG4nQ6o4Z+vP7J5XLBXXASXZeejZXXU+M2+GXqJ3D7p2acQSP1coccCT/IfWR3Fiz8BvUACXivQTXcTx2Ri2Qz2XOQ/9uxwgAghO+91dH27Hi49dlRhRxu9uH92q3HL9Va6FLTot0i/yv4k/zeW1d7gnQaHgXW+ON474bueGLj5ZiwfTK6m90wTvD6A97znzqEs2v6OkSXyYRzz++FB55/CF3qupHvMcEedxwrnnoY097/CT/nm2Hl6DT3GA72norsqR3hUTIxt217jPryIkz86WP0bUTHM15Br/PG4fMrxuDHdfchWV2Fh+33YTZuwkcF49CWvLp5+RhU7b0A6P8Ksqd1BHK+xLjbHsH8X5zIs5tx0eU34+rkLzD0mQ8x4BMnXuji5mW5McGzo3zjNxTVTYGJ3kNx+f2TX1x6D31WqJPUrmGxGN4aQPtpsBB44T4vY+Db1L5vZPRFz+E/fMOdrc7/blcjQfJRtiqdoPjzCYJn6U10ff0rwesX/Z1daDn9x3i/8draO0zpGk7uoHU5A/no5eHpeS5i7LIxvKTDoAvCqCtjXqyTcLpgSlsXxvxZR9py1WLL4dOpiXyVMZ9QfQXkob+a3rguEg/gtTs+RNu5Q9GA0vrONmCwDT5PO66Xozi9Bh0nCq8bSZ4wxGyDBh3we3gN9R+oU122INvhw6F1HihD8XoN/h6SvhjZjTpgjLYeq14536K68BNSLiKSrTHGdlhIqA4i6cqXH68W47fG8Duxf5t5K5psvh8nJ7cHh7f+sgfrzKeH4PoQBKE8qFwBr4ZCDoKchO5I/XgL+LESP5TG7nOGYSGv5g92/XDQa6ayqFS2vyrYZWIOeEk4x1cTkNzzTSQ+MAubn74COQVh3HNIJ8LQOAEeGgkU/jAFDRxsZq2jNa5TKOw8fE6eA45AQKl3/KQm3TEXOv5AR6F3cIF8FDNs/Pox/RosB9/G53OMHYUg/C2QTdu2jsMtn9yIBY+mIF8PhAShpHAQu/wGBc+1zcJXIxqQba3DQ8qt2DThCywdkhwIsgVB+PuohAHv6UVsAS8FqPYCfHhLAvp+eBtmZ72NW84qnNkUBKGUcNBr9uq/OCYIpYTsKG73PHRv3hef80MmyAcGLUXBjLY4cVJG9oJQEZCA92+mJEsaLHYzTMZZV0EQBKFiYFj+on2lLfJyC0EQ/moi3vUXKhr8629u7R2xEuwKgiBUMLzkm8k/s4/mTYJdQahYlEnAG3WKWIiK6E4QBEEQBKF8KZOAlx9UKnwgSogV1pn/KWZBEARBEAShfDjlcMtLQVubeiqWHFEk6C0BrCvWGeuOdSgIgiAIgiCUD6f80BrjsAJzfzBh/V5Fe9m5f9G+EB5WOM/scrDb9wIv/zKmIAiCIAiCUE6UIODNpoD3nLABL2OlAC703bhCdHhmVx5AEwRBEARBKF9iDng9zhx0XlILqyIEvIIgCIIgCIJQEYlpTlbhn8iCov32fOHvswuCIAiCIAhCxafYgJeDXd5MZgvSa3vxxR5F+7EJQRAEQRAEQagMFLukQVX5LQJeuJxO7Mv2oPkH1fFxFw+urK/KK7UEQRAEQRCECk+xAS/DAa/H44HX7cTebBWvba2KJQdMcFDAK29kEARBEARBECoyMQW8PMvLGwe9Hrebdrjh9fCTa7yfF/VK2CsIgiAIgiBUTGIKeBl/0Otf4uD/LAiCIAiCIAgVmZgDXj/+IFeCXUEQBEEQBKEyUOKAVxAEQRAEQRAqE/KeBUEQBEEQBOG0RgJeQRAEQRAE4bRGAl5BEARBEAThtEYCXkEQBEEQBOG0RgJeQRAEQRAE4bRGAl5BEARBEAThtEYCXkEQBEEQBOG0RgJeQRAEQRAE4bRGfmlNEARBEARBOK2JOeDlANe/eb3ewGdBEARBEARBqMjEFPD6g1uPxwO3xwu3F7RR0MvHvBL0CoIgCIIgCBWXmAJentHlYNfppsD3+DYkbhoJy651UBU9gSAIgiAIgiBUUIoNeP1LGJwuNzzHtqP6tIvhvm060PAGwBLHCfSUgiAIgiAIglDxiCngdbvdyHd5kbS2J5QGNwJNbgdceXzUl0gQBEEQBEEQKijFvpbMv36X1+zyMgZtZleCXUEQBEEQBKGSENN7eLWgl//yml1exiDBriAIgiAIglBJKHZJA6/fdblcOFngQc23qsF7/1F9hjcEs53CZ/kdixJBuoWnQP8iCIIgCIIglAdlE/Dak6BsfBjInEkBnL5PiI6ZtrRBUFu9ABRk+/YJgiAIgiAIZc6pB7xmO5SvHwc2UrBbpzlgsukHhKh4ncD+zUArCnove1pmegVBEARBEMqJU1+DwMsYeGZXgt2SwbpinbHuZCmIIAiCIAhCuVE2kRYvY5Bgt+SwzmQJiCAIgiAIQrkiU4uCIAiCIAjCaY0EvIIgCIIgCMJpjQS8giAIgiAIwmmNBLyCIAiCIAjCaU3lCnhP/qB/KErg3Won9DTO/SG/B1d4rm8/fXdGzo+J+r424e/BZIXFZqMtxHS1/bT9k4ZwFtaDBRb9a9lBebKOyz7jsqHU5TbBEhdH55bCSLRr8lY+Nmaxk1z2v1bhf8c1y4VTavultImSXLOcbefU8JffJ5tmE2ViEn+BXiNyCu08iLLKR6goVJ6apGBX6fk7zHd+H2Z7V/sdBy8Huxes9O3r8y5MgaCXA9s3YDKkhXMUTH1UQx6hmy9dxQ56lSBn9deiB0XlEnBFgJ3h7v/gCkdzXDFzf6Ej4v0738YFjrswfSd9ttJWITuXMoQ70RXPQHE8hxVlWgdcr19goONMDFxB16ho8VCpy82d115MsteAMnFvoe3EgsUBy5oX6JqX0XYjJu4oW9viIGPZnSTXnev/sgD077hmWWKy2ak+rTCFtv0S1UspbaIk1yxn2zk1qPyJBzHnqoYk25149VA1fP5ADXT75FSD3r9ArxE5hXYeRFnlI1QkKk8tUuTp8eqfi9CUHPe7sFS5gKJe7X8tvVt1GQqo+vYTbv5H9dJx7WtEOF3FVRAFu/EKPup3KTmr/ph14K90pL6gaIijHV17XBkHXJExUbCzZ8UXqDZqIM5Z/hX228yF9WOyoTriYaMgHJmn6jQrCdSZAtSh+r6VIWYk4iIkVtQ4qNTlNiGhVX20ii+JUVDHZ9mBSSOmotvUD6C6PsCohi64I/oiobzhYHfPxO5Q7K9jj8Oq7y0tpbGJWKngtsNR7XvPYUDtN6GqQ7CpYTzavDIaD91APZ/WSZ4KpdSr7sftFcJvl6dtCH8HlbImPZkPY+/Ulvr2MPJyee+Z8KRqh2PCnPgScmYpIXn8gbzl/nxvQr5dqbgKMpOz+vkdPP/B2cC9t+K+FDXKgKA8oKAo9WzUTy2PgCscFpjMazBhhAm3DLwcTZc9iPGLKeAtcnEzEO8ga0hEgp06Q206n/2onYJ0npGmjWeGfLspW/7Om2GmnGca/Gl5izYDFrhd6d8iWQzPGPA19HQheWq3EsMc89121vdrW9EgXrFQOQPHDQdLVQ5KY9WVFoAHOIZ8ImWj5WEY/GjXN+o0RB6SNaheosyiBPRjpdyLiOc/P0w+AR2wjgz1rhNJ74XQGTYHqiU3xvlNG9JXD+mH66QwbWC2kb/4dWDMN6hcRXXpLshH1/dyob7XgT77Io2I9spEKq9fx3bDuQE5dfvTbYkjmtBrFq+LCETTvxG/boxlM14mkr1q+wt1yrqxVUsD0pOQwLbQ6G784HkHQxpRMIngtGFtNZpNRJLBiJeuY7wmBWnh65y2ENvRgt2ga9BnvwAh5bTQgYBf8qf3z2obv+unFyd7kfp1O+HuPRPqB62B/Csw03McqmcsOlBHUhjvcn0Z8gynTz+B64drayXIx0gkXTFBeuCNy0fFym+AkSrZ9iMNuIi+/UE+lGTRsyhC1DKE0WE4tDyMcvMWzddF0U1Q2zKUP0JbCpLPkE9Uf/IPolKWWzGbULuaVd/IKej71RIEfF7XhahW+yLUq/Ur6sbnB/JgY6gXb6P9FiQVUBCp769oWGxx2LDgE3zjicfUIR1hcboDyy9MVjZqg+Frm7GqFfpODcDfMbIzoMZbmEJ3tKQLi9WQLo7+hgYbHroqB1x+h8KOR9GPhTZkfx7WQILY4Za+dC2mtW2Nbmnt0GVgfUxZtt4X+AdwIMG2CvemzcSq9gtwb9M2mLiNypBUBb/NuheK4xLaGkO56j0cruLQZowtS8dC6TkFY3s2oWM3YuLOeFj2v4fLOZ3jctpaQxn+JSzxxuvoWCjt2nGU5nw9bSu0mXWAyhnarEifVQ5hzlXN9XQtoQz7ChZ9CtWSVBVrhvFtRcOxJJKNnJd22/mxaXhEuwbL3x9z9tIgw18PVZLw28v99GP69ePo+ibS896SlINvu/I1zoXy0Pc4o542AiRIjsSvMJTl0vJpjKFrE0g2/bAf1qVxqQE7ff/tySySN4s/D8Wbr03Ur9MKnef9iT9fvoM+s+xtIuiOsk6sgjXDSS6+vu0yjN5QFfVpnOc7GKUOdB201vI/D0qXD3G0noNKpJ8apPdLST8+vRfC7WAnJtbshr5bG+KzLklQBnyFjSOoTvSlANyRBGYbE0kvmg6m4fFHOU+DPFwnkXRZher55ngoN6/25RlvtFfa2un2yiJFKi+3K9L3pY5hePyxwfq5XOdsZ3TduL2YYK+BRx6bTPvPhPIAlWNQ4TWL10UEYm0DAfuYirdeG0h/Wb7zMdxvS5HsNZFsZ+dbVK6pGKvplM559knUGXIQrX/pj5qNXse+Pe/gcvNtmJ7JdmZMeybuWkLXNZp8NJswkc+Lpc2wbWfMxwV8zV10zdXh6vwg1evuYNvps5bySjJcg2W439eeeRlWUDnPxKA1h/BKyxpIf/1jjNbSkzzpH+HPQ+/jPO17eygd3sPBRA6Co7f3SD6GjpBfZfmpfZkvpu0yQ/2F2quhvkKJ2tYi2H24fIyYSS/hdMWiBV2PbI98+OPXUN4T95Pe92KSQrb9/F76vF9bltDz8SnoqtloK9rGY00Cne+7SiFRyxCqwwhtJOD3YvV1UXQT1Lb4vH6+8nNfq7elN+fdrx+7BA9trI4vhpNv0vK5HMPXUFoqZFR/8g+jUpbZlPy8Ya3t87DG087cH1DwY/SH0IKhYNblhaeAgt+QpQ1eDnQrcLDLjQr7PsC01yjC73ojbj3PA68urMlhw4GFk9H7yhugNLsOCS2uh3JWe7SetkdvYBTsJprw3azHcdX5V2tplPNvxtUPr8ex+DjwIgHuHCfXpobTewHWvv8M2p9L6Zr2hnLFWLyzixqjP9jyeLHn8obwvvsU/q8JHW/cC/b0mfjSTR2HwsEuL3voAoVkYDnMza5BWuvheGTJCWq0JQt6LWYbVi39AHW7tkItZy7aDRmKdtM3YhUVqdBx5SHH2RHzMgeh45qbMG/reoxqQddZ9C/UHdkIqz0/QHXvwppmQ3DO/euof6Mz7WcCK55G/rAdUJ0fUPqteKLpEFzw2S5K+w3U7aPQZfYcTN9MegtqLRzULcctPX7EjM2bKe23UJffhM9Hvo0VrEM9FWOikXnW0wMxoPV8GpRROs8STJlzNa5aQHnEO7Dvxc7osOTf2Of5Tjs2bQnp+8U95AtNsNW5CpjwI+rxNbw/Yt2ILAzoMQ9Z1EH6mu8cvJwzVjumLrmRrj8WM7aS03Vk4InmMZbDuhZDenyMkYv4Gpuxr/bPeOS4jWyBdBe/B7MuHYjvJi4h2Ui+zU9iRY9rMGsHdQ5B+RChSw38y0w4IQU8dc/egTt//D+o6haS9SasHNwC17ifoe8/Yd+0C0n2d4rojs/D4n+hw+w7qP5YP+8hZeOHyNNsmQwxYh1QuRy7MavfNMRN/kgrlzosBw+/l4RqZmrwtnif3j9/ivS+ifKdghGzR+Pyl3br7YTxwp2filGHl2Jey71Ink46frkDCnAOcEZhR2eOp++tuO0QlgQahLyBr2q/R9ckeY11ksS6HIqfJhfqclWPrpi62YyzE+lczpMGq6albK9Nqbx0Pc9HmHGS7HUA2SvP3kQsL9UVddi1zs7AMzm30rV/ovxHoNPsmzF4IR2jOqjS8QKMW1+TynuUytGusBw23Qaj6iIcpOOI8oTUI8O6qbcQd/zYR6tzddHtmNLjBszeQeWKaK90Hg0qzrR+iG/rkU5dP2Hy2H9j//SzsaHlHBzO6Ie6LrY6v50Z0/6J19OdcAemK0mmiDZBOrLF2maIgG1TrbPdF6nzRzDjp7Rg23mnC3U7qzCk+Xi0WkTXoDa7b5IFA5o/i9U2tuU4g+xHMTPdTf65HZYO2IZ0TxbVy0SM+ek11LzTjcXe3VS/g9Fpw3N4YaGJgpoosscZ65fbEPkY8j/Ko1y/KyO3nwSDvXK5AvUV2vaL0Sv1JzH7kACkD9u68LrigK/I9fLxzJIquCaJrkfn+pYicIs0o8rV7bBofD7GeCgd+Y+56avR4Y415PuDvHSUMsTqL3SoHcbm6/w6DqcbDlZX4f4eezB/x1aqG+q7Pkuh8k9FJvt+zc+8iXns+7U822B8ZwcW9DhO37+jfqIapjxC/URcQhR/UqSFnvZENLdKRe5KHJrUGdQf/CMwUxDwy4L38d6RE3h8yI04s8DlW59M+01rp6PezV/iG2qjzZM8qBFYuezDbE/Ar0/dhkue347DFCTHm8hBeG3YtvAGnDfyK7i0RmBCYutOFFTPQ9envsV2N5lJXFVc4lmOPhOXIp9vK2uZ2eDYPRM9H96ADBM5l6pn4rzf5mPMrG3UcRc1LS8F6jvdB/D29aMxM4M7S/1AsdD1zKvxycw78J9H0jgOAZq1wV1dP8b7y6iz4dgvABXK6aZ/KVhxUU9IgffyDychfebdaM+jAgrS2z3+CtJf2YAVKo90OLOx6N2FRj55BXDnJOMJNRezu9C5XtLNjiwsRxK0Cbog3HA7O+A/nvcxKI3Sqgr2bc0EEsPMHBBq3FnAS7MxZyvl6a6PoZ7j+PxaJ11jJxYuOYYx8/qhjofy8aRiyLzHgCUb8Jtihjl/BzDiPgxqVEADMTfSklOAc+y+4IplP3E7nhpRHxTpA/XroiMSKE6m/XkxloMrYemXmIEb0Ksz6SC7AHWG3YHRJywoMJNit2zAgk33YPzIVNIr5dX0XswdeQjTFmX5zo0ZFTkHUzBveBtNz6hfh2S9CX3TGwAFTtRJo798O9qXOIDFbMGKTyYBw1qhvYvqJz8Zgx7siN/3cL1xXUeoAxPJtmUj3trYErd2Yv3kAel98GpXkN3TVUyZ+GxFPq64rxXq0ADK62yLUdMvxv/eWI8ssuXCktF1nAVwHj+Mo2RX1PPo+yPhq5N/DasXVCdWG12T5dl0MW5neXJz4K53C37NW4ihjT04YqfgkzH5y9u6sLzjx9K4hu2Vrh3V5nQdD6VBUk4+kFYHF6EZ/BOUat4RtLm9LZWX9K8vY+CAAMrOGHURSsnaAMuHvU0wl+U7mQt0u5Xq40/M+ozOcaWGtVe7ZmMq8l0tcXNX0ls+tQOS30Ny4rgL+dxmgghOWxjsEuyjItoEyZbfIMa2HwrZYZg6t5koT4/BdvgaWlu7DVf729oDd+NhLMWnS+h6Nm+Q7LyuwPPHTvSY3gcdnFSf7jpoeKkLbW5pg7oFdFyr37Mp6GbZI7V3Et5srN88uE+egyEFR6D+uw7cue2itx+/vbKuuvXBvHSur53BbT+KXn9QyD9v/aLEPkTl9hJJV8voettDr3cHycb1WDQ/nw5vQ3sqO1wpSEs9AFQLnZmNZhskS8z+gonR12k6juRf92gy2bAVd0+m4Jz9SpcnKJgdipR8Smf0/bmcZ13aNxY3dKXr5XM/QddIssNO/mRNRH9C6qez/kmEt7YKTvAa3pbYOetq1Gp2Eazka4IwOrvTBjMU00YsmJsNXHwXbunoDu6D82k/1WpC9WboP2Y8Nn7/MdQTX2DDyGQKAE1QTi7B9FcV1K/ZFM8s+xg5mYuhfno1Wlg6wb5gHdZRIyikAOddfAfWb6E089vAlF0fdf74A4d4NkmnNjmRVnc9hT0Zi+B6rB6+zTkH6w8fok6UAk7nVZjuWg0141Pk7FgIdft8LLjYi5zULGRlUR4xWh/PkO6Z+h6mVXkPVyoXQ3H8H+ngNtzzc23Mnj4f++h4eOgCylbsPNgJSwa1hGKl8+yXQmk4B0uwHVu3UBIzdVbkPDz8h7DEJ2DNwOZQbJfTdgGUKYdxZ7KJu+oQTLAk7sOcNpSfndJaz0ePlUloWEM/bIA76JRR72DfJIVG6OdTer51eA/m7OQZ0T3IzKiPGZ0S9GvSsU7LgHU7sZmEIjdMdcqBOn+gvPyCBiA9+5+C8RruSsRYDhMNeDI3/wz0aIAm1OF52ZF666NJVxf+sCUAu/ZgbfPP0VrTO+VlOh+tJ8Vhy/ZdpNuSug+W1V8QlpX1Xih7UXz1t/W7+ujQkBw4r1nykrEn10c6navy8Uh1oJB97dyNjWiKxk3oml46l4KqRg2/Rb5K57n3YNsqoE0zGkDwMXIWXg6iEqz6YOJUCFMnPLDcudMgDx9zURuhzitQaXzlbcHl5YNaXjRAjFbeAEYda7UZhDsoAmQoT8/uUuoi9jbgg+u4ERo2JhkC9bEJFh4cxxVnrwZbKZYIabU6iGQTdLxYGaIRoR0aoWIGtzWC6sNDYY0SuG1WVPajTv93ugYFz4E6NNZvxPZOZfaE2jrlk5/vW98ac/uhfW4XBe9/ILHIjGZkvWYp1YCsfSX2IWa6/m+/rg+rKzWOgtVdIW1Jk+0wpwqLUYeaCkKJahskY4n9hbEdRvB1mo73R9BNBtVbe0z3PINh04eRfVxG9Ur918DPYQossQm2Of7u7x58/QR7jGj+5J9HeGur4PAa3nq2Q6hXy65tqbWbQs2hyq5KBzP3U7UT8R1hbZOsOytyAO26+wwzdx8NuncbQrbKhclqx6H57+HpjF3oN+xmNC9gJ6BDjR7po/HthCY4O+s7DOvzAOqf3R1Kaj888slRWOJIA/v/wC6HFUr1t3FTWhNqcxSANZuPj9y52HmIR45+vKhx8kIMeuIGpHnzabRYFTVJsR4alRYajRuuY9fhiWcuRWJBASxJ5ClJ4dqsMWnYEpeH7+Y9h94XtqOGfCE12mtx04ZqaBBHDTHmCqDrWXdh8af/w/B3NkF1fgU1j7aC9VBX3oRWy1Zh0VZKxrMcRSCB1aZIPXsl0mf+AtX1P9+5rlVQPfPxQCPSnMfgrnipyOa5GD77cry2/TtK9z3UGf+H/VlGvejw4qiFb2LAhpvwhfotyfUjfhxaEzv2hJODoNF1neHz6fqU1q0vTeg4l4L1NDRutAeDV+YUls29kuR7HB3JMYWO4WJB5WUAMZbDS44yrfm5wKLd2E6VotWuQgHQMivOdOYAKfXRbvNV2KBSPixb3tck2xqor7QLPOwUQHOoJpj9KqV2Gr4ziBVf/TW9eA9W79hDOifZ2HAoCF9C11H4QpHqgGfvUxugFbYiYzvP0NC5lh3YvuMSxNFgDBYK6juCBnPU6fIx7hxs8UCOq7A9RcDjoY4uMO1HQV+Rhe1h4A4pNVWTZ/s2Sq+dTp2OjZcxaCkIvnITvby79WCA0mqzYG64o5W31JAuzBRUlEYXJW0DmtfNQIZWfrqOdScydlyETW47sCXGdncqaHUQ3iaO8Lq48paBVO1va9sUbbim6dBMrVz1B0elwG2O1t6pzOZQW6fL8vKYxLiY2k/AXi1W2KqeiZOB4FEnil6T1WM0QK0buw/R8dD1z2nRJqyulHzyiikhbUmTrSanKh1RynCq/iIimo7rRNaNi8rpvBKTC76h/o42bYnS1RjwGZ1rj8UuKSiP5k+0NP8suOSVEh4teQr0zaW/csx7IVBwF9z6QE9pUfheXVP9M7V9noMU7PDtpUoJhSNxGVjweibsje7BPddSR0FlL4T04Lbh4geew+fbVkA9/jq+evEKXFHlCN64/hm8eZA6nBoOVDtGjaWgLz7Zvo3aHK9HWg41Ywk53bHoHKQb0q3fEdNljFcqhEaZLn8aQwrqyLOmjsQl/T+Gte9bdOgnqAdmY+5lJ3CoQE8TC3yraduXeG/dDeipLTtwwu2kjW/5Nb4cd3bchTdW7qN2TOn8kMy5pCuLlToCxY0u143EkkHzsYbzIse4f9rtFCw9gsX8vQgK7PgBfGePHcPqF17AqrMdHLuFgTvw7di2hQ5aMjHjX4sRX59n4H1H/XDnsrBzDSh91lEnTwdJTY3TGgJXNkBdNQXd06th3L2vYj+XwWrFmsFVSb6Z2GM/ldnGGMvBo/1uV+ABfIwnp+3VboNh+UaMJw3a+XZxs9a46aLXMHoS38akjsD2BYaaSb5ndwSvXeMOI7kOrsC7WLiC8kiwYd+SVVhF5Yl5bBMGt8eNzr0fBKa8gjkZdlhosLZmyWLgbP+1I9QBe4RmrXDHZb+g38wvSB7qnLZ/ideXKTjTTDbuTUPPznH48pWN2E8dl8m2DhOHfIf/u7MNkr08HxMBsvFGjbsCL23AGhp8mmy78MHcTYAjeikVnpUjeW6/6Du8tZKC97h4Cji+wmDHmei72Iw63t98Cb1c3pFUXl/+lrgszBz9LNC/NTrzesgYbS52qO2qqdF1QQOoyE92l0QeSlvlB7y/gsqf4ACWvot+y87ArF51OcIpQbuj5OQDUJXaR+wjZ9ItlTWCTTQ1cQBRkrZfCtiXUlsbjHfwKbcRamv7p83HC+iGq9Op/ThLUJYiRJKdLNljrF+yqYQErL2H/NE1aylwIjmitJ+AvWr19TbuXXIGBvZM9fkNP1H0ep6aBzS9MjYfYkDhfiiSrrrS9RqTbK1+wbt+2Ra/QbIBNc0RW250opThlPxFNHimOJJ/Hbcblt1vQHHchtmZPCIm+2hWHxfiarRMo8+8zDAG3ORP2kfyJ2Rubm3Qzcsr9BNOc06zYqowV70YrmkK/sz8Q99XiHNTS+yaOxWO6mkhBlr6sOKvRKEALv+/r2Pot8fQ6t7uaKUGj9L4ifHd0/pCqd4LCQ17QrlwKC5/NQMn7X/gAOIQ56BGXSsd99/qxO5D32Nk996onkZpG12NhDrtoQykgKysFrJTYzp24iQ10qbY/doddJ10KJeNRN/vElCLfWyMWKxmLBwxGGvva4WOVGmF5fXC60pBevdkbBz6GtZQwMVhrpMdZYsrcU/rX3Bv06q462NK2vMp7JuUgQ7mC7TbdnVHWjB78/Pozk7OTQ4Zeb58vdTpNb8XLwxw44X0i6EoVbHophl4+OCb+GobFcjYWjiA6XU7ZtN1+jY/jzr4pxH/1EC02vMtftocnNZd4ESv9T+R47rfd2vK2hznDKmP1e+2A7KzUfehFVid/iTqmi+l483RYc5orPYMQv0CF/L+pEDoz8J5Xk8ufd+Y75tVMMrOeJ04qumA0sdaDjrbXdAWUzcPRsHIa6kczaFMseLRztnYV0Bpc+tj4DezcPEoqj/rJRSID8O0AZ9CHduQBh6GVsS6a3oPnh1gwoQedE1TCvrEdcHDruPI487R7dJko/Gpnt4na+B7aFn8uJ3wdnuC6s/sWw5C8o2LuxpdDubAxbftItYBdQp59THgy/EYNmMYHWsGpflvaDPyOD49zsFFrk/vV/2L9H6RVq6XBozHVyP4VUaGcml4kbNxDzbm0n6nBw2G9cEwLCR7InnMzyJxwG3AqpyodVLAnVsO63Iqzhvu1+X9+G7S95jbU8Wuo5SW69nF5WV73arnfy0GJ07Hb7PbwnsyP7rNIUSnJNFJbMJJn3EXlkHH6bctZ15kXXipQ/z0ASj217AnNOgtQRvwQdeuei9a7b2Z0pKN9HgLwxa9jwGpudraxXD2+r+tdA7ZlrFcXrKn5J7puGrJRNQxPUEdueJr++HsLAganFMdhLOJpUdoAN0s1jZD+NsaB7G8NiBsnWtfDHr3tbXpm0djY48Uuj77Ijf5orHoQHZVpE0UqbPQ7776zSf/ErW9k0366ncC6p7Vg3xMCtpnkk192h7oclPU9hOwV2N9NSwIindZrkh6/fQ4lSu/Xmw+hAnogM5zRtAVlded10lvVwEAAAa7SURBVAADX30A+cPZZ9HxFc3w6fUHsd9JcpNefHriFun/XHidgN0HEa0MJfQXofUY+j3gI2iH5hPC6GYM5duwH9RFLTGwOflkO/Ubyr1YP+kJDGlKp3OdG20uxO8E+gm2zUj+hEzeYluLWxzpGF+hfhCl/FCoc2QLiYiXHLXL5cLJAg9qvlUN3vvJM7tYuTpWB5Q3qgOOC/Qd5YOJasO9bxMOxrWAN38/GtRNpsrUD4ZgjrPAs+tbHHC00Pf4UJxxqFvXA0+QrSswW7/HsQMUe1hbwm62omZVCp5CbLjcyPsB6p0hOg2LAktiDl6/7i4M/d9FmL/lCVxrJsdjqD1fwNsPqU/9gfiabL0qck1mtDu/PR56rj/S63jg9phgic/BkiefxYsfbMfafDPiua/MzUZur8egTmtDl9qFGe3uwpAvm2D6jy9jcCM6nvEOWp//KjZe0Q+71t5Jo9o1GOL4F2agC5bnjUFnL11vxXNQrlkO3PcU1OltqTF/gydvfREvbHYjz25Gpyu64+b63+C+Z7/B4I+/wfTOxieoI8MzpL7OomhiLrOJnBrcVAiO1anDc5Ms/Ho0bQRNzoav4UvnVxb91dLRR5694lkQCpT9uWvX87/jjvPgW1h6PsEYrsN58h9Wuz/vIIxpGfob6ZqGY6Fl18pB8nrzXb6ZN6Ps/EqcgA5KUg5CO5cNgT/r/7jz9bQ8C6Dt9MHrsyPcigwuh65vlocf0jDIFipruHowElR/LCZfQ0tbXB0YZacdCl1UJR3onVSQvBHL5b+G/zxjniwTCWRSY6qT4HMZSkd5hq1nf3n9efu+RC5vqI7919LqPLQMetkN1wyvCzqvymHMvOkzdHnzPqT6H5ANUJz+dVgvayZC6Qmscz+MNi5dzwZ7DLq+0V69oeUiAvZKO4xtv4gOwhHZJiLKoMsYwFiv/B7eiHVeVO+FsjOkM7+sRWwl9NzQ78b6jaI/n1BUjwcxreYbuODwU7iKBjk+myqu/kLsNZBfOCLrtUg+kdpaqA4i6YrzowEYB7TaQ3pxBzGvy434buhGzOhAA0OyN5+e6GOI/kPtPphoZdDPLc5fhC2D4XsRXxdFN1pa30cfdA7LEppHyPegfsL/nfXHBPkTvjbpL6DX05tKE/AyHPQqPBnLyxnC2JmRQFojVKNFnvnR4KCXKp0Ni19V9ldWfKwBr8UOy1ezoPT+BLUGPYWDT19E8UjRwgQZNsO+gjdeBhAoFwXPdnICjHEZgrGT05wEB5IhjifQWPyNlA4GNTr668+HKsDCP/7AztQvh0r/8DWjOk5BECoE3O63TsVVH1+Nzx+rF+j4Swz7Bj3gXZ03Au0Dnb3wV2GxVwHs6zFU+RRd8p5Cz0pbB9z3rMUdjrm4YvMCDGpM/cmy56H02IQZP7+DQcn/jOBNKDlBY4eKDt/K0tbsxtBKA2mNW9hgl1H1d/LSViEbCgWolhy8PXMqcLIRxg24jILM8IXhNwJoa1z9G9/+yactqFwq7ad0vAWl9SuWAlbtKV6D49CeKOe8/CNDcpbaeQanScPpoHxUj54P7+Nz+a9+zcrpaQXhnwW3+6ZDTy3Y9RNp2YpQ7vDM5OK7E6EogzFtQDf0VNiDV1Z4MUBXPDcpHoN5mZPlksByi0H8y3cVsg8XKgKVaob3tKQkSxri7FQhhllXQRCEykLobVjhLyVwOz7SrfhKRpG7mXLXUCiGSjXD+89GLTrrKgiCUFnQ7gBJsPt34S7w3207PWqgyN1MMSyhGCTgFQRBEARBEE5ryibg5YfDvKGv+RCKhXVWOd6IJgiCIAiCUGk59YCXn8BPGwTs3yxBb0lgXbHOWHfaK2EEQRAEQRCE8uDUH1pj7ElQNj4MZM7UXosnxADP7FKwq7Z6ASjI9u0TBEEQBEEQypyyCXgZsx3ai66F2OGZXU9JfmdXEARBEARBKCkxB7w5Li/OeqMqvP2PgX9mTxAEQRAEQRAqAzFNySqK4vuhLA6N3fn8iXcLgiAIgiAIQoWn2IBXC3Zps5hMcKe0BXa8r/3YhAS9giAIgiAIQmWg2CUNqqpqyxqcLjc8x7aj+rSL4b5tOtDwBsDCv9wS9XRBEARBEARB+FspNuBlOOD1eDxwulWox7chcdNIWHatgyqTvIIgCIIgCEIFJ6aAl2d5eeOg1+3xaj9t66YgmE9UvTLDKwiCIAiCIFRcYgp4GX/Q61/i4P8sCIIgCIIgCBWZmANeP/4gV4JdQRAEQRAEoTJQ4oBXEARBEARBECoT8tNogiAIgiAIwmmNBLyCIAiCIAjCaQzw/9/1jAyTuaT0AAAAAElFTkSuQmCC;" vertex="1" parent="8itLjb-vwKw_TztZcY8h-21">
          <mxGeometry y="34" width="550" height="320" as="geometry" />
        </mxCell>
        <mxCell id="YqFJP60Pa1F06QJ819Ov-6" style="edgeStyle=orthogonalEdgeStyle;rounded=0;orthogonalLoop=1;jettySize=auto;html=1;entryX=0.002;entryY=0.694;entryDx=0;entryDy=0;entryPerimeter=0;fillColor=#d5e8d4;strokeColor=#82b366;strokeWidth=3;" edge="1" parent="WIyWlLk6GJQsqaUBKTNV-1" source="8itLjb-vwKw_TztZcY8h-10" target="YqFJP60Pa1F06QJ819Ov-4">
          <mxGeometry relative="1" as="geometry">
            <Array as="points">
              <mxPoint x="760" y="234" />
              <mxPoint x="760" y="411" />
            </Array>
          </mxGeometry>
        </mxCell>
        <mxCell id="YqFJP60Pa1F06QJ819Ov-7" style="edgeStyle=orthogonalEdgeStyle;rounded=0;orthogonalLoop=1;jettySize=auto;html=1;exitX=1;exitY=0.5;exitDx=0;exitDy=0;entryX=-0.012;entryY=0.941;entryDx=0;entryDy=0;entryPerimeter=0;fillColor=#f0a30a;strokeColor=#BD7000;strokeWidth=3;" edge="1" parent="WIyWlLk6GJQsqaUBKTNV-1" source="8itLjb-vwKw_TztZcY8h-11" target="YqFJP60Pa1F06QJ819Ov-4">
          <mxGeometry relative="1" as="geometry">
            <Array as="points">
              <mxPoint x="730" y="260" />
              <mxPoint x="730" y="490" />
            </Array>
          </mxGeometry>
        </mxCell>
        <mxCell id="YqFJP60Pa1F06QJ819Ov-8" style="edgeStyle=orthogonalEdgeStyle;rounded=0;orthogonalLoop=1;jettySize=auto;html=1;exitX=1;exitY=0.5;exitDx=0;exitDy=0;entryX=-0.012;entryY=0.941;entryDx=0;entryDy=0;entryPerimeter=0;fillColor=#ffe6cc;strokeColor=#d79b00;strokeWidth=3;dashed=1;dashPattern=1 1;" edge="1" parent="WIyWlLk6GJQsqaUBKTNV-1" source="8itLjb-vwKw_TztZcY8h-29" target="YqFJP60Pa1F06QJ819Ov-4">
          <mxGeometry relative="1" as="geometry">
            <Array as="points">
              <mxPoint x="700" y="286" />
              <mxPoint x="700" y="490" />
            </Array>
          </mxGeometry>
        </mxCell>
        <mxCell id="YqFJP60Pa1F06QJ819Ov-9" style="edgeStyle=orthogonalEdgeStyle;rounded=0;orthogonalLoop=1;jettySize=auto;html=1;entryX=-0.008;entryY=0.323;entryDx=0;entryDy=0;entryPerimeter=0;strokeWidth=3;" edge="1" parent="WIyWlLk6GJQsqaUBKTNV-1" source="8itLjb-vwKw_TztZcY8h-12" target="YqFJP60Pa1F06QJ819Ov-4">
          <mxGeometry relative="1" as="geometry">
            <Array as="points">
              <mxPoint x="610" y="312" />
              <mxPoint x="610" y="292" />
            </Array>
          </mxGeometry>
        </mxCell>
        <mxCell id="YqFJP60Pa1F06QJ819Ov-10" style="edgeStyle=orthogonalEdgeStyle;rounded=0;orthogonalLoop=1;jettySize=auto;html=1;exitX=1;exitY=0.5;exitDx=0;exitDy=0;entryX=-0.006;entryY=0.201;entryDx=0;entryDy=0;entryPerimeter=0;fillColor=#f8cecc;strokeColor=#b85450;strokeWidth=3;" edge="1" parent="WIyWlLk6GJQsqaUBKTNV-1" source="8itLjb-vwKw_TztZcY8h-28" target="YqFJP60Pa1F06QJ819Ov-4">
          <mxGeometry relative="1" as="geometry">
            <Array as="points">
              <mxPoint x="640" y="338" />
              <mxPoint x="640" y="253" />
            </Array>
          </mxGeometry>
        </mxCell>
        <mxCell id="YqFJP60Pa1F06QJ819Ov-11" style="edgeStyle=orthogonalEdgeStyle;rounded=0;orthogonalLoop=1;jettySize=auto;html=1;entryX=0;entryY=0.069;entryDx=0;entryDy=0;entryPerimeter=0;fillColor=#ffe6cc;strokeColor=#d79b00;strokeWidth=3;exitX=1;exitY=0.5;exitDx=0;exitDy=0;" edge="1" parent="WIyWlLk6GJQsqaUBKTNV-1" source="8itLjb-vwKw_TztZcY8h-29" target="YqFJP60Pa1F06QJ819Ov-4">
          <mxGeometry relative="1" as="geometry">
            <mxPoint x="540" y="363.9999999999998" as="sourcePoint" />
            <Array as="points">
              <mxPoint x="540" y="285" />
              <mxPoint x="590" y="285" />
              <mxPoint x="590" y="211" />
            </Array>
          </mxGeometry>
        </mxCell>
        <mxCell id="YqFJP60Pa1F06QJ819Ov-12" style="edgeStyle=orthogonalEdgeStyle;rounded=0;orthogonalLoop=1;jettySize=auto;html=1;exitX=1;exitY=0.5;exitDx=0;exitDy=0;entryX=-0.006;entryY=0.448;entryDx=0;entryDy=0;entryPerimeter=0;fillColor=#6d8764;strokeColor=#3A5431;strokeWidth=3;" edge="1" parent="WIyWlLk6GJQsqaUBKTNV-1" source="8itLjb-vwKw_TztZcY8h-41" target="YqFJP60Pa1F06QJ819Ov-4">
          <mxGeometry relative="1" as="geometry">
            <Array as="points">
              <mxPoint x="660" y="364" />
              <mxPoint x="660" y="332" />
            </Array>
          </mxGeometry>
        </mxCell>
        <mxCell id="YqFJP60Pa1F06QJ819Ov-14" style="edgeStyle=orthogonalEdgeStyle;rounded=0;orthogonalLoop=1;jettySize=auto;html=1;exitX=1;exitY=0.5;exitDx=0;exitDy=0;entryX=-0.01;entryY=0.566;entryDx=0;entryDy=0;entryPerimeter=0;strokeWidth=3;fillColor=#1ba1e2;strokeColor=#006EAF;" edge="1" parent="WIyWlLk6GJQsqaUBKTNV-1" source="YqFJP60Pa1F06QJ819Ov-13" target="YqFJP60Pa1F06QJ819Ov-4">
          <mxGeometry relative="1" as="geometry">
            <Array as="points">
              <mxPoint x="540" y="395" />
              <mxPoint x="680" y="395" />
              <mxPoint x="680" y="370" />
            </Array>
          </mxGeometry>
        </mxCell>
        <mxCell id="YqFJP60Pa1F06QJ819Ov-16" value="Database" style="shape=datastore;whiteSpace=wrap;html=1;fontSize=16;fontStyle=1;strokeWidth=2;" vertex="1" parent="WIyWlLk6GJQsqaUBKTNV-1">
          <mxGeometry x="800" y="595" width="80" height="80" as="geometry" />
        </mxCell>
        <mxCell id="YqFJP60Pa1F06QJ819Ov-18" value="Pessoas" style="swimlane;whiteSpace=wrap;html=1;fillColor=#d5e8d4;strokeColor=#82b366;fontSize=15;" vertex="1" parent="WIyWlLk6GJQsqaUBKTNV-1">
          <mxGeometry x="997" y="628" width="300" height="135.5" as="geometry" />
        </mxCell>
        <mxCell id="YqFJP60Pa1F06QJ819Ov-19" value="IdÂ  (PK)Â  Â  Â  Â  Â  Â  Â  Â  Â  Â  Â  Â  Â  Â  Â  Â  Â  Â  Â  Â  Â  Â  Â  Â  Â  Â  Â  Â  int" style="text;align=left;verticalAlign=top;spacingLeft=4;spacingRight=4;overflow=hidden;rotatable=0;points=[[0,0.5],[1,0.5]];portConstraint=eastwest;rounded=0;shadow=0;html=0;fontStyle=1;strokeColor=default;fontSize=14;" vertex="1" parent="YqFJP60Pa1F06QJ819Ov-18">
          <mxGeometry y="24" width="300" height="26" as="geometry" />
        </mxCell>
        <mxCell id="YqFJP60Pa1F06QJ819Ov-20" value="NomeÂ  Â  Â  Â  Â  Â  Â  Â  Â  Â  Â  Â  Â  Â  Â  Â  Â  Â  Â  Â  Â  Â  varchar(60)" style="text;align=left;verticalAlign=top;spacingLeft=4;spacingRight=4;overflow=hidden;rotatable=0;points=[[0,0.5],[1,0.5]];portConstraint=eastwest;rounded=0;shadow=0;html=0;fontStyle=1;strokeColor=default;fontSize=14;" vertex="1" parent="YqFJP60Pa1F06QJ819Ov-18">
          <mxGeometry y="50" width="300" height="26" as="geometry" />
        </mxCell>
        <mxCell id="YqFJP60Pa1F06QJ819Ov-21" value="CPFÂ  Â  Â  Â  Â  Â  Â  Â  Â  Â  Â  Â  Â  Â  Â  Â  Â  Â  Â  Â  Â  Â  Â  Â varchar(15)" style="text;align=left;verticalAlign=top;spacingLeft=4;spacingRight=4;overflow=hidden;rotatable=0;points=[[0,0.5],[1,0.5]];portConstraint=eastwest;rounded=0;shadow=0;html=0;fontStyle=1;strokeColor=default;fontSize=14;" vertex="1" parent="YqFJP60Pa1F06QJ819Ov-18">
          <mxGeometry y="76" width="300" height="26" as="geometry" />
        </mxCell>
        <mxCell id="YqFJP60Pa1F06QJ819Ov-22" value="EnderecoÂ  Â  Â  Â  Â  Â  Â  Â  Â  Â  Â  Â  Â  Â  Â  Â  Â  Â  varchar(140)" style="text;align=left;verticalAlign=top;spacingLeft=4;spacingRight=4;overflow=hidden;rotatable=0;points=[[0,0.5],[1,0.5]];portConstraint=eastwest;rounded=0;shadow=0;html=0;fontStyle=1;strokeColor=default;fontSize=14;" vertex="1" parent="YqFJP60Pa1F06QJ819Ov-18">
          <mxGeometry y="102" width="300" height="26" as="geometry" />
        </mxCell>
        <mxCell id="YqFJP60Pa1F06QJ819Ov-25" style="edgeStyle=orthogonalEdgeStyle;rounded=0;orthogonalLoop=1;jettySize=auto;html=1;entryX=0.007;entryY=0.049;entryDx=0;entryDy=0;entryPerimeter=0;strokeWidth=3;" edge="1" parent="WIyWlLk6GJQsqaUBKTNV-1" source="YqFJP60Pa1F06QJ819Ov-16" target="YqFJP60Pa1F06QJ819Ov-18">
          <mxGeometry relative="1" as="geometry" />
        </mxCell>
        <mxCell id="YqFJP60Pa1F06QJ819Ov-30" value="Funcionarios" style="swimlane;whiteSpace=wrap;html=1;fillColor=#dae8fc;strokeColor=#6c8ebf;fontSize=15;" vertex="1" parent="WIyWlLk6GJQsqaUBKTNV-1">
          <mxGeometry x="670" y="755" width="300" height="260" as="geometry" />
        </mxCell>
        <mxCell id="YqFJP60Pa1F06QJ819Ov-31" value="idÂ  (PK) Â Â Â Â Â Â Â Â Â Â Â Â Â Â Â Â Â Â Â Â Â Â Â Â Â Â Â Â Â Â Â Â Â Â Â Â Â Â Â Â Â Â Â Â Â Â Â Â Â Â Â Â Â Â Â Â Â Â Â Â Â Â Â Â Â Â Â  Â int" style="text;align=left;verticalAlign=top;spacingLeft=4;spacingRight=4;overflow=hidden;rotatable=0;points=[[0,0.5],[1,0.5]];portConstraint=eastwest;rounded=0;shadow=0;html=0;fontStyle=1;strokeColor=default;fontSize=14;" vertex="1" parent="YqFJP60Pa1F06QJ819Ov-30">
          <mxGeometry y="24" width="300" height="26" as="geometry" />
        </mxCell>
        <mxCell id="YqFJP60Pa1F06QJ819Ov-33" value="cpf (FK)Â  Â  Â  Â  Â  Â  Â  Â  Â  Â  Â  Â  Â  Â  Â  Â  Â  Â  Â  Â  Â varchar(15)" style="text;align=left;verticalAlign=top;spacingLeft=4;spacingRight=4;overflow=hidden;rotatable=0;points=[[0,0.5],[1,0.5]];portConstraint=eastwest;rounded=0;shadow=0;html=0;fontStyle=1;strokeColor=default;fontSize=14;" vertex="1" parent="YqFJP60Pa1F06QJ819Ov-30">
          <mxGeometry y="50" width="300" height="26" as="geometry" />
        </mxCell>
        <mxCell id="YqFJP60Pa1F06QJ819Ov-34" value="matriculaÂ  Â  Â  Â  Â  Â  Â  Â  Â  Â  Â  Â  Â  Â  Â  Â  Â  Â  Â  Â  Â  Â  Â  Â  Â  Â  Â int" style="text;align=left;verticalAlign=top;spacingLeft=4;spacingRight=4;overflow=hidden;rotatable=0;points=[[0,0.5],[1,0.5]];portConstraint=eastwest;rounded=0;shadow=0;html=0;fontStyle=1;strokeColor=default;fontSize=14;" vertex="1" parent="YqFJP60Pa1F06QJ819Ov-30">
          <mxGeometry y="76" width="300" height="22" as="geometry" />
        </mxCell>
        <mxCell id="YqFJP60Pa1F06QJ819Ov-37" value="FuncaoÂ  Â  Â  Â  Â  Â  Â  Â  Â  Â  Â  Â  Â  Â  Â  Â  Â  Â  Â  Â  Â  varchar(15)" style="text;align=left;verticalAlign=top;spacingLeft=4;spacingRight=4;overflow=hidden;rotatable=0;points=[[0,0.5],[1,0.5]];portConstraint=eastwest;rounded=0;shadow=0;html=0;fontStyle=1;strokeColor=default;fontSize=14;" vertex="1" parent="YqFJP60Pa1F06QJ819Ov-30">
          <mxGeometry y="99" width="300" height="26" as="geometry" />
        </mxCell>
        <mxCell id="YqFJP60Pa1F06QJ819Ov-38" value="emailÂ  Â  Â  Â  Â  Â  Â  Â  Â  Â  Â  Â  Â  Â  Â  Â  Â  Â  Â  Â  Â  Â  Â varchar(25)" style="text;align=left;verticalAlign=top;spacingLeft=4;spacingRight=4;overflow=hidden;rotatable=0;points=[[0,0.5],[1,0.5]];portConstraint=eastwest;rounded=0;shadow=0;html=0;fontStyle=1;strokeColor=default;fontSize=14;" vertex="1" parent="YqFJP60Pa1F06QJ819Ov-30">
          <mxGeometry y="126" width="300" height="26" as="geometry" />
        </mxCell>
        <mxCell id="YqFJP60Pa1F06QJ819Ov-39" value="loginÂ  Â  Â  Â  Â  Â  Â  Â  Â  Â  Â  Â  Â  Â  Â  Â  Â  Â  Â  Â  Â  Â  Â  varchar(15)" style="text;align=left;verticalAlign=top;spacingLeft=4;spacingRight=4;overflow=hidden;rotatable=0;points=[[0,0.5],[1,0.5]];portConstraint=eastwest;rounded=0;shadow=0;html=0;fontStyle=1;strokeColor=default;fontSize=14;" vertex="1" parent="YqFJP60Pa1F06QJ819Ov-30">
          <mxGeometry y="153" width="300" height="26" as="geometry" />
        </mxCell>
        <mxCell id="YqFJP60Pa1F06QJ819Ov-40" value="senhaÂ  Â  Â  Â  Â  Â  Â  Â  Â  Â  Â  Â  Â  Â  Â  Â  Â  Â  Â  Â  Â  Â  varchar(15)" style="text;align=left;verticalAlign=top;spacingLeft=4;spacingRight=4;overflow=hidden;rotatable=0;points=[[0,0.5],[1,0.5]];portConstraint=eastwest;rounded=0;shadow=0;html=0;fontStyle=1;strokeColor=default;fontSize=14;" vertex="1" parent="YqFJP60Pa1F06QJ819Ov-30">
          <mxGeometry y="180" width="300" height="26" as="geometry" />
        </mxCell>
        <mxCell id="YqFJP60Pa1F06QJ819Ov-42" value="alterar_senhaÂ  Â  Â  Â  Â  Â  Â  Â  Â  Â  Â  Â  Â  Â  Â  Â  Â  Â  Â boolean" style="text;align=left;verticalAlign=top;spacingLeft=4;spacingRight=4;overflow=hidden;rotatable=0;points=[[0,0.5],[1,0.5]];portConstraint=eastwest;rounded=0;shadow=0;html=0;fontStyle=1;strokeColor=default;fontSize=14;" vertex="1" parent="YqFJP60Pa1F06QJ819Ov-30">
          <mxGeometry y="207" width="300" height="26" as="geometry" />
        </mxCell>
        <mxCell id="YqFJP60Pa1F06QJ819Ov-43" value="cadastrado_porÂ  Â  Â  Â  Â  Â  Â  Â  Â  Â  Â  Â  Â  Â  varchar(15)" style="text;align=left;verticalAlign=top;spacingLeft=4;spacingRight=4;overflow=hidden;rotatable=0;points=[[0,0.5],[1,0.5]];portConstraint=eastwest;rounded=0;shadow=0;html=0;fontStyle=1;strokeColor=default;fontSize=14;" vertex="1" parent="YqFJP60Pa1F06QJ819Ov-30">
          <mxGeometry y="234" width="300" height="26" as="geometry" />
        </mxCell>
        <mxCell id="YqFJP60Pa1F06QJ819Ov-35" style="edgeStyle=orthogonalEdgeStyle;rounded=0;orthogonalLoop=1;jettySize=auto;html=1;exitX=0.5;exitY=1;exitDx=0;exitDy=0;entryX=0.25;entryY=0;entryDx=0;entryDy=0;strokeWidth=3;" edge="1" parent="WIyWlLk6GJQsqaUBKTNV-1" source="YqFJP60Pa1F06QJ819Ov-16" target="YqFJP60Pa1F06QJ819Ov-30">
          <mxGeometry relative="1" as="geometry" />
        </mxCell>
        <mxCell id="YqFJP60Pa1F06QJ819Ov-36" style="edgeStyle=orthogonalEdgeStyle;rounded=0;orthogonalLoop=1;jettySize=auto;html=1;exitX=1;exitY=0.5;exitDx=0;exitDy=0;entryX=1;entryY=0.5;entryDx=0;entryDy=0;endArrow=none;endFill=0;strokeWidth=3;" edge="1" parent="WIyWlLk6GJQsqaUBKTNV-1" source="YqFJP60Pa1F06QJ819Ov-21" target="YqFJP60Pa1F06QJ819Ov-33">
          <mxGeometry relative="1" as="geometry">
            <Array as="points">
              <mxPoint x="1320" y="717" />
              <mxPoint x="1320" y="818" />
            </Array>
          </mxGeometry>
        </mxCell>
      </root>
    </mxGraphModel>
  </diagram>
</mxfile>
